<svg width="32" height="32" viewBox="0 0 32 32" fill="none" xmlns="http://www.w3.org/2000/svg">
<path d="M24.4678 9.22168C24.7578 8.93168 25.2373 8.93168 25.5273 9.22168L31.7773 15.4717C32.0672 15.7617 32.0673 16.2413 31.7773 16.5312L25.5273 22.7812C25.3774 22.9312 25.187 23.001 24.9971 23.001C24.8073 23.0009 24.6176 22.931 24.4678 22.7812C24.1778 22.4913 24.1779 22.0117 24.4678 21.7217L29.4385 16.75H4.75C4.34006 16.75 4.00011 16.4099 4 16C4 15.59 4.34 15.25 4.75 15.25H29.4365L24.4678 10.2812C24.1778 9.99128 24.1779 9.51169 24.4678 9.22168Z" fill="#0A0A0A"/>
</svg>
