<svg width="20" height="20" viewBox="0 0 20 20" fill="none" xmlns="http://www.w3.org/2000/svg">
<rect x="0.5" y="0.5" width="19" height="19" rx="9.5" fill="#F0F9FF"/>
<rect x="0.5" y="0.5" width="19" height="19" rx="9.5" stroke="white"/>
<path d="M8.20673 14.5C7.97877 14.5 7.78442 14.4204 7.62371 14.2611C7.463 14.1018 7.38264 13.9103 7.38264 13.6866C7.38264 13.4629 7.46381 13.2722 7.62615 13.1145C7.78849 12.9568 7.98364 12.878 8.2116 12.878C8.43957 12.878 8.63391 12.9576 8.79462 13.1169C8.95534 13.2762 9.03569 13.4677 9.03569 13.6914C9.03569 13.9151 8.95452 14.1058 8.79219 14.2635C8.62985 14.4212 8.43469 14.5 8.20673 14.5ZM12.7985 14.5C12.5706 14.5 12.3762 14.4204 12.2155 14.2611C12.0548 14.1018 11.9745 13.9103 11.9745 13.6866C11.9745 13.4629 12.0556 13.2722 12.218 13.1145C12.3803 12.9568 12.5754 12.878 12.8034 12.878C13.0314 12.878 13.2257 12.9576 13.3864 13.1169C13.5471 13.2762 13.6275 13.4677 13.6275 13.6914C13.6275 13.9151 13.5463 14.1058 13.384 14.2635C13.2217 14.4212 13.0265 14.5 12.7985 14.5ZM7.61223 7.06571L8.87498 9.63392H12.1811L13.616 7.06571H7.61223ZM7.26785 6.38986H14.0301C14.2059 6.38986 14.3396 6.46871 14.4313 6.62641C14.523 6.78411 14.5229 6.9418 14.4311 7.0995L12.8813 9.83667C12.7971 9.97935 12.6879 10.0939 12.5535 10.1802C12.4191 10.2666 12.272 10.3098 12.1122 10.3098H8.63391L7.99106 11.4812H13.6275V12.1571H8.09437C7.77295 12.1571 7.54144 12.0519 7.39986 11.8417C7.25828 11.6314 7.26019 11.3949 7.4056 11.132L8.14029 9.80288L6.3954 6.17584H5.5V5.5H6.8431L7.26785 6.38986Z" fill="#2493D8"/>
</svg>
