<svg width="20" height="20" viewBox="0 0 20 20" fill="none" xmlns="http://www.w3.org/2000/svg">
<path d="M10 20C15.5228 20 20 15.5228 20 10C20 4.47715 15.5228 0 10 0C4.47715 0 0 4.47715 0 10C0 15.5228 4.47715 20 10 20Z" fill="#F59E0B"/>
<path d="M9.98242 5H12.1016L10.5156 11.6172H8.75879L9.98242 5ZM9.11426 15.0488C8.49219 15.0488 8 14.5635 8 13.9414C8 13.3262 8.49219 12.8408 9.11426 12.8408C9.72949 12.8408 10.2285 13.3262 10.2285 13.9414C10.2285 14.5635 9.72949 15.0488 9.11426 15.0488Z" fill="white"/>
</svg>
