<svg width="25" height="25" viewBox="0 0 25 25" fill="none" xmlns="http://www.w3.org/2000/svg">
<path d="M19.7943 6.2526C20.0705 6.2526 20.3355 6.14286 20.5308 5.94751C20.7262 5.75216 20.8359 5.4872 20.8359 5.21094C20.8359 4.93467 20.7262 4.66972 20.5308 4.47437C20.3355 4.27902 20.0705 4.16927 19.7943 4.16927C19.518 4.16927 19.253 4.27902 19.0577 4.47437C18.8623 4.66972 18.7526 4.93467 18.7526 5.21094C18.7526 5.4872 18.8623 5.75216 19.0577 5.94751C19.253 6.14286 19.518 6.2526 19.7943 6.2526ZM19.7943 2.08594C20.6231 2.08594 21.4179 2.41518 22.004 3.00123C22.59 3.58728 22.9193 4.38214 22.9193 5.21094V11.4609H18.7526V7.29427H6.2526V11.4609H2.08594V5.21094C2.08594 4.38214 2.41518 3.58728 3.00123 3.00123C3.58728 2.41518 4.38214 2.08594 5.21094 2.08594H19.7943ZM18.7526 19.013C18.7526 19.4089 18.5339 19.7526 18.2005 19.9297L13.0964 22.7318C12.9193 22.8568 12.7214 22.9193 12.5026 22.9193C12.2839 22.9193 12.0755 22.8568 11.9089 22.7318L6.80469 19.9297C6.47135 19.7526 6.2526 19.4089 6.2526 19.013V13.5443C6.2526 13.1484 6.47135 12.8047 6.80469 12.6276L11.9089 10.0859C12.0755 9.96094 12.2839 9.89844 12.5026 9.89844C12.7214 9.89844 12.9193 9.96094 13.0964 10.0859L18.2005 12.6276C18.5339 12.8047 18.7526 13.1484 18.7526 13.5443V19.013ZM12.5026 12.138L9.41927 13.5443L12.5026 15.2109L15.5859 13.5443L12.5026 12.138ZM8.33594 18.3984L11.4609 20.0964V17.013L8.33594 15.3255V18.3984ZM16.6693 18.3984V15.3255L13.5443 17.013V20.0964L16.6693 18.3984Z" fill="white"/>
</svg>
