<svg width="30" height="30" viewBox="0 0 30 30" fill="none" xmlns="http://www.w3.org/2000/svg">
<path d="M27.5 19.9004C27.858 19.9004 28.2019 20.0417 28.4551 20.2949C28.7083 20.5481 28.8496 20.892 28.8496 21.25V27.5C28.8496 27.858 28.7083 28.2019 28.4551 28.4551C28.2019 28.7083 27.858 28.8496 27.5 28.8496H2.5C2.14196 28.8496 1.7981 28.7083 1.54492 28.4551C1.29175 28.2019 1.15039 27.858 1.15039 27.5V21.25C1.15039 20.892 1.29175 20.5481 1.54492 20.2949C1.7981 20.0417 2.14196 19.9004 2.5 19.9004C2.85804 19.9004 3.2019 20.0417 3.45508 20.2949C3.70825 20.5481 3.84961 20.892 3.84961 21.25V26.1504H26.1504V21.25C26.1504 20.892 26.2917 20.5481 26.5449 20.2949C26.7981 20.0417 27.142 19.9004 27.5 19.9004Z" fill="#222222" stroke="#222222" stroke-width="0.2"/>
<path d="M15 1.15039C15.358 1.15039 15.7019 1.29183 15.9551 1.54492C16.2083 1.7981 16.3506 2.14196 16.3506 2.5V17.9912L21.5459 12.7959L21.5469 12.7939C21.8015 12.5481 22.1432 12.412 22.4971 12.415C22.8508 12.4182 23.1893 12.5604 23.4395 12.8105C23.6898 13.0608 23.8319 13.3999 23.835 13.7539C23.838 14.1077 23.7018 14.4486 23.4561 14.7031L15.9551 22.2041C15.7019 22.4572 15.358 22.5996 15 22.5996C14.6421 22.5995 14.299 22.4571 14.0459 22.2041L6.54492 14.7031C6.29907 14.4486 6.16301 14.1078 6.16602 13.7539C6.16909 13.4 6.31033 13.0608 6.56055 12.8105C6.81085 12.5602 7.14994 12.4181 7.50391 12.415C7.85769 12.412 8.19856 12.5483 8.45312 12.7939L13.6504 17.9912V2.5C13.6504 2.14196 13.7927 1.7981 14.0459 1.54492C14.299 1.29203 14.6422 1.15046 15 1.15039Z" fill="#222222" stroke="#222222" stroke-width="0.2"/>
</svg>
