<svg width="201" height="16" viewBox="0 0 201 16" fill="none" xmlns="http://www.w3.org/2000/svg">
<rect y="7.51562" width="80" height="0.970588" fill="#E7E7E7"/>
<path d="M100.6 7.75781C100.6 10.4414 99.0176 12.1172 96.8496 12.1172C94.6699 12.1172 93.0996 10.4414 93.0996 7.75781C93.0996 5.07422 94.6699 3.39844 96.8496 3.39844C99.0176 3.39844 100.6 5.07422 100.6 7.75781ZM99.5801 7.75781C99.5801 5.56641 98.3848 4.38281 96.8496 4.38281C95.3145 4.38281 94.1191 5.56641 94.1191 7.75781C94.1191 9.94922 95.3145 11.1328 96.8496 11.1328C98.3848 11.1328 99.5801 9.94922 99.5801 7.75781ZM102.146 12V3.51562H105.029C107.021 3.51562 107.924 4.61719 107.924 6.12891C107.924 7.24805 107.42 8.13281 106.342 8.50781L108.252 12H107.021L105.252 8.69531L105.041 8.70703H103.201V12H102.146ZM103.201 7.74609H104.994C106.342 7.74609 106.881 7.13672 106.881 6.12891C106.881 5.10938 106.342 4.45312 104.982 4.45312H103.201V7.74609Z" fill="#6D6D6D"/>
<rect x="121" y="7.51562" width="80" height="0.970588" fill="#E7E7E7"/>
</svg>
