<svg width="1991" height="905" viewBox="0 0 1991 905" fill="none" xmlns="http://www.w3.org/2000/svg">
<path d="M1989 117.91C1315.89 151.663 1062.37 872.024 23.5 863.409V904.91H1989C1989 904.91 1989 498.377 1989 117.91Z" fill="url(#paint0_linear_7640_53978)" fill-opacity="0.3"/>
<g filter="url(#filter0_d_7640_53978)">
<path d="M26 862.409C1058.03 870.89 1322.15 155.202 1976 121.91" stroke="url(#paint1_linear_7640_53978)" stroke-width="5" stroke-linecap="round"/>
</g>
<rect x="133" y="745.91" width="174.729" height="59.3692" rx="29.6846" fill="#929292"/>
<path d="M185.292 786.408C180.894 786.408 178.038 783.209 178.038 778.412C178.038 773.585 180.894 770.387 185.292 770.387C189.661 770.387 192.517 773.585 192.517 778.412C192.517 783.209 189.661 786.408 185.292 786.408ZM185.292 783.866C188.09 783.866 189.433 781.382 189.433 778.412C189.433 775.442 188.09 772.9 185.292 772.9C182.436 772.9 181.094 775.442 181.094 778.412C181.094 781.382 182.436 783.866 185.292 783.866ZM202.769 770.587V773.014H199.599V781.525C199.599 783.267 200.484 783.581 201.455 783.609C201.884 783.609 202.569 783.552 202.997 783.524V786.179C202.569 786.237 201.912 786.294 201.084 786.294C198.685 786.294 196.543 784.98 196.572 782.153V773.014H194.287V770.587H196.572V766.874H199.599V770.587H202.769ZM209.137 776.898V786.094H206.082V765.418H209.08V773.129H209.28C210.023 771.444 211.451 770.387 213.878 770.387C217.076 770.387 219.19 772.358 219.19 776.241V786.094H216.134V776.613C216.134 774.328 214.906 773.014 212.85 773.014C210.708 773.014 209.137 774.414 209.137 776.898ZM229.556 786.408C224.987 786.408 222.188 783.267 222.188 778.44C222.188 773.671 225.044 770.387 229.356 770.387C232.897 770.387 236.239 772.586 236.239 778.183V779.268H225.215C225.301 782.21 227.029 783.895 229.585 783.895C231.327 783.895 232.44 783.152 232.954 782.21H236.039C235.353 784.723 232.954 786.408 229.556 786.408ZM225.244 776.984H233.24C233.24 774.614 231.726 772.9 229.385 772.9C226.943 772.9 225.358 774.785 225.244 776.984ZM239.266 786.094V770.587H242.207V773.043H242.378C242.95 771.387 244.492 770.358 246.319 770.358C246.691 770.358 247.29 770.387 247.604 770.416V773.328C247.347 773.271 246.634 773.157 246.005 773.157C243.892 773.157 242.321 774.614 242.321 776.641V786.094H239.266ZM258.599 774.813C258.314 773.585 257.343 772.786 255.658 772.786C253.916 772.786 252.659 773.7 252.688 774.871C252.659 775.784 253.402 776.441 255.115 776.841L257.571 777.412C260.427 778.04 261.798 779.411 261.826 781.61C261.798 784.409 259.456 786.408 255.486 786.408C251.774 786.408 249.546 784.752 249.175 781.867H252.288C252.545 783.267 253.63 783.952 255.458 783.952C257.428 783.952 258.685 783.152 258.713 781.839C258.685 780.839 257.942 780.182 256.315 779.811L253.887 779.297C251.089 778.669 249.632 777.184 249.632 775.042C249.632 772.272 252.031 770.387 255.629 770.387C259.085 770.387 261.226 772.158 261.541 774.813H258.599Z" fill="white"/>
<path d="M222.17 815.45C221.449 816.978 219.276 816.978 218.555 815.45L213.919 805.636C213.292 804.31 214.26 802.783 215.726 802.783L224.998 802.783C226.465 802.783 227.433 804.31 226.806 805.636L222.17 815.45Z" fill="#929292"/>
<circle cx="220.855" cy="852.816" r="23.4774" fill="white" stroke="#929292" stroke-width="5.86936"/>
<g filter="url(#filter1_d_7640_53978)">
<rect x="1547" y="6.91016" width="371.323" height="100.201" rx="50.1004" fill="white"/>
<path d="M1624.11 39.5555H1633.09L1642.79 63.262H1643.18L1652.89 39.5555H1661.87V74.5117H1654.82V51.626H1654.53L1645.4 74.3669H1640.57L1631.45 51.5294H1631.16V74.5117H1624.11V39.5555ZM1666.36 67.1728C1666.36 61.3307 1671.09 59.3994 1676.11 59.1097C1677.99 58.989 1681.52 58.82 1682.63 58.7718V56.6473C1682.58 54.4746 1681.08 53.171 1678.43 53.171C1676.01 53.171 1674.47 54.2815 1674.08 56.068H1667.27C1667.71 51.5294 1671.67 47.9566 1678.62 47.9566C1684.32 47.9566 1689.72 50.5155 1689.72 56.8405V74.5117H1682.97V70.8906H1682.77C1681.47 73.3047 1679.01 74.9945 1675.1 74.9945C1670.07 74.9945 1666.36 72.3873 1666.36 67.1728ZM1673.21 66.9797C1673.21 69.0076 1674.85 70.0698 1677.12 70.0698C1680.36 70.0698 1682.68 67.8971 1682.63 65.145V63.2137C1681.54 63.262 1678.5 63.431 1677.27 63.5517C1674.81 63.7931 1673.21 64.9519 1673.21 66.9797ZM1695.18 74.5117V39.5555H1702.33V58.3372H1702.71L1711.21 48.2945H1719.42L1709.67 59.6408L1719.95 74.5117H1711.55L1704.35 63.8414L1702.33 66.1106V74.5117H1695.18ZM1733.52 75.0428C1725.5 75.0428 1720.58 69.8284 1720.58 61.5238C1720.58 53.4124 1725.55 47.9566 1733.23 47.9566C1740.13 47.9566 1745.54 52.302 1745.54 61.2341V63.262H1727.63C1727.63 67.2211 1729.99 69.6835 1733.66 69.6835C1736.08 69.6835 1737.81 68.6213 1738.54 67.028H1745.35C1744.33 71.8562 1739.99 75.0428 1733.52 75.0428ZM1727.63 58.7718H1738.78C1738.78 55.5851 1736.56 53.3159 1733.37 53.3159C1730.09 53.3159 1727.75 55.7541 1727.63 58.7718ZM1750.03 74.5117V48.2945H1756.93V52.8331H1757.22C1758.19 49.5982 1760.6 47.9083 1763.55 47.9083C1764.27 47.9083 1765.19 48.0048 1765.82 48.1497V54.5229C1765.14 54.3298 1763.79 54.1367 1762.78 54.1367C1759.54 54.1367 1757.17 56.4059 1757.17 59.5926V74.5117H1750.03ZM1793.58 74.9945C1785.9 74.9945 1780.4 70.7457 1780.25 64.6622H1787.59C1787.74 67.2694 1790.25 69.0076 1793.63 69.0076C1797.1 69.0076 1799.61 67.028 1799.57 64.2276C1799.61 61.379 1797.06 59.3511 1792.95 59.3511H1789.72V53.9918H1792.95C1796.38 53.9918 1798.79 52.1088 1798.79 49.3567C1798.79 46.7012 1796.77 44.8665 1793.68 44.8665C1790.59 44.8665 1788.03 46.6047 1787.93 49.2602H1780.98C1781.07 43.2249 1786.53 39.0727 1793.68 39.0727C1800.97 39.0727 1805.84 43.3698 1805.79 48.9222C1805.84 52.8331 1803.09 55.6334 1799.18 56.3094V56.5991C1804.3 57.2267 1807.15 60.3651 1807.1 64.7105C1807.15 70.6974 1801.45 74.9945 1793.58 74.9945ZM1824.72 74.5117H1812.41V39.5555H1824.87C1835.39 39.5555 1841.81 46.1218 1841.81 56.9853C1841.81 67.9454 1835.39 74.5117 1824.72 74.5117ZM1819.65 68.2833H1824.43C1831.09 68.2833 1834.57 64.807 1834.57 56.9853C1834.57 49.2119 1831.09 45.7839 1824.48 45.7839H1819.65V68.2833Z" fill="#2493D8"/>
<path d="M1735.72 124.299C1734.5 126.881 1730.83 126.881 1729.61 124.299L1721.77 107.707C1720.71 105.464 1722.35 102.883 1724.83 102.883L1740.5 102.883C1742.98 102.883 1744.62 105.464 1743.56 107.707L1735.72 124.299Z" fill="white"/>
</g>
<circle cx="1733.86" cy="164.972" r="23.4774" fill="#2493D8" stroke="white" stroke-width="5.86936"/>
<defs>
<filter id="filter0_d_7640_53978" x="11.7613" y="119.41" width="1978.48" height="769.052" filterUnits="userSpaceOnUse" color-interpolation-filters="sRGB">
<feFlood flood-opacity="0" result="BackgroundImageFix"/>
<feColorMatrix in="SourceAlpha" type="matrix" values="0 0 0 0 0 0 0 0 0 0 0 0 0 0 0 0 0 0 127 0" result="hardAlpha"/>
<feOffset dy="11.7387"/>
<feGaussianBlur stdDeviation="5.86936"/>
<feComposite in2="hardAlpha" operator="out"/>
<feColorMatrix type="matrix" values="0 0 0 0 0 0 0 0 0 0 0 0 0 0 0 0 0 0 0.25 0"/>
<feBlend mode="normal" in2="BackgroundImageFix" result="effect1_dropShadow_7640_53978"/>
<feBlend mode="normal" in="SourceGraphic" in2="effect1_dropShadow_7640_53978" result="shape"/>
</filter>
<filter id="filter1_d_7640_53978" x="1535.48" y="-0.000781059" width="394.357" height="146.9" filterUnits="userSpaceOnUse" color-interpolation-filters="sRGB">
<feFlood flood-opacity="0" result="BackgroundImageFix"/>
<feColorMatrix in="SourceAlpha" type="matrix" values="0 0 0 0 0 0 0 0 0 0 0 0 0 0 0 0 0 0 127 0" result="hardAlpha"/>
<feOffset dy="4.60729"/>
<feGaussianBlur stdDeviation="5.75911"/>
<feComposite in2="hardAlpha" operator="out"/>
<feColorMatrix type="matrix" values="0 0 0 0 0.364706 0 0 0 0 0.462745 0 0 0 0 0.917647 0 0 0 0.5 0"/>
<feBlend mode="normal" in2="BackgroundImageFix" result="effect1_dropShadow_7640_53978"/>
<feBlend mode="normal" in="SourceGraphic" in2="effect1_dropShadow_7640_53978" result="shape"/>
</filter>
<linearGradient id="paint0_linear_7640_53978" x1="1297.12" y1="14.5317" x2="1297.12" y2="893.91" gradientUnits="userSpaceOnUse">
<stop stop-color="#2493D8"/>
<stop offset="1" stop-color="#2493D8" stop-opacity="0"/>
</linearGradient>
<linearGradient id="paint1_linear_7640_53978" x1="44.5" y1="835.91" x2="1996" y2="835.91" gradientUnits="userSpaceOnUse">
<stop stop-color="#222222"/>
<stop offset="0.791667" stop-color="#2493D8"/>
</linearGradient>
</defs>
</svg>
