<svg width="1731" height="866" viewBox="0 0 1731 866" fill="none" xmlns="http://www.w3.org/2000/svg">
<path d="M30.8027 13.4492V22.3086H35.7656V26.5742H30.8027V35.0645H25.4707V13.4492H30.8027ZM18.498 35.7207C26.168 35.7207 31.0898 38.5098 31.0898 43.1855C31.0898 47.9844 26.168 50.7734 18.498 50.7734C10.6641 50.7734 5.70117 47.9844 5.70117 43.1855C5.70117 38.5098 10.6641 35.7207 18.498 35.7207ZM18.498 39.8633C13.5762 39.8633 10.8281 41.0117 10.8691 43.1855C10.8281 45.4414 13.5762 46.6309 18.498 46.6309C23.2148 46.6309 26.0039 45.4414 26.0039 43.1855C26.0039 41.0117 23.2148 39.8633 18.498 39.8633ZM19.1953 15.9512V20.1348H7.62891V28.8301C14.54 28.7891 18.334 28.584 22.5176 27.6816L22.9688 31.8652C18.375 32.8906 13.9863 33.0137 5.53711 33.0547H2.41992V15.9512H19.1953ZM68.6602 13.4902V40.7246H63.4102V13.4902H68.6602ZM69.6445 45.9336V50.1172H43.6406V38.0996H48.9316V45.9336H69.6445ZM51.7207 19.1504C51.6797 24.0723 54.3047 28.9121 60.457 30.8809L57.791 34.9824C53.5869 33.5879 50.6748 30.7988 49.0137 27.2305C47.3525 31.0654 44.3584 34.1416 39.9902 35.6387L37.2832 31.4961C43.5586 29.4043 46.2656 24.1953 46.2656 19.1504V15.541H51.7207V19.1504ZM85.8047 15.9512C91.7109 15.9102 96.1406 19.7656 96.1406 25.0977C96.1406 30.4707 91.7109 34.2852 85.8047 34.2852C79.8984 34.2852 75.4277 30.4707 75.4277 25.0977C75.4277 19.7656 79.8984 15.9102 85.8047 15.9512ZM85.8047 20.4629C82.8516 20.4629 80.5957 22.1855 80.6367 25.0977C80.5957 28.0508 82.8516 29.7324 85.8047 29.7324C88.7578 29.7324 91.0137 28.0508 91.0547 25.0977C91.0137 22.1855 88.7988 20.4629 85.8047 20.4629ZM105.082 13.4492V50.8555H99.873V13.4492H105.082ZM73.8691 38.9609C80.5137 39.002 89.7422 38.8789 97.7402 37.7715L98.1504 41.5449C89.8652 43.1445 81.0059 43.2266 74.4844 43.2266L73.8691 38.9609ZM133.301 19.3145C133.301 23.8262 135.926 28.1738 141.832 30.0195L139.043 34.0801C135.085 32.7676 132.316 30.2246 130.717 26.9434C129.097 30.7168 126.205 33.6699 121.939 35.1055L119.109 31.0039C125.344 28.9121 128.01 23.9492 128.051 18.8223V15.418H133.301V19.3145ZM149.297 13.4492V22.1855H154.342V26.5332H149.297V35.5977H144.047V13.4492H149.297ZM137.074 36.3359C144.785 36.3359 149.666 39.002 149.666 43.5547C149.666 48.1484 144.785 50.7734 137.074 50.7734C129.199 50.7734 124.277 48.1484 124.277 43.5547C124.277 39.002 129.199 36.3359 137.074 36.3359ZM137.074 40.4375C132.152 40.4375 129.486 41.5039 129.527 43.5547C129.486 45.6875 132.152 46.6719 137.074 46.6719C141.914 46.6719 144.498 45.6875 144.498 43.5547C144.498 41.5039 141.914 40.4375 137.074 40.4375ZM169.6 19.3145C169.6 23.8262 172.225 28.1738 178.131 30.0195L175.342 34.0801C171.384 32.7676 168.615 30.2246 167.016 26.9434C165.396 30.7168 162.504 33.6699 158.238 35.1055L155.408 31.0039C161.643 28.9121 164.309 23.9492 164.35 18.8223V15.418H169.6V19.3145ZM185.596 13.4492V22.1855H190.641V26.5332H185.596V35.5977H180.346V13.4492H185.596ZM173.373 36.3359C181.084 36.3359 185.965 39.002 185.965 43.5547C185.965 48.1484 181.084 50.7734 173.373 50.7734C165.498 50.7734 160.576 48.1484 160.576 43.5547C160.576 39.002 165.498 36.3359 173.373 36.3359ZM173.373 40.4375C168.451 40.4375 165.785 41.5039 165.826 43.5547C165.785 45.6875 168.451 46.6719 173.373 46.6719C178.213 46.6719 180.797 45.6875 180.797 43.5547C180.797 41.5039 178.213 40.4375 173.373 40.4375ZM210.205 15.623V27.2715H198.926V31.25C204.483 31.25 207.765 31.0654 211.559 30.3477L212.051 34.5312C207.703 35.3105 203.766 35.4336 196.547 35.4336H193.758V23.375H204.955V19.7246H193.676V15.623H210.205ZM223.74 13.4902V36.459H218.531V30.7168H212.338V26.5742H218.531V22.8008H212.338V18.6582H218.531V13.4902H223.74ZM223.74 38.1406V50.7734H218.531V42.3242H198.023V38.1406H223.74ZM245.602 13.9824C254.174 13.9824 259.137 16.2383 259.178 20.3398C259.137 24.4824 254.174 26.7383 245.602 26.7383C236.988 26.7383 231.984 24.4824 231.984 20.3398C231.984 16.2383 236.988 13.9824 245.602 13.9824ZM245.602 17.7969C240.105 17.7969 237.439 18.6992 237.48 20.3398C237.439 22.1855 240.105 22.8828 245.602 22.8828C251.139 22.8828 253.764 22.1855 253.764 20.3398C253.764 18.6992 251.139 17.7969 245.602 17.7969ZM262.623 28.502V32.6445H228.58V28.502H262.623ZM258.48 34.8184V44.334H237.686V46.5898H259.465V50.5273H232.559V40.6836H253.312V38.6328H232.518V34.8184H258.48ZM308.602 32.6855V36.7871H274.477V32.6855H288.914V30.3887H278.742V14.3516H304.623V18.3711H283.992V20.4629H303.762V24.2363H283.992V26.3691H304.951V30.3887H294.164V32.6855H308.602ZM291.539 38.5098C299.783 38.4688 304.5 40.6836 304.541 44.6211C304.5 48.6406 299.783 50.7734 291.539 50.7734C283.172 50.7734 278.455 48.6406 278.455 44.6211C278.455 40.6836 283.172 38.4688 291.539 38.5098ZM291.539 42.3652C286.166 42.3652 283.664 43.0625 283.705 44.6211C283.664 46.2207 286.166 46.918 291.539 46.918C296.789 46.918 299.25 46.2207 299.291 44.6211C299.25 43.0625 296.789 42.3652 291.539 42.3652ZM328.863 19.1504V23.293H310.816V19.1504H317.297V14.4746H322.465V19.1504H328.863ZM319.922 24.9746C324.68 24.9746 328.084 28.666 328.125 33.834C328.084 39.043 324.68 42.7344 319.922 42.7344C315.164 42.7344 311.678 39.043 311.678 33.834C311.678 28.666 315.164 24.9746 319.922 24.9746ZM319.922 29.3223C317.748 29.3223 316.271 31.0039 316.271 33.834C316.271 36.6641 317.748 38.3047 319.922 38.3047C322.014 38.3047 323.49 36.6641 323.531 33.834C323.49 31.0039 322.014 29.3223 319.922 29.3223ZM343.137 13.4492V50.7734H338.174V32.8086H335.139V49.1738H330.258V14.1875H335.139V28.625H338.174V13.4492H343.137ZM372.75 17.3047V27.0254H376.482V13.9824H381.404V49.0508H376.482V31.209H372.75V41.3809H357.902V17.3047H372.75ZM362.783 21.4473V37.2793H367.869V21.4473H362.783ZM389.197 13.4492V50.7734H384.193V13.4492H389.197ZM424.389 13.4492V50.8555H419.098V13.4492H424.389ZM404.127 16.0742C409.746 16.0742 413.93 21.2422 413.93 29.3633C413.93 37.5664 409.746 42.6934 404.127 42.6934C398.385 42.6934 394.201 37.5664 394.242 29.3633C394.201 21.2422 398.385 16.0742 404.127 16.0742ZM404.127 20.791C401.215 20.791 399.287 23.8262 399.287 29.3633C399.287 34.9414 401.215 37.9355 404.127 37.9355C406.957 37.9355 408.885 34.9414 408.885 29.3633C408.885 23.8262 406.957 20.791 404.127 20.791ZM448.588 17.0176C448.547 28.502 445.471 38.1406 432.018 45.1133L429.146 41.1758C435.053 38.0586 438.724 34.5928 440.877 30.4707L430.049 31.4551L429.352 27.0254L442.518 26.2461C442.948 24.667 443.215 22.9854 443.379 21.2012H431.361V17.0176H448.588ZM460.893 13.4492V50.7734H455.684V32.0703H448.506V27.8047H455.684V13.4492H460.893ZM477.955 47.4102C471.434 47.4102 466.758 43.8008 466.635 38.6328H472.869C472.992 40.8477 475.125 42.3242 477.996 42.3242C480.949 42.3242 483.082 40.6426 483.041 38.2637C483.082 35.8438 480.908 34.1211 477.422 34.1211H474.674V29.5684H477.422C480.334 29.5684 482.385 27.9688 482.385 25.6309C482.385 23.375 480.662 21.8164 478.037 21.8164C475.412 21.8164 473.238 23.293 473.156 25.5488H467.25C467.332 20.4219 471.967 16.8945 478.037 16.8945C484.23 16.8945 488.373 20.5449 488.332 25.2617C488.373 28.584 486.035 30.9629 482.713 31.5371V31.7832C487.061 32.3164 489.48 34.9824 489.439 38.6738C489.48 43.7598 484.641 47.4102 477.955 47.4102ZM504.41 47H493.951V17.3047H504.533C513.475 17.3047 518.93 22.8828 518.93 32.1113C518.93 41.4219 513.475 47 504.41 47ZM500.104 41.709H504.164C509.824 41.709 512.777 38.7559 512.777 32.1113C512.777 25.5078 509.824 22.5957 504.205 22.5957H500.104V41.709ZM552.316 23.6211V27.7227H526.23V14.7617H531.439V23.6211H552.316ZM556.131 31.7422V35.8438H521.965V31.7422H556.131ZM552.562 45.7695V49.9531H525.902V38.8789H531.152V45.7695H552.562ZM588.82 16.8945V21.0371H568.066V16.8945H576.105V13.1211H581.314V16.8945H588.82ZM578.648 22.2676C583.775 22.3086 587.467 25.1387 587.508 29.2812C587.467 33.4648 583.775 36.2539 578.648 36.2129C573.48 36.2539 569.871 33.4648 569.912 29.2812C569.871 25.1387 573.48 22.3086 578.648 22.2676ZM578.648 26.1641C576.27 26.1641 574.752 27.2715 574.793 29.2812C574.752 31.291 576.27 32.3574 578.648 32.3574C580.986 32.3574 582.627 31.291 582.627 29.2812C582.627 27.2715 580.986 26.1641 578.648 26.1641ZM599.443 13.4492V37.2383H594.234V33.3008H589.148V29.1172H594.234V25.8359H589.23V21.6523H594.234V13.4492H599.443ZM586.77 37.6895C594.686 37.6895 599.648 40.1094 599.648 44.252C599.648 48.3125 594.686 50.7734 586.77 50.7734C578.812 50.7734 573.891 48.3125 573.891 44.252C573.891 40.1094 578.812 37.6895 586.77 37.6895ZM586.77 41.627C582.012 41.668 579.387 42.4883 579.387 44.252C579.387 45.9336 582.012 46.8359 586.77 46.8359C591.445 46.8359 594.029 45.9336 594.029 44.252C594.029 42.4883 591.445 41.668 586.77 41.627ZM617.9 19.3145C617.9 23.8262 620.525 28.1738 626.432 30.0195L623.643 34.0801C619.685 32.7676 616.916 30.2246 615.316 26.9434C613.696 30.7168 610.805 33.6699 606.539 35.1055L603.709 31.0039C609.943 28.9121 612.609 23.9492 612.65 18.8223V15.418H617.9V19.3145ZM633.896 13.4492V22.1855H638.941V26.5332H633.896V35.5977H628.646V13.4492H633.896ZM621.674 36.3359C629.385 36.3359 634.266 39.002 634.266 43.5547C634.266 48.1484 629.385 50.7734 621.674 50.7734C613.799 50.7734 608.877 48.1484 608.877 43.5547C608.877 39.002 613.799 36.3359 621.674 36.3359ZM621.674 40.4375C616.752 40.4375 614.086 41.5039 614.127 43.5547C614.086 45.6875 616.752 46.6719 621.674 46.6719C626.514 46.6719 629.098 45.6875 629.098 43.5547C629.098 41.5039 626.514 40.4375 621.674 40.4375ZM657.604 13.9824C666.176 13.9824 671.139 16.2383 671.18 20.3398C671.139 24.4824 666.176 26.7383 657.604 26.7383C648.99 26.7383 643.986 24.4824 643.986 20.3398C643.986 16.2383 648.99 13.9824 657.604 13.9824ZM657.604 17.7969C652.107 17.7969 649.441 18.6992 649.482 20.3398C649.441 22.1855 652.107 22.8828 657.604 22.8828C663.141 22.8828 665.766 22.1855 665.766 20.3398C665.766 18.6992 663.141 17.7969 657.604 17.7969ZM674.625 28.502V32.6445H640.582V28.502H674.625ZM670.482 34.8184V44.334H649.688V46.5898H671.467V50.5273H644.561V40.6836H665.314V38.6328H644.52V34.8184H670.482ZM705.592 16.5254V34.4492H687.668V16.5254H705.592ZM692.836 20.709V30.3477H700.424V20.709H692.836ZM716.174 13.4492V24.1953H721.219V28.502H716.174V40.6836H710.924V13.4492H716.174ZM717.527 45.9336V50.1172H691.975V38.0176H697.184V45.9336H717.527ZM756.984 28.0098V32.1113H722.859V28.0098H756.984ZM752.924 21.8574V25.959H727.125V14.1875H752.637V18.3711H732.334V21.8574H752.924ZM752.76 34.3262V44.0879H731.965V46.3848H753.744V50.4453H726.838V40.3555H747.592V38.2637H726.797V34.3262H752.76ZM769.453 16.0742C774.498 16.0742 778.251 20.2373 779.01 26.9434H785.49V13.4492H790.658V50.8555H785.49V31.127H779.051C778.497 38.3047 774.662 42.6934 769.453 42.6934C763.793 42.6934 759.732 37.5664 759.773 29.3633C759.732 21.2422 763.793 16.0742 769.453 16.0742ZM769.453 20.791C766.664 20.791 764.736 23.8262 764.777 29.3633C764.736 34.9414 766.664 37.9355 769.453 37.9355C772.283 37.9355 774.129 34.9414 774.129 29.3633C774.129 23.8262 772.283 20.791 769.453 20.791ZM827.531 13.4902V33.752H822.568V25.918H819.164V33.3828H814.283V14.1465H819.164V21.7754H822.568V13.4902H827.531ZM807.188 35.2695V38.8379H822.363V35.2695H827.531V50.3633H802.02V35.2695H807.188ZM807.188 46.1387H822.363V42.8164H807.188V46.1387ZM802.184 15.7871V27.5996C805.506 27.5381 808.582 27.3125 812.068 26.6973L812.602 30.8809C808.049 31.7422 804.111 31.8242 799.559 31.8242H796.934V15.7871H802.184ZM863.133 13.4492V50.7734H857.924V13.4492H863.133ZM838.934 17.0176V37.0742C843.979 37.0127 849.393 36.541 854.889 35.4746L855.545 39.7812C848.982 41.1348 842.83 41.5859 837.047 41.5449H833.766V17.0176H838.934ZM897.504 13.4492V27.3125H903V31.5781H897.504V50.8555H892.254V13.4492H897.504ZM887.045 16.8945V21.1191H874.74V37.4844C880.154 37.4229 884.625 37.1768 889.588 36.2949L890.162 40.6836C884.379 41.668 879.293 41.832 872.689 41.791H869.531V16.8945H887.045ZM909.193 47.3691C907.266 47.3691 905.707 45.8105 905.748 43.9238C905.707 42.0371 907.266 40.5195 909.193 40.5195C910.998 40.5195 912.598 42.0371 912.598 43.9238C912.598 45.8105 910.998 47.3691 909.193 47.3691ZM13.3301 111.41C6.80859 111.41 2.13281 107.801 2.00977 102.633H8.24414C8.36719 104.848 10.5 106.324 13.3711 106.324C16.3242 106.324 18.457 104.643 18.416 102.264C18.457 99.8438 16.2832 98.1211 12.7969 98.1211H10.0488V93.5684H12.7969C15.709 93.5684 17.7598 91.9688 17.7598 89.6309C17.7598 87.375 16.0371 85.8164 13.4121 85.8164C10.7871 85.8164 8.61328 87.293 8.53125 89.5488H2.625C2.70703 84.4219 7.3418 80.8945 13.4121 80.8945C19.6055 80.8945 23.748 84.5449 23.707 89.2617C23.748 92.584 21.4102 94.9629 18.0879 95.5371V95.7832C22.4355 96.3164 24.8555 98.9824 24.8145 102.674C24.8555 107.76 20.0156 111.41 13.3301 111.41ZM39.7852 111H29.3262V81.3047H39.9082C48.8496 81.3047 54.3047 86.8828 54.3047 96.1113C54.3047 105.422 48.8496 111 39.7852 111ZM35.4785 105.709H39.5391C45.1992 105.709 48.1523 102.756 48.1523 96.1113C48.1523 89.5078 45.1992 86.5957 39.5801 86.5957H35.4785V105.709ZM91.5469 106.078V110.426H57.3809V106.078H91.5469ZM88.6758 80.7305V84.9141H83.4258V96.2344H88.5117V100.336H60.2109V96.2344H65.2148V84.9141H60.0469V80.7305H88.6758ZM70.4648 96.2344H78.2578V84.9141H70.4648V96.2344ZM124.893 77.4902V104.971H119.684V77.4902H124.893ZM125.877 109.934V114.117H99.791V102.674H105V109.934H125.877ZM112.916 79.9102V91.8047H100.775V95.9473C107.44 95.9268 111.706 95.7422 116.525 94.7988L117.1 98.9824C111.686 100.008 106.846 100.213 98.9297 100.213H95.6484V87.9492H107.707V84.0938H95.6074V79.9102H112.916ZM150.117 80.0332V84.2168H137.279V87.1289H149.01V91.1895H137.279V94.1836C143.842 94.1836 148.005 94.1016 152.742 93.3223L153.275 97.4238C147.943 98.2852 143.227 98.4082 135.229 98.3672H132.029V80.0332H150.117ZM161.232 77.4902V100.09H155.982V77.4902H161.232ZM148.518 100.582C156.393 100.582 161.396 103.207 161.438 107.678C161.396 112.189 156.393 114.773 148.518 114.773C140.52 114.773 135.68 112.189 135.68 107.678C135.68 103.207 140.52 100.582 148.518 100.582ZM148.518 104.643C143.514 104.643 140.889 105.668 140.889 107.678C140.889 109.729 143.514 110.795 148.518 110.795C153.48 110.795 156.188 109.729 156.188 107.678C156.188 105.668 153.48 104.643 148.518 104.643ZM207.416 77.4902V104.725H202.207V91.3535H196.096V87.1289H202.207V77.4902H207.416ZM208.318 109.934V114.117H182.643V102.346H187.893V109.934H208.318ZM190.066 84.791C190.066 89.0977 192.691 93.7324 198.639 95.6602L196.055 99.8027C191.912 98.4697 189.082 95.7422 187.441 92.3379C185.801 96.1113 182.827 99.1055 178.418 100.582L175.752 96.3164C181.904 94.3887 184.693 89.5078 184.734 84.75V84.1758H177.229V79.9922H197.49V84.1758H190.066V84.791ZM246.381 95.9062V100.049H232.312V106.488H227.145V100.049H212.215V95.9062H246.381ZM241.992 79.0898V92.8301H216.48V79.0898H241.992ZM221.607 83.1504V88.7695H236.865V83.1504H221.607ZM242.607 109.934V114.117H216.234V103.248H221.443V109.934H242.607ZM278.004 77.4492V91.7637H283.295V96.0703H278.004V114.691H272.754V77.4492H278.004ZM268.037 81.2637C267.996 92.4199 263.648 102.1 251.098 108.252L248.145 104.232C256.983 99.8027 261.721 93.8555 262.705 85.5293H250.277V81.2637H268.037ZM295.969 79.6641C301.711 79.6641 306.182 83.4375 306.223 88.8105C306.182 93.3223 303.044 96.7061 298.635 97.6699V102.756C301.588 102.633 304.521 102.387 307.289 102.018L307.658 105.873C299.865 107.35 291.457 107.35 285.1 107.268L284.402 103.043C287.089 103.022 290.186 103.022 293.426 102.961V97.7109C288.853 96.7881 285.715 93.3838 285.715 88.8105C285.715 83.4375 290.062 79.6641 295.969 79.6641ZM295.969 84.0938C293.016 84.0938 290.801 85.8164 290.842 88.8105C290.801 91.7637 293.016 93.5273 295.969 93.5273C298.84 93.5273 301.055 91.7637 301.055 88.8105C301.055 85.8164 298.84 84.0938 295.969 84.0938ZM314.508 77.4492V92.0918H319.594V96.4805H314.508V114.773H309.258V77.4492H314.508ZM360.445 77.4492V86.6367H365.49V91.0254H360.445V99.9668H355.195V77.4492H360.445ZM360.445 101.607V114.363H336.041V101.607H360.445ZM341.209 105.709V110.18H355.277V105.709H341.209ZM352.98 80.8125V84.9551H330.832V80.8125H339.322V77.2441H344.531V80.8125H352.98ZM341.906 86.1035C347.32 86.1035 351.094 88.8516 351.094 92.7891C351.094 96.8496 347.32 99.5566 341.906 99.5566C336.41 99.5566 332.637 96.8496 332.637 92.7891C332.637 88.8516 336.41 86.1035 341.906 86.1035ZM341.906 90.041C339.404 90.041 337.723 91.0254 337.764 92.7891C337.723 94.6758 339.404 95.7012 341.906 95.7012C344.408 95.7012 346.131 94.6758 346.131 92.7891C346.131 91.0254 344.408 90.041 341.906 90.041ZM376.318 81.7148C376.277 91.0254 375.375 99.3926 370.617 106.775L366.557 104.643C370.392 98.8389 371.54 93.1787 371.807 85.9395H367.787V81.7148H376.318ZM384.686 81.7148C384.665 84.9961 384.604 88.2568 384.316 91.4355H387.516V78.2695H392.438V113.133H387.516V95.6602H383.783C382.983 100.233 381.568 104.622 378.984 108.662L375.006 106.447C379.169 100.09 380.03 93.5068 380.215 85.9395H377.385V81.7148H384.686ZM399.779 77.4492V114.773H394.775V77.4492H399.779ZM432.141 80.5254V98.4492H414.217V80.5254H432.141ZM419.385 84.709V94.3477H426.973V84.709H419.385ZM442.723 77.4492V88.1953H447.768V92.502H442.723V104.684H437.473V77.4492H442.723ZM444.076 109.934V114.117H418.523V102.018H423.732V109.934H444.076ZM483.533 92.0098V96.1113H449.408V92.0098H483.533ZM479.473 85.8574V89.959H453.674V78.1875H479.186V82.3711H458.883V85.8574H479.473ZM479.309 98.3262V108.088H458.514V110.385H480.293V114.445H453.387V104.355H474.141V102.264H453.346V98.3262H479.309ZM496.002 80.0742C501.047 80.0742 504.8 84.2373 505.559 90.9434H512.039V77.4492H517.207V114.855H512.039V95.127H505.6C505.046 102.305 501.211 106.693 496.002 106.693C490.342 106.693 486.281 101.566 486.322 93.3633C486.281 85.2422 490.342 80.0742 496.002 80.0742ZM496.002 84.791C493.213 84.791 491.285 87.8262 491.326 93.3633C491.285 98.9414 493.213 101.936 496.002 101.936C498.832 101.936 500.678 98.9414 500.678 93.3633C500.678 87.8262 498.832 84.791 496.002 84.791ZM566.426 91.5996V95.8652H561.135V114.691H555.885V77.4492H561.135V91.5996H566.426ZM538.084 81.0176V101.238C542.862 101.177 547.989 100.726 553.383 99.6387L553.916 103.986C547.682 105.258 541.611 105.586 536.115 105.586H532.875V81.0176H538.084ZM597.434 77.4492V91.7637H602.725V96.0703H597.434V114.691H592.184V77.4492H597.434ZM587.467 81.2637C587.426 92.4199 583.078 102.1 570.527 108.252L567.574 104.232C576.413 99.8027 581.15 93.8555 582.135 85.5293H569.707V81.2637H587.467ZM634.594 87.6211V91.7227H608.508V78.7617H613.717V87.6211H634.594ZM638.408 95.7422V99.8438H604.242V95.7422H638.408ZM634.84 109.77V113.953H608.18V102.879H613.43V109.77H634.84ZM667.078 100.705C675.24 100.705 680.367 103.289 680.408 107.76C680.367 112.148 675.24 114.773 667.078 114.773C658.998 114.773 653.789 112.148 653.789 107.76C653.789 103.289 658.998 100.705 667.078 100.705ZM667.078 104.602C661.951 104.602 658.998 105.668 658.998 107.76C658.998 109.77 661.951 110.795 667.078 110.795C672.205 110.795 675.199 109.77 675.199 107.76C675.199 105.668 672.205 104.602 667.078 104.602ZM680.203 79.1309V82.166C680.203 85.1191 680.203 88.3184 679.137 92.1738L674.01 91.6816C674.83 88.2979 674.933 85.7754 674.994 83.2324H654.158V79.1309H680.203ZM684.223 94.1016V98.3262H650.344V94.1016H663.059V87.5801H668.227V94.1016H684.223ZM716.174 77.4492V87.9082H721.219V92.2148H716.174V104.191H710.883V77.4492H716.174ZM706.002 80.2383C706.002 90.3281 699.686 97.3828 688.488 100.541L686.314 96.3984C694.661 94.0605 699.398 89.7334 700.26 84.5039H687.955V80.2383H706.002ZM717.445 109.934V114.117H691.893V101.443H697.184V109.934H717.445ZM2.50195 145.305H10.1309L18.375 165.443H18.7031L26.9473 145.305H34.5762V175H28.5879V155.559H28.3418L20.5898 174.877H16.4883L8.73633 155.477H8.49023V175H2.50195V145.305ZM44.543 175H37.8984L48.1934 145.305H56.1094L66.3633 175H59.7598L57.5449 168.15H46.7988L44.543 175ZM48.3574 163.352H55.9863L52.2539 151.99H52.0488L48.3574 163.352ZM69.7266 175V145.305H75.8789V158.471H76.2891L87.0762 145.305H94.5L83.4258 158.594L94.623 175H87.2402L78.9961 162.736L75.8789 166.51V175H69.7266ZM97.5762 175V145.305H117.51V150.391H103.729V157.609H116.484V162.695H103.729V169.914H117.551V175H97.5762ZM122.309 175V145.305H133.957C140.725 145.305 144.58 149.119 144.58 154.984C144.58 159.045 142.714 161.998 139.33 163.434L145.646 175H138.838L133.178 164.459H128.461V175H122.309ZM128.461 159.455H132.809C136.459 159.455 138.223 157.938 138.223 154.984C138.223 151.99 136.459 150.35 132.809 150.35H128.461V159.455ZM169.354 175.41C162.832 175.41 158.156 171.801 158.033 166.633H164.268C164.391 168.848 166.523 170.324 169.395 170.324C172.348 170.324 174.48 168.643 174.439 166.264C174.48 163.844 172.307 162.121 168.82 162.121H166.072V157.568H168.82C171.732 157.568 173.783 155.969 173.783 153.631C173.783 151.375 172.061 149.816 169.436 149.816C166.811 149.816 164.637 151.293 164.555 153.549H158.648C158.73 148.422 163.365 144.895 169.436 144.895C175.629 144.895 179.771 148.545 179.73 153.262C179.771 156.584 177.434 158.963 174.111 159.537V159.783C178.459 160.316 180.879 162.982 180.838 166.674C180.879 171.76 176.039 175.41 169.354 175.41ZM195.809 175H185.35V145.305H195.932C204.873 145.305 210.328 150.883 210.328 160.111C210.328 169.422 204.873 175 195.809 175ZM191.502 169.709H195.562C201.223 169.709 204.176 166.756 204.176 160.111C204.176 153.508 201.223 150.596 195.604 150.596H191.502V169.709ZM242.854 141.449V155.764H248.145V160.07H242.854V178.691H237.604V141.449H242.854ZM232.887 145.264C232.846 156.42 228.498 166.1 215.947 172.252L212.994 168.232C221.833 163.803 226.57 157.855 227.555 149.529H215.127V145.264H232.887ZM288.996 141.449V150.637H294.041V155.025H288.996V163.967H283.746V141.449H288.996ZM288.996 165.607V178.363H264.592V165.607H288.996ZM269.76 169.709V174.18H283.828V169.709H269.76ZM281.531 144.812V148.955H259.383V144.812H267.873V141.244H273.082V144.812H281.531ZM270.457 150.104C275.871 150.104 279.645 152.852 279.645 156.789C279.645 160.85 275.871 163.557 270.457 163.557C264.961 163.557 261.188 160.85 261.188 156.789C261.188 152.852 264.961 150.104 270.457 150.104ZM270.457 154.041C267.955 154.041 266.273 155.025 266.314 156.789C266.273 158.676 267.955 159.701 270.457 159.701C272.959 159.701 274.682 158.676 274.682 156.789C274.682 155.025 272.959 154.041 270.457 154.041ZM304.869 145.715C304.828 155.025 303.926 163.393 299.168 170.775L295.107 168.643C298.942 162.839 300.091 157.179 300.357 149.939H296.338V145.715H304.869ZM313.236 145.715C313.216 148.996 313.154 152.257 312.867 155.436H316.066V142.27H320.988V177.133H316.066V159.66H312.334C311.534 164.233 310.119 168.622 307.535 172.662L303.557 170.447C307.72 164.09 308.581 157.507 308.766 149.939H305.936V145.715H313.236ZM328.33 141.449V178.773H323.326V141.449H328.33ZM361.594 141.449V150.432H366.639V154.779H361.594V163.311H356.344V141.449H361.594ZM342.357 164.746V167.576H356.344V164.746H361.594V178.363H337.148V164.746H342.357ZM342.357 174.262H356.344V171.596H342.357V174.262ZM354.129 144.73V148.832H331.98V144.73H340.471V141.203H345.68V144.73H354.129ZM343.055 149.898C348.469 149.898 352.242 152.523 352.242 156.502C352.242 160.48 348.469 163.105 343.055 163.105C337.559 163.105 333.785 160.48 333.785 156.502C333.785 152.523 337.559 149.898 343.055 149.898ZM343.055 153.754C340.553 153.713 338.871 154.738 338.912 156.502C338.871 158.307 340.553 159.291 343.055 159.291C345.557 159.291 347.279 158.307 347.279 156.502C347.279 154.738 345.557 153.713 343.055 153.754ZM399.656 141.449V178.773H394.447V141.449H399.656ZM375.457 145.018V165.074C380.502 165.013 385.916 164.541 391.412 163.475L392.068 167.781C385.506 169.135 379.354 169.586 373.57 169.545H370.289V145.018H375.457ZM434.027 141.449V155.312H439.523V159.578H434.027V178.855H428.777V141.449H434.027ZM423.568 144.895V149.119H411.264V165.484C416.678 165.423 421.148 165.177 426.111 164.295L426.686 168.684C420.902 169.668 415.816 169.832 409.213 169.791H406.055V144.895H423.568ZM445.717 175.369C443.789 175.369 442.23 173.811 442.271 171.924C442.23 170.037 443.789 168.52 445.717 168.52C447.521 168.52 449.121 170.037 449.121 171.924C449.121 173.811 447.521 175.369 445.717 175.369Z" fill="#0A0A0A"/>
<rect x="453" y="222" width="614.845" height="306" rx="50" fill="#F0F0F0"/>
<rect x="709.539" y="342" width="307" height="31" fill="#3FB5FF" fill-opacity="0.3"/>
<path d="M518.086 351.812V356.094C520.414 355.953 522.773 355.734 524.992 355.406L525.305 358.312C518.992 359.531 512.242 359.594 507.273 359.594L506.805 356.375C508.945 356.359 511.461 356.344 514.117 356.25V351.812H518.086ZM523.961 339.781V343H518.148C518.414 345.75 520.555 348.328 524.836 349.375L523.023 352.469C519.695 351.625 517.398 349.781 516.117 347.406C514.852 349.891 512.586 351.828 509.242 352.688L507.367 349.688C511.664 348.547 513.742 345.875 514.023 343H508.273V339.781H514.117V336.688H518.086V339.781H523.961ZM530.586 336.438V364.938H526.617V336.438H530.586ZM558.93 336.438V364.875H555.148V350.594H552.398V363.5H548.742V336.906H552.398V347.406H555.148V336.438H558.93ZM545.742 339.719V342.938H539.148V355.062C541.898 355.047 544.336 354.906 547.086 354.406L547.367 357.656C543.898 358.312 540.867 358.406 537.117 358.438H535.148V339.719H545.742ZM587.867 348.562V351.469H576.93V353.25H584.773V360.188H568.93V361.75H585.523V364.688H565.023V357.5H580.836V356.094H564.992V353.25H572.961V351.469H562.055V348.562H587.867ZM576.898 336.406V338.656H585.43V341.594H577.398C578.18 343.25 581.086 344.609 586.836 344.844L585.68 347.781C580.398 347.531 576.742 346.188 574.93 344.031C573.133 346.188 569.461 347.531 564.148 347.781L563.055 344.844C568.758 344.609 571.648 343.25 572.461 341.594H564.492V338.656H572.961V336.406H576.898ZM603.305 338.094V346.969H594.711V350C598.945 350 601.445 349.859 604.336 349.312L604.711 352.5C601.398 353.094 598.398 353.188 592.898 353.188H590.773V344H599.305V341.219H590.711V338.094H603.305ZM613.617 336.469V353.969H609.648V349.594H604.93V346.438H609.648V343.562H604.93V340.406H609.648V336.469H613.617ZM613.617 355.25V364.875H609.648V358.438H594.023V355.25H613.617ZM635.148 342.875C635.117 347.969 637.305 353.125 641.867 355.312L639.461 358.5C636.414 357 634.367 354.188 633.18 350.75C631.945 354.438 629.742 357.453 626.523 359.031L624.055 355.812C628.867 353.594 631.148 348.156 631.148 342.875V338.625H635.148V342.875ZM647.117 336.438V347.406H651.305V350.781H647.117V364.875H643.117V336.438H647.117ZM676.148 336.438V364.938H672.117V336.438H676.148ZM660.711 338.438C664.992 338.438 668.18 342.375 668.18 348.562C668.18 354.812 664.992 358.719 660.711 358.719C656.336 358.719 653.148 354.812 653.18 348.562C653.148 342.375 656.336 338.438 660.711 338.438ZM660.711 342.031C658.492 342.031 657.023 344.344 657.023 348.562C657.023 352.812 658.492 355.094 660.711 355.094C662.867 355.094 664.336 352.812 664.336 348.562C664.336 344.344 662.867 342.031 660.711 342.031ZM706.023 358.188V361.438H679.992V358.188H706.023ZM695.055 342.062C695.055 346.031 698.617 349.781 705.055 350.75L703.492 353.906C698.508 353.031 694.82 350.594 692.992 347.219C691.18 350.656 687.523 353.188 682.617 354.062L681.055 350.875C687.273 349.906 690.867 346.031 690.867 342.062V342.031H682.148V338.844H703.742V342.031H695.055V342.062ZM724.336 362.312C719.367 362.312 715.805 359.562 715.711 355.625H720.461C720.555 357.312 722.18 358.438 724.367 358.438C726.617 358.438 728.242 357.156 728.211 355.344C728.242 353.5 726.586 352.188 723.93 352.188H721.836V348.719H723.93C726.148 348.719 727.711 347.5 727.711 345.719C727.711 344 726.398 342.812 724.398 342.812C722.398 342.812 720.742 343.938 720.68 345.656H716.18C716.242 341.75 719.773 339.062 724.398 339.062C729.117 339.062 732.273 341.844 732.242 345.438C732.273 347.969 730.492 349.781 727.961 350.219V350.406C731.273 350.812 733.117 352.844 733.086 355.656C733.117 359.531 729.43 362.312 724.336 362.312ZM745.148 362.312C740.461 362.281 736.023 359.5 736.023 351.219C736.023 343.594 739.68 339.062 745.336 339.062C749.898 339.062 752.992 341.938 753.461 345.656H748.836C748.461 344.062 747.148 343.094 745.336 343.094C742.273 343.094 740.648 345.875 740.617 350.312H740.836C741.867 348.312 744.117 347.125 746.617 347.125C750.68 347.125 753.711 350.188 753.711 354.438C753.711 359.031 750.242 362.344 745.148 362.312ZM745.117 358.594C747.43 358.594 749.148 356.844 749.148 354.562C749.148 352.312 747.492 350.531 745.18 350.531C742.867 350.531 741.117 352.344 741.086 354.562C741.117 356.781 742.805 358.594 745.117 358.594ZM765.742 362.312C760.086 362.312 756.648 358.094 756.648 350.688C756.648 343.281 760.086 339.062 765.742 339.062C771.398 339.062 774.836 343.312 774.836 350.688C774.836 358.125 771.398 362.312 765.742 362.312ZM765.742 358.438C768.367 358.438 770.055 355.906 770.023 350.688C770.023 345.531 768.367 342.906 765.742 342.906C763.117 342.906 761.461 345.531 761.461 350.688C761.43 355.906 763.117 358.438 765.742 358.438ZM786.398 357.031H783.461L783.742 352.719L780.148 355.125L778.68 352.594L782.555 350.688L778.68 348.75L780.148 346.219L783.742 348.625L783.461 344.312H786.398L786.117 348.625L789.711 346.219L791.18 348.75L787.305 350.688L791.18 352.594L789.711 355.125L786.117 352.719L786.398 357.031ZM803.711 362.312C798.742 362.312 795.18 359.562 795.086 355.625H799.836C799.93 357.312 801.555 358.438 803.742 358.438C805.992 358.438 807.617 357.156 807.586 355.344C807.617 353.5 805.961 352.188 803.305 352.188H801.211V348.719H803.305C805.523 348.719 807.086 347.5 807.086 345.719C807.086 344 805.773 342.812 803.773 342.812C801.773 342.812 800.117 343.938 800.055 345.656H795.555C795.617 341.75 799.148 339.062 803.773 339.062C808.492 339.062 811.648 341.844 811.617 345.438C811.648 347.969 809.867 349.781 807.336 350.219V350.406C810.648 350.812 812.492 352.844 812.461 355.656C812.492 359.531 808.805 362.312 803.711 362.312ZM824.523 362.312C819.836 362.281 815.398 359.5 815.398 351.219C815.398 343.594 819.055 339.062 824.711 339.062C829.273 339.062 832.367 341.938 832.836 345.656H828.211C827.836 344.062 826.523 343.094 824.711 343.094C821.648 343.094 820.023 345.875 819.992 350.312H820.211C821.242 348.312 823.492 347.125 825.992 347.125C830.055 347.125 833.086 350.188 833.086 354.438C833.086 359.031 829.617 362.344 824.523 362.312ZM824.492 358.594C826.805 358.594 828.523 356.844 828.523 354.562C828.523 352.312 826.867 350.531 824.555 350.531C822.242 350.531 820.492 352.344 820.461 354.562C820.492 356.781 822.18 358.594 824.492 358.594ZM845.117 362.312C839.461 362.312 836.023 358.094 836.023 350.688C836.023 343.281 839.461 339.062 845.117 339.062C850.773 339.062 854.211 343.312 854.211 350.688C854.211 358.125 850.773 362.312 845.117 362.312ZM845.117 358.438C847.742 358.438 849.43 355.906 849.398 350.688C849.398 345.531 847.742 342.906 845.117 342.906C842.492 342.906 840.836 345.531 840.836 350.688C840.805 355.906 842.492 358.438 845.117 358.438ZM865.773 357.031H862.836L863.117 352.719L859.523 355.125L858.055 352.594L861.93 350.688L858.055 348.75L859.523 346.219L863.117 348.625L862.836 344.312H865.773L865.492 348.625L869.086 346.219L870.555 348.75L866.68 350.688L870.555 352.594L869.086 355.125L865.492 352.719L865.773 357.031ZM883.086 362.312C878.117 362.312 874.555 359.562 874.461 355.625H879.211C879.305 357.312 880.93 358.438 883.117 358.438C885.367 358.438 886.992 357.156 886.961 355.344C886.992 353.5 885.336 352.188 882.68 352.188H880.586V348.719H882.68C884.898 348.719 886.461 347.5 886.461 345.719C886.461 344 885.148 342.812 883.148 342.812C881.148 342.812 879.492 343.938 879.43 345.656H874.93C874.992 341.75 878.523 339.062 883.148 339.062C887.867 339.062 891.023 341.844 890.992 345.438C891.023 347.969 889.242 349.781 886.711 350.219V350.406C890.023 350.812 891.867 352.844 891.836 355.656C891.867 359.531 888.18 362.312 883.086 362.312ZM903.898 362.312C899.211 362.281 894.773 359.5 894.773 351.219C894.773 343.594 898.43 339.062 904.086 339.062C908.648 339.062 911.742 341.938 912.211 345.656H907.586C907.211 344.062 905.898 343.094 904.086 343.094C901.023 343.094 899.398 345.875 899.367 350.312H899.586C900.617 348.312 902.867 347.125 905.367 347.125C909.43 347.125 912.461 350.188 912.461 354.438C912.461 359.031 908.992 362.344 903.898 362.312ZM903.867 358.594C906.18 358.594 907.898 356.844 907.898 354.562C907.898 352.312 906.242 350.531 903.93 350.531C901.617 350.531 899.867 352.344 899.836 354.562C899.867 356.781 901.555 358.594 903.867 358.594ZM924.492 362.312C918.836 362.312 915.398 358.094 915.398 350.688C915.398 343.281 918.836 339.062 924.492 339.062C930.148 339.062 933.586 343.312 933.586 350.688C933.586 358.125 930.148 362.312 924.492 362.312ZM924.492 358.438C927.117 358.438 928.805 355.906 928.773 350.688C928.773 345.531 927.117 342.906 924.492 342.906C921.867 342.906 920.211 345.531 920.211 350.688C920.18 355.906 921.867 358.438 924.492 358.438ZM937.555 353.375C937.555 347.5 939.367 342.625 942.367 338.406H946.773C944.617 341.531 942.367 347.781 942.367 353.375C942.367 359 944.617 365.25 946.773 368.375H942.367C939.367 364.156 937.555 359.25 937.555 353.375ZM949.336 362V345.031H953.742V348H953.93C954.648 346.031 956.367 344.812 958.648 344.812C960.992 344.812 962.711 346.031 963.273 348H963.43C964.148 346.062 966.055 344.812 968.555 344.812C971.711 344.812 973.898 346.906 973.898 350.594V362H969.273V351.5C969.273 349.562 968.148 348.625 966.617 348.625C964.867 348.625 963.867 349.844 963.867 351.625V362H959.367V351.375C959.367 349.688 958.305 348.625 956.742 348.625C955.18 348.625 953.961 349.875 953.961 351.812V362H949.336ZM977.461 362V345.031H981.867V348H982.055C982.773 346.031 984.492 344.812 986.773 344.812C989.117 344.812 990.836 346.031 991.398 348H991.555C992.273 346.062 994.18 344.812 996.68 344.812C999.836 344.812 1002.02 346.906 1002.02 350.594V362H997.398V351.5C997.398 349.562 996.273 348.625 994.742 348.625C992.992 348.625 991.992 349.844 991.992 351.625V362H987.492V351.375C987.492 349.688 986.43 348.625 984.867 348.625C983.305 348.625 982.086 349.875 982.086 351.812V362H977.461ZM1013.74 353.375C1013.74 359.25 1011.93 364.156 1008.93 368.375H1004.52C1006.68 365.25 1008.93 359 1008.93 353.375C1008.93 347.781 1006.68 341.531 1004.52 338.406H1008.93C1011.93 342.625 1013.74 347.5 1013.74 353.375ZM574.07 401.375C574.07 395.5 575.883 390.625 578.883 386.406H583.289C581.133 389.531 578.883 395.781 578.883 401.375C578.883 407 581.133 413.25 583.289 416.375H578.883C575.883 412.156 574.07 407.25 574.07 401.375ZM610.914 406.375V409.625H584.883V406.375H595.883V400.812H599.852V406.375H610.914ZM608.633 388.344V391.531H599.945C600.273 394.688 603.492 397.891 609.977 398.688L608.539 401.781C603.445 401.141 599.773 399.031 597.883 396.094C595.961 399.031 592.32 401.141 587.227 401.781L585.758 398.688C592.242 397.891 595.461 394.688 595.82 391.531H587.133V388.344H595.883V384.781H599.852V388.344H608.633ZM628.539 387.281V389.562C628.508 392.25 628.508 395.75 627.758 400.469L623.82 400.156C624.461 396.031 624.523 392.984 624.57 390.469H613.789V387.281H628.539ZM621.445 395.438V403.688C624.242 403.578 627.086 403.375 629.695 403.031L629.945 406C624.102 407 617.633 407.094 612.664 407.062L612.289 403.875C613.883 403.859 615.664 403.859 617.508 403.812V395.438H621.445ZM635.07 384.438V395.875H638.945V399.188H635.07V412.875H631.039V384.438H635.07ZM650.664 390.875C650.633 395.969 652.82 401.125 657.383 403.312L654.977 406.5C651.93 405 649.883 402.188 648.695 398.75C647.461 402.438 645.258 405.453 642.039 407.031L639.57 403.812C644.383 401.594 646.664 396.156 646.664 390.875V386.625H650.664V390.875ZM662.633 384.438V395.406H666.82V398.781H662.633V412.875H658.633V384.438H662.633ZM691.664 384.438V412.938H687.633V384.438H691.664ZM676.227 386.438C680.508 386.438 683.695 390.375 683.695 396.562C683.695 402.812 680.508 406.719 676.227 406.719C671.852 406.719 668.664 402.812 668.695 396.562C668.664 390.375 671.852 386.438 676.227 386.438ZM676.227 390.031C674.008 390.031 672.539 392.344 672.539 396.562C672.539 400.812 674.008 403.094 676.227 403.094C678.383 403.094 679.852 400.812 679.852 396.562C679.852 392.344 678.383 390.031 676.227 390.031ZM721.539 406.188V409.438H695.508V406.188H721.539ZM710.57 390.062C710.57 394.031 714.133 397.781 720.57 398.75L719.008 401.906C714.023 401.031 710.336 398.594 708.508 395.219C706.695 398.656 703.039 401.188 698.133 402.062L696.57 398.875C702.789 397.906 706.383 394.031 706.383 390.062V390.031H697.664V386.844H719.258V390.031H710.57V390.062ZM746.258 392.188V395.312H726.383V385.438H730.352V392.188H746.258ZM749.164 398.375V401.5H723.133V398.375H749.164ZM746.445 409.062V412.25H726.133V403.812H730.133V409.062H746.445ZM784.195 399.031V402.156H773.477V406.75H769.539V402.156H758.164V399.031H784.195ZM781.32 409.188V412.375H761.227V404.5H765.164V409.188H781.32ZM765.445 385.344V388.312H776.852V385.344H780.82V397.031H761.508V385.344H765.445ZM765.445 393.875H776.852V391.281H765.445V393.875ZM808.414 384.375V390.562H812.258V393.75H808.414V399.781H804.414V384.375H808.414ZM808.414 400.938V408.125H793.508V409.75H809.227V412.688H789.602V405.406H804.445V403.812H789.539V400.938H808.414ZM802.727 386.562V389.594H785.852V386.562H792.32V384.25H796.289V386.562H802.727ZM794.289 390.281C798.539 390.281 801.289 392.094 801.289 394.938C801.289 397.844 798.539 399.594 794.289 399.594C790.039 399.594 787.227 397.844 787.227 394.938C787.227 392.094 790.039 390.281 794.289 390.281ZM794.289 393.094C792.32 393.094 791.102 393.75 791.133 394.938C791.102 396.156 792.32 396.75 794.289 396.75C796.258 396.75 797.508 396.156 797.508 394.938C797.508 393.75 796.258 393.094 794.289 393.094ZM846.758 396.562V399.469H835.82V401.25H843.664V408.188H827.82V409.75H844.414V412.688H823.914V405.5H839.727V404.094H823.883V401.25H831.852V399.469H820.945V396.562H846.758ZM835.789 384.406V386.656H844.32V389.594H836.289C837.07 391.25 839.977 392.609 845.727 392.844L844.57 395.781C839.289 395.531 835.633 394.188 833.82 392.031C832.023 394.188 828.352 395.531 823.039 395.781L821.945 392.844C827.648 392.609 830.539 391.25 831.352 389.594H823.383V386.656H831.852V384.406H835.789ZM862.195 386.094V394.969H853.602V398C857.836 398 860.336 397.859 863.227 397.312L863.602 400.5C860.289 401.094 857.289 401.188 851.789 401.188H849.664V392H858.195V389.219H849.602V386.094H862.195ZM872.508 384.469V401.969H868.539V397.594H863.82V394.438H868.539V391.562H863.82V388.406H868.539V384.469H872.508ZM872.508 403.25V412.875H868.539V406.438H852.914V403.25H872.508ZM906.008 384.438V395.344H910.039V398.625H906.008V412.812H902.008V384.438H906.008ZM898.414 387.344C898.383 395.844 895.07 403.219 885.508 407.906L883.258 404.844C889.992 401.469 893.602 396.938 894.352 390.594H884.883V387.344H898.414ZM934.289 391.562V394.75H914.508V384.875H918.477V391.562H934.289ZM937.227 397.188V400.438H911.227V397.188H937.227ZM924.164 402.219C930.32 402.25 934.039 404.156 934.07 407.5C934.039 410.875 930.32 412.781 924.164 412.781C917.945 412.781 914.195 410.875 914.195 407.5C914.195 404.156 917.945 402.25 924.164 402.219ZM924.164 405.312C920.227 405.344 918.227 406 918.258 407.5C918.227 408.969 920.227 409.75 924.164 409.75C928.008 409.75 930.039 408.969 930.07 407.5C930.039 406 928.008 405.344 924.164 405.312ZM948.008 401.375C948.008 407.25 946.195 412.156 943.195 416.375H938.789C940.945 413.25 943.195 407 943.195 401.375C943.195 395.781 940.945 389.531 938.789 386.406H943.195C946.195 390.625 948.008 395.5 948.008 401.375Z" fill="#0A0A0A"/>
<rect x="1114.84" y="222" width="614.845" height="306" rx="50" fill="#F0F0F0"/>
<rect x="1172.54" y="343" width="259" height="31" fill="#3FB5FF" fill-opacity="0.3"/>
<path d="M1189.8 338.031V341.188H1184.15C1184.18 344.547 1186.18 347.984 1190.68 349.469L1188.71 352.531C1185.55 351.531 1183.4 349.469 1182.18 346.906C1180.9 349.75 1178.63 352.047 1175.27 353.125L1173.24 349.969C1177.91 348.469 1180.04 344.734 1180.09 341.188H1174.37V338.031H1189.8ZM1197.37 354.625V364.875H1193.4V357.812H1177.84V354.625H1197.37ZM1197.37 336.438V353.375H1193.4V346.531H1188.99V343.281H1193.4V336.438H1197.37ZM1226.99 350.438V353.656H1201.05V350.438H1226.99ZM1215.96 336.531V338.969H1224.49V342.125H1216.3C1216.84 344.094 1219.76 345.922 1225.84 346.281L1224.65 349.312C1219.4 348.938 1215.77 347.406 1213.99 345.125C1212.2 347.406 1208.57 348.938 1203.37 349.312L1202.15 346.281C1208.23 345.922 1211.12 344.094 1211.68 342.125H1203.55V338.969H1212.02V336.531H1215.96ZM1213.99 355.219C1220.21 355.219 1223.87 356.906 1223.9 360.031C1223.87 363.188 1220.21 364.875 1213.99 364.875C1207.74 364.875 1204.02 363.188 1204.02 360.031C1204.02 356.906 1207.74 355.219 1213.99 355.219ZM1213.99 358.156C1210.02 358.156 1208.05 358.75 1208.09 360.031C1208.05 361.344 1210.02 361.938 1213.99 361.938C1217.87 361.938 1219.87 361.344 1219.9 360.031C1219.87 358.75 1217.87 358.156 1213.99 358.156ZM1253.3 336.438V364.875H1249.52V336.438H1253.3ZM1247.49 336.906V363.562H1243.74V349.406H1239.99V346.188H1243.74V336.906H1247.49ZM1237.71 344.062C1237.71 348.781 1239.18 353.562 1243.34 355.938L1240.99 358.875C1238.46 357.375 1236.79 354.828 1235.84 351.781C1234.85 355.094 1233.13 357.906 1230.52 359.5L1228.12 356.562C1232.3 354 1233.87 348.875 1233.87 344.062V342.531H1229.21V339.344H1242.02V342.531H1237.71V344.062ZM1282.4 358.344V361.562H1256.37V358.344H1267.37V352H1271.37V358.344H1282.4ZM1280.12 338.594V341.812H1271.46C1271.79 345.562 1275.32 349.047 1281.43 349.938L1279.87 353.094C1274.88 352.219 1271.2 349.781 1269.37 346.406C1267.55 349.844 1263.9 352.344 1258.99 353.25L1257.43 350.094C1263.34 349.141 1266.88 345.578 1267.21 341.812H1258.52V338.594H1280.12ZM1308.68 336.438V364.875H1304.87V336.438H1308.68ZM1302.74 336.844V363.562H1298.99V350.125H1296.71C1296.34 355.719 1293.96 359.094 1290.46 359.094C1286.71 359.094 1284.27 355.156 1284.27 348.75C1284.27 342.375 1286.71 338.469 1290.46 338.469C1293.88 338.469 1296.23 341.656 1296.68 346.969H1298.99V336.844H1302.74ZM1290.46 342.219C1288.87 342.219 1287.93 344.406 1287.96 348.75C1287.93 353.125 1288.87 355.281 1290.46 355.25C1292.09 355.281 1293.05 353.125 1293.05 348.75C1293.05 344.406 1292.09 342.219 1290.46 342.219ZM1330.46 351.812V356.094C1332.79 355.953 1335.15 355.734 1337.37 355.406L1337.68 358.312C1331.37 359.531 1324.62 359.594 1319.65 359.594L1319.18 356.375C1321.32 356.359 1323.84 356.344 1326.49 356.25V351.812H1330.46ZM1336.34 339.781V343H1330.52C1330.79 345.75 1332.93 348.328 1337.21 349.375L1335.4 352.469C1332.07 351.625 1329.77 349.781 1328.49 347.406C1327.23 349.891 1324.96 351.828 1321.62 352.688L1319.74 349.688C1324.04 348.547 1326.12 345.875 1326.4 343H1320.65V339.781H1326.49V336.688H1330.46V339.781H1336.34ZM1342.96 336.438V364.938H1338.99V336.438H1342.96ZM1363.12 338.031V341.188H1357.46C1357.49 344.547 1359.49 347.984 1363.99 349.469L1362.02 352.531C1358.87 351.531 1356.71 349.469 1355.49 346.906C1354.21 349.75 1351.95 352.047 1348.59 353.125L1346.55 349.969C1351.23 348.469 1353.35 344.734 1353.4 341.188H1347.68V338.031H1363.12ZM1370.68 354.625V364.875H1366.71V357.812H1351.15V354.625H1370.68ZM1370.68 336.438V353.375H1366.71V346.531H1362.3V343.281H1366.71V336.438H1370.68ZM1397.12 336.438V348H1400.84V351.312H1397.12V364.875H1393.09V336.438H1397.12ZM1374.02 356.844C1376.1 356.844 1378.52 356.844 1381.05 356.781V354.344C1378.02 353.75 1376.05 351.828 1376.09 349.188C1376.05 346 1378.93 343.844 1383.09 343.844C1387.15 343.844 1390.05 346 1390.09 349.188C1390.05 351.828 1388.05 353.766 1385.05 354.344V356.625C1387.3 356.516 1389.57 356.328 1391.68 356.031L1391.93 358.938C1385.87 360.062 1379.37 360.094 1374.55 360.094L1374.02 356.844ZM1391.46 339.594V342.719H1374.59V339.594H1381.05V336.594H1385.05V339.594H1391.46ZM1383.09 346.875C1381.15 346.875 1379.84 347.719 1379.87 349.188C1379.84 350.688 1381.15 351.5 1383.09 351.5C1384.96 351.5 1386.24 350.688 1386.24 349.188C1386.24 347.719 1384.96 346.875 1383.09 346.875ZM1418.62 345.156V348.344H1413.52V351.219C1415.77 351.109 1418.01 350.969 1420.12 350.75L1420.4 353.594C1414.37 354.438 1407.93 354.594 1402.68 354.594L1402.15 351.438C1404.43 351.422 1406.95 351.406 1409.52 351.344V348.344H1404.55V338.156H1418.37V341.344H1408.55V345.156H1418.62ZM1425.93 336.406V357.844H1421.87V336.406H1425.93ZM1426.68 361.188V364.375H1406.55V356.219H1410.59V361.188H1426.68ZM1461.02 336.438V350.906H1457.05V343.844H1451.71V340.688H1457.05V336.438H1461.02ZM1461.02 352.094V359.688H1446.09V361.438H1461.84V364.562H1442.15V356.781H1457.09V355.156H1442.12V352.094H1461.02ZM1447.71 339.438C1447.68 342.844 1449.68 346.125 1454.21 347.469L1452.12 350.531C1449.07 349.547 1446.95 347.641 1445.71 345.188C1444.48 347.922 1442.23 350.078 1438.9 351.125L1436.84 347.969C1441.55 346.594 1443.65 343.125 1443.68 339.438V337.375H1447.71V339.438ZM1489.37 336.438V364.875H1485.62V336.438H1489.37ZM1483.43 337.062V363.625H1479.65V354.25H1475.62V351.031H1479.65V347.156H1476.15C1474.82 351.844 1471.95 355.812 1466.62 358.969L1464.27 356.156C1470.04 352.75 1472.57 348.609 1473.12 343.031H1465.93V339.812H1477.09C1477.09 341.234 1476.99 342.609 1476.84 343.938H1479.65V337.062H1483.43ZM1515.09 338.156V350.125H1501.18V338.156H1515.09ZM1505.12 341.25V347H1511.12V341.25H1505.12ZM1523.52 336.438V352.562H1519.55V336.438H1523.52ZM1524.02 354.125V357.094H1516.05C1516.49 359.031 1519.49 361.266 1525.12 361.812L1523.77 364.812C1519.04 364.375 1515.68 362.656 1513.96 360.406C1512.2 362.688 1508.82 364.359 1504.05 364.812L1502.68 361.812C1508.38 361.359 1511.38 359.078 1511.8 357.094H1503.84V354.125H1511.93V351.781H1515.93V354.125H1524.02ZM1549.68 345V348.062H1560.71V351.219H1534.77V348.062H1545.74V345H1549.68ZM1549.74 337.281C1549.74 340.312 1552.8 343.031 1559.34 343.625L1557.96 346.656C1553.09 346.062 1549.51 344.359 1547.68 341.75C1545.87 344.359 1542.29 346.062 1537.4 346.656L1536.02 343.625C1542.55 343.031 1545.68 340.312 1545.68 337.281V336.688H1549.74V337.281ZM1557.55 352.656V360H1541.71V361.688H1558.3V364.688H1537.8V357.188H1553.62V355.688H1537.77V352.656H1557.55ZM1585.43 337.312V345.781H1569.52V348.156H1586.09V351.344H1565.49V342.781H1581.34V340.531H1565.4V337.312H1585.43ZM1588.43 353.469V356.656H1577.37V364.938H1573.37V356.656H1562.4V353.469H1588.43ZM1600.74 341.344C1600.74 345.281 1602.68 349.188 1607.18 350.844L1604.96 353.938C1601.98 352.766 1599.93 350.531 1598.77 347.719C1597.52 350.719 1595.32 353.062 1592.09 354.281L1589.96 351.156C1594.62 349.5 1596.71 345.5 1596.71 341.344V338.062H1600.74V341.344ZM1614.05 336.469V357.562H1610.09V348.875H1605.21V345.656H1610.09V343.375H1605.21V340.156H1610.09V336.469H1614.05ZM1614.65 361.188V364.375H1595.12V355.531H1599.15V361.188H1614.65ZM1630.71 337.875C1636.71 337.906 1641.4 341.125 1641.43 346.062C1641.4 351.031 1636.71 354.281 1630.71 354.25C1624.68 354.281 1620.02 351.031 1620.02 346.062C1620.02 341.125 1624.68 337.906 1630.71 337.875ZM1630.71 341.125C1626.77 341.094 1623.9 343 1623.9 346.062C1623.9 349.156 1626.77 351 1630.71 351C1634.65 351 1637.46 349.156 1637.49 346.062C1637.46 343 1634.65 341.094 1630.71 341.125ZM1643.77 358.188V361.406H1617.74V358.188H1643.77ZM1671.43 358.438V361.719H1645.4V358.438H1656.37V354.156H1648.4V344.594H1664.49V341.469H1648.37V338.281H1668.43V347.719H1652.4V350.906H1669.09V354.156H1660.34V358.438H1671.43ZM1261.77 390.906V394.094H1253.59V396.562H1264.55V399.719H1238.62V396.562H1249.59V394.094H1241.9V384.969H1245.87V390.906H1261.77ZM1261.77 401.719V404.812H1257.9V409.375H1262.09V412.562H1241.15V409.375H1245.27V404.812H1241.4V401.719H1261.77ZM1249.21 409.375H1253.96V404.812H1249.21V409.375ZM1292.21 398.969V402.156H1266.27V398.969H1292.21ZM1289.27 409.188V412.375H1269.4V404.062H1273.4V409.188H1289.27ZM1279.24 385.312C1285.46 385.281 1289.55 387.5 1289.59 391.125C1289.55 394.75 1285.46 397 1279.24 397C1272.96 397 1268.87 394.75 1268.87 391.125C1268.87 387.5 1272.96 385.281 1279.24 385.312ZM1279.24 388.438C1275.3 388.469 1272.99 389.406 1273.02 391.125C1272.99 392.906 1275.3 393.781 1279.24 393.781C1283.18 393.781 1285.46 392.906 1285.46 391.125C1285.46 389.406 1283.18 388.469 1279.24 388.438ZM1327.24 397.75V400.906H1316.24V403.344H1324.15V412.562H1304.3V403.344H1312.27V400.906H1301.3V397.75H1327.24ZM1324.93 385.219V388.406H1321.21V392.75H1324.74V395.938H1303.77V392.75H1307.27V388.406H1303.59V385.219H1324.93ZM1308.24 406.438V409.375H1320.24V406.438H1308.24ZM1311.27 392.75H1317.21V388.406H1311.27V392.75ZM1352.74 384.438V399.031H1348.77V384.438H1352.74ZM1352.77 400.156V407.75H1337.65V409.625H1353.55V412.688H1333.74V404.906H1348.8V403.188H1333.68V400.156H1352.77ZM1345.77 385.75V388.938H1340.09C1340.37 391.781 1342.49 394.531 1346.87 395.688L1344.96 398.75C1341.66 397.844 1339.38 395.938 1338.12 393.5C1336.8 396.219 1334.4 398.359 1330.9 399.344L1329.09 396.188C1333.52 394.969 1335.7 391.969 1335.96 388.938H1330.15V385.75H1345.77ZM1365.84 386.344C1370.34 386.312 1373.71 389.25 1373.71 393.312C1373.71 397.406 1370.34 400.312 1365.84 400.312C1361.34 400.312 1357.93 397.406 1357.93 393.312C1357.93 389.25 1361.34 386.312 1365.84 386.344ZM1365.84 389.781C1363.59 389.781 1361.87 391.094 1361.9 393.312C1361.87 395.562 1363.59 396.844 1365.84 396.844C1368.09 396.844 1369.8 395.562 1369.84 393.312C1369.8 391.094 1368.12 389.781 1365.84 389.781ZM1380.52 384.438V412.938H1376.55V384.438H1380.52ZM1356.74 403.875C1361.8 403.906 1368.84 403.812 1374.93 402.969L1375.24 405.844C1368.93 407.062 1362.18 407.125 1357.21 407.125L1356.74 403.875ZM1400.96 410.312C1395.99 410.312 1392.43 407.562 1392.34 403.625H1397.09C1397.18 405.312 1398.8 406.438 1400.99 406.438C1403.24 406.438 1404.87 405.156 1404.84 403.344C1404.87 401.5 1403.21 400.188 1400.55 400.188H1398.46V396.719H1400.55C1402.77 396.719 1404.34 395.5 1404.34 393.719C1404.34 392 1403.02 390.812 1401.02 390.812C1399.02 390.812 1397.37 391.938 1397.3 393.656H1392.8C1392.87 389.75 1396.4 387.062 1401.02 387.062C1405.74 387.062 1408.9 389.844 1408.87 393.438C1408.9 395.969 1407.12 397.781 1404.59 398.219V398.406C1407.9 398.812 1409.74 400.844 1409.71 403.656C1409.74 407.531 1406.05 410.312 1400.96 410.312ZM1421.12 410H1413.15V387.375H1421.21C1428.02 387.375 1432.18 391.625 1432.18 398.656C1432.18 405.75 1428.02 410 1421.12 410ZM1417.84 405.969H1420.93C1425.24 405.969 1427.49 403.719 1427.49 398.656C1427.49 393.625 1425.24 391.406 1420.96 391.406H1417.84V405.969ZM1460.55 406.25V409.562H1434.52V406.25H1460.55ZM1458.37 386.938V390.125H1454.37V398.75H1458.24V401.875H1436.68V398.75H1440.49V390.125H1436.55V386.938H1458.37ZM1444.49 398.75H1450.43V390.125H1444.49V398.75ZM1485.96 384.469V405.406H1481.99V384.469H1485.96ZM1486.71 409.188V412.375H1466.84V403.656H1470.8V409.188H1486.71ZM1476.84 386.312V395.375H1467.59V398.531C1472.66 398.516 1475.91 398.375 1479.59 397.656L1480.02 400.844C1475.9 401.625 1472.21 401.781 1466.18 401.781H1463.68V392.438H1472.87V389.5H1463.65V386.312H1476.84ZM1505.18 386.406V389.594H1495.4V391.812H1504.34V394.906H1495.4V397.188C1500.4 397.188 1503.57 397.125 1507.18 396.531L1507.59 399.656C1503.52 400.312 1499.93 400.406 1493.84 400.375H1491.4V386.406H1505.18ZM1513.65 384.469V401.688H1509.65V384.469H1513.65ZM1503.96 402.062C1509.96 402.062 1513.77 404.062 1513.8 407.469C1513.77 410.906 1509.96 412.875 1503.96 412.875C1497.87 412.875 1494.18 410.906 1494.18 407.469C1494.18 404.062 1497.87 402.062 1503.96 402.062ZM1503.96 405.156C1500.15 405.156 1498.15 405.938 1498.15 407.469C1498.15 409.031 1500.15 409.844 1503.96 409.844C1507.74 409.844 1509.8 409.031 1509.8 407.469C1509.8 405.938 1507.74 405.156 1503.96 405.156ZM1535.62 390.875C1535.62 396.219 1537.77 401.406 1542.52 403.469L1540.09 406.656C1536.93 405.109 1534.82 402.281 1533.65 398.781C1532.4 402.5 1530.21 405.547 1526.96 407.156L1524.46 403.906C1529.34 401.719 1531.55 396.219 1531.59 390.875V386.625H1535.62V390.875ZM1548.87 384.438V412.938H1544.93V396.594H1539.34V393.375H1544.93V384.438H1548.87ZM1576.34 384.438V412.938H1572.3V384.438H1576.34ZM1557.93 386.688V393.625H1564.05V386.688H1567.99V406.281H1553.93V386.688H1557.93ZM1557.93 403.062H1564.05V396.719H1557.93V403.062ZM1595.15 388.188C1595.15 392.344 1598.84 396.812 1605.27 397.906L1603.52 401.219C1598.57 400.234 1594.88 397.453 1593.05 393.781C1591.16 397.422 1587.48 400.219 1582.55 401.219L1580.84 397.906C1587.15 396.781 1590.87 392.312 1590.9 388.188V386.125H1595.15V388.188ZM1606.21 406.094V409.375H1580.18V406.094H1606.21Z" fill="#0A0A0A"/>
<rect x="453" y="560" width="614.845" height="306" rx="50" fill="#F0F0F0"/>
<rect x="477" y="679" width="193" height="31" fill="#3FB5FF" fill-opacity="0.3"/>
<path d="M488.195 682.188C488.164 686.531 490.477 691.531 495.164 693.688L492.945 696.812C489.773 695.359 487.508 692.453 486.258 689.031C484.977 692.797 482.648 695.984 479.352 697.531L477.039 694.375C481.789 692.156 484.164 686.875 484.195 682.188V680.438H478.164V677.188H493.914V680.438H488.195V682.188ZM500.133 674.438V685.281H504.32V688.625H500.133V702.875H496.133V674.438H500.133ZM531.352 687.875V691H505.352V687.875H516.414V685.438H508.508V675.688H528.227V678.781H512.477V682.312H528.383V685.438H520.32V687.875H531.352ZM518.289 692.438C524.445 692.438 528.164 694.312 528.195 697.688C528.164 701 524.445 702.906 518.289 702.906C512.07 702.906 508.32 701 508.32 697.688C508.32 694.312 512.07 692.438 518.289 692.438ZM518.289 695.469C514.352 695.469 512.352 696.219 512.383 697.688C512.352 699.188 514.352 699.875 518.289 699.875C522.133 699.875 524.164 699.188 524.195 697.688C524.164 696.219 522.133 695.469 518.289 695.469ZM556.945 674.469V695.438H553.008V689.5H546.508V686.312H553.008V683.125H546.914C544.883 687.453 540.758 690.656 535.039 692.375L533.383 689.281C539.445 687.359 543.258 683.984 543.977 679.781H534.914V676.594H548.32C548.32 677.75 548.195 678.875 547.977 679.938H553.008V674.469H556.945ZM557.695 699.188V702.375H538.227V693.344H542.289V699.188H557.695ZM577.07 676.031V679.188H571.414C571.445 682.547 573.445 685.984 577.945 687.469L575.977 690.531C572.82 689.531 570.664 687.469 569.445 684.906C568.164 687.75 565.898 690.047 562.539 691.125L560.508 687.969C565.18 686.469 567.305 682.734 567.352 679.188H561.633V676.031H577.07ZM584.633 692.625V702.875H580.664V695.812H565.102V692.625H584.633ZM584.633 674.438V691.375H580.664V684.531H576.258V681.281H580.664V674.438H584.633ZM599.383 680.875C599.383 686.094 601.758 691.344 606.57 693.375L604.227 696.562C600.977 695.094 598.727 692.266 597.445 688.75C596.148 692.578 593.82 695.672 590.352 697.25L587.945 693.938C592.914 691.844 595.32 686.406 595.352 680.875V676.625H599.383V680.875ZM612.133 674.438V702.938H608.102V674.438H612.133ZM630.945 678.188C630.945 682.344 634.633 686.812 641.07 687.906L639.32 691.219C634.367 690.234 630.68 687.453 628.852 683.781C626.961 687.422 623.273 690.219 618.352 691.219L616.633 687.906C622.945 686.781 626.664 682.312 626.695 678.188V676.125H630.945V678.188ZM642.008 696.094V699.375H615.977V696.094H642.008ZM655.602 676.125V679.344H648.57V681.594H654.539V684.656H648.57V687.125C651.68 687.078 653.945 686.953 656.57 686.531L656.977 689.625C653.695 690.188 650.977 690.281 646.695 690.281H644.758V676.125H655.602ZM668.07 674.438V691.406H664.289V674.438H668.07ZM662.414 674.875V691.219H658.633V684.469H655.758V681.281H658.633V674.875H662.414ZM668.07 692.531V702.562H648.664V692.531H668.07ZM652.633 695.656V699.375H664.133V695.656H652.633ZM684.258 674.844C690.789 674.844 694.57 676.562 694.602 679.688C694.57 682.844 690.789 684.562 684.258 684.562C677.695 684.562 673.883 682.844 673.883 679.688C673.883 676.562 677.695 674.844 684.258 674.844ZM684.258 677.75C680.07 677.75 678.039 678.438 678.07 679.688C678.039 681.094 680.07 681.625 684.258 681.625C688.477 681.625 690.477 681.094 690.477 679.688C690.477 678.438 688.477 677.75 684.258 677.75ZM697.227 685.906V689.062H671.289V685.906H697.227ZM694.07 690.719V697.969H678.227V699.688H694.82V702.688H674.32V695.188H690.133V693.625H674.289V690.719H694.07ZM732.258 689.094V692.219H706.258V689.094H717.258V687.344H709.508V675.125H729.227V678.188H713.508V679.781H728.57V682.656H713.508V684.281H729.477V687.344H721.258V689.094H732.258ZM719.258 693.531C725.539 693.5 729.133 695.188 729.164 698.188C729.133 701.25 725.539 702.875 719.258 702.875C712.883 702.875 709.289 701.25 709.289 698.188C709.289 695.188 712.883 693.5 719.258 693.531ZM719.258 696.469C715.164 696.469 713.258 697 713.289 698.188C713.258 699.406 715.164 699.938 719.258 699.938C723.258 699.938 725.133 699.406 725.164 698.188C725.133 697 723.258 696.469 719.258 696.469ZM756.539 674.469V683.188H760.383V686.438H756.539V695.688H752.539V674.469H756.539ZM750.852 677.438V680.594H733.977V677.438H740.445V674.406H744.414V677.438H750.852ZM742.414 681.594C746.539 681.594 749.414 683.812 749.414 687.094C749.414 690.375 746.539 692.531 742.414 692.531C738.258 692.531 735.352 690.375 735.352 687.094C735.352 683.812 738.258 681.594 742.414 681.594ZM742.414 684.625C740.508 684.656 739.227 685.531 739.258 687.094C739.227 688.656 740.508 689.5 742.414 689.5C744.32 689.5 745.633 688.656 745.633 687.094C745.633 685.531 744.32 684.656 742.414 684.625ZM757.57 699.188V702.375H738.102V694.062H742.07V699.188H757.57ZM769.945 700L769.914 696.594L778.039 689.125C780.164 687.094 781.289 685.844 781.289 684.062C781.289 682.062 779.758 680.812 777.695 680.812C775.57 680.812 774.195 682.156 774.195 684.312H769.727C769.695 679.875 772.977 677.062 777.758 677.062C782.602 677.062 785.82 679.812 785.82 683.75C785.82 686.312 784.57 688.438 779.914 692.656L776.477 696V696.125H786.133V700H769.945ZM788.602 696V692.281L798.164 677.375H804.07V692.219H806.945V696H804.07V700H799.602V696H788.602ZM793.352 692.219H799.664V682.531H799.445L793.352 692.031V692.219ZM820.133 680.875C820.133 686.094 822.508 691.344 827.32 693.375L824.977 696.562C821.727 695.094 819.477 692.266 818.195 688.75C816.898 692.578 814.57 695.672 811.102 697.25L808.695 693.938C813.664 691.844 816.07 686.406 816.102 680.875V676.625H820.133V680.875ZM832.883 674.438V702.938H828.852V674.438H832.883ZM859.289 674.438V682.406H863.133V685.688H859.289V694.812H855.258V674.438H859.289ZM851.539 676.562C851.539 684.25 846.727 689.625 838.195 692.031L836.539 688.875C842.898 687.094 846.508 683.797 847.164 679.812H837.789V676.562H851.539ZM860.258 699.188V702.375H840.789V692.719H844.82V699.188H860.258ZM895.539 674.438V688.844H891.57V674.438H895.539ZM895.57 690.062V697.781H880.445V699.531H896.352V702.688H876.539V694.812H891.602V693.156H876.477V690.062H895.57ZM882.664 677.25C882.633 680.688 884.695 684 889.352 685.344L887.414 688.406C884.148 687.453 881.898 685.484 880.633 682.969C879.32 685.719 876.992 687.906 873.602 688.906L871.633 685.781C876.383 684.375 878.508 680.781 878.508 677.25V675.062H882.664V677.25ZM910.477 680.875C910.477 686.094 912.852 691.344 917.664 693.375L915.32 696.562C912.07 695.094 909.82 692.266 908.539 688.75C907.242 692.578 904.914 695.672 901.445 697.25L899.039 693.938C904.008 691.844 906.414 686.406 906.445 680.875V676.625H910.477V680.875ZM923.227 674.438V702.938H919.195V674.438H923.227ZM949.633 674.438V682.406H953.477V685.688H949.633V694.812H945.602V674.438H949.633ZM941.883 676.562C941.883 684.25 937.07 689.625 928.539 692.031L926.883 688.875C933.242 687.094 936.852 683.797 937.508 679.812H928.133V676.562H941.883ZM950.602 699.188V702.375H931.133V692.719H935.164V699.188H950.602ZM986.039 674.469V695.438H982.102V689.5H975.602V686.312H982.102V683.125H976.008C973.977 687.453 969.852 690.656 964.133 692.375L962.477 689.281C968.539 687.359 972.352 683.984 973.07 679.781H964.008V676.594H977.414C977.414 677.75 977.289 678.875 977.07 679.938H982.102V674.469H986.039ZM986.789 699.188V702.375H967.32V693.344H971.383V699.188H986.789ZM1006.16 676.031V679.188H1000.51C1000.54 682.547 1002.54 685.984 1007.04 687.469L1005.07 690.531C1001.91 689.531 999.758 687.469 998.539 684.906C997.258 687.75 994.992 690.047 991.633 691.125L989.602 687.969C994.273 686.469 996.398 682.734 996.445 679.188H990.727V676.031H1006.16ZM1013.73 692.625V702.875H1009.76V695.812H994.195V692.625H1013.73ZM1013.73 674.438V691.375H1009.76V684.531H1005.35V681.281H1009.76V674.438H1013.73ZM1033.41 677.281V679.562C1033.38 682.25 1033.38 685.75 1032.63 690.469L1028.7 690.156C1029.34 686.031 1029.4 682.984 1029.45 680.469H1018.66V677.281H1033.41ZM1026.32 685.438V693.688C1029.12 693.578 1031.96 693.375 1034.57 693.031L1034.82 696C1028.98 697 1022.51 697.094 1017.54 697.062L1017.16 693.875C1018.76 693.859 1020.54 693.859 1022.38 693.812V685.438H1026.32ZM1039.95 674.438V685.875H1043.82V689.188H1039.95V702.875H1035.91V674.438H1039.95ZM550.664 748L550.633 744.594L558.758 737.125C560.883 735.094 562.008 733.844 562.008 732.062C562.008 730.062 560.477 728.812 558.414 728.812C556.289 728.812 554.914 730.156 554.914 732.312H550.445C550.414 727.875 553.695 725.062 558.477 725.062C563.32 725.062 566.539 727.812 566.539 731.75C566.539 734.312 565.289 736.438 560.633 740.656L557.195 744V744.125H566.852V748H550.664ZM580.32 728.875C580.32 734.094 582.695 739.344 587.508 741.375L585.164 744.562C581.914 743.094 579.664 740.266 578.383 736.75C577.086 740.578 574.758 743.672 571.289 745.25L568.883 741.938C573.852 739.844 576.258 734.406 576.289 728.875V724.625H580.32V728.875ZM593.07 722.438V750.938H589.039V722.438H593.07ZM619.477 722.438V730.406H623.32V733.688H619.477V742.812H615.445V722.438H619.477ZM611.727 724.562C611.727 732.25 606.914 737.625 598.383 740.031L596.727 736.875C603.086 735.094 606.695 731.797 607.352 727.812H597.977V724.562H611.727ZM620.445 747.188V750.375H600.977V740.719H605.008V747.188H620.445ZM655.758 722.438V750.938H651.727V722.438H655.758ZM640.32 724.438C644.602 724.438 647.789 728.375 647.789 734.562C647.789 740.812 644.602 744.719 640.32 744.719C635.945 744.719 632.758 740.812 632.789 734.562C632.758 728.375 635.945 724.438 640.32 724.438ZM640.32 728.031C638.102 728.031 636.633 730.344 636.633 734.562C636.633 738.812 638.102 741.094 640.32 741.094C642.477 741.094 643.945 738.812 643.945 734.562C643.945 730.344 642.477 728.031 640.32 728.031ZM684.133 722.438V750.875H680.289V736.656H677.633V749.5H673.883V722.906H677.633V733.438H680.289V722.438H684.133ZM664.758 725.594V740.438C667.039 740.391 669.539 740.188 672.289 739.656L672.695 743.094C668.883 743.75 665.633 743.938 662.695 743.938H660.758V725.594H664.758ZM717.195 722.438V728.906H721.039V732.188H717.195V739.031H713.195V722.438H717.195ZM699.445 724.094V727.719H705.258V724.094H709.258V737.625H695.477V724.094H699.445ZM699.445 734.5H705.258V730.812H699.445V734.5ZM717.352 740.312V743.469H702.57V747.375H717.883V750.5H698.602V740.312H717.352ZM735.258 722.844C741.789 722.844 745.57 724.562 745.602 727.688C745.57 730.844 741.789 732.562 735.258 732.562C728.695 732.562 724.883 730.844 724.883 727.688C724.883 724.562 728.695 722.844 735.258 722.844ZM735.258 725.75C731.07 725.75 729.039 726.438 729.07 727.688C729.039 729.094 731.07 729.625 735.258 729.625C739.477 729.625 741.477 729.094 741.477 727.688C741.477 726.438 739.477 725.75 735.258 725.75ZM748.227 733.906V737.062H722.289V733.906H748.227ZM745.07 738.719V745.969H729.227V747.688H745.82V750.688H725.32V743.188H741.133V741.625H725.289V738.719H745.07ZM772.414 724.656C772.414 728 775.82 731.719 782.352 732.531L780.789 735.75C775.82 735.031 772.18 732.734 770.32 729.656C768.445 732.734 764.836 735.031 759.914 735.75L758.32 732.531C764.789 731.719 768.227 728 768.227 724.656V723.281H772.414V724.656ZM783.258 737.906V741.156H772.195V750.875H768.258V741.156H757.32V737.906H783.258ZM802.695 740.688C802.695 742.984 803.648 745.344 805.977 746.906C808.32 745.25 809.352 742.797 809.352 740.688V739.719H813.289V740.688C813.258 743.656 814.852 746.406 818.633 747.562L816.695 750.469C813.977 749.547 812.195 747.812 811.227 745.625C810.273 747.812 808.617 749.719 806.07 750.719C803.383 749.75 801.711 747.906 800.789 745.719C799.789 747.844 798.039 749.562 795.445 750.469L793.477 747.562C797.227 746.281 798.789 743.469 798.82 740.688V739.719H802.695V740.688ZM816.164 722.469V738.531H812.164V722.469H816.164ZM800.57 723.906C805.008 723.906 808.352 726.719 808.352 730.75C808.352 734.719 805.008 737.531 800.57 737.531C796.133 737.531 792.789 734.719 792.789 730.75C792.789 726.719 796.133 723.906 800.57 723.906ZM800.57 727.25C798.289 727.25 796.664 728.562 796.695 730.75C796.664 732.906 798.289 734.219 800.57 734.219C802.789 734.219 804.414 732.906 804.414 730.75C804.414 728.562 802.789 727.25 800.57 727.25ZM843.102 730.188V733.312H823.227V723.438H827.195V730.188H843.102ZM846.008 736.375V739.5H819.977V736.375H846.008ZM843.289 747.062V750.25H822.977V741.812H826.977V747.062H843.289ZM877.789 722.469V730.594H881.414V733.875H877.789V741.781H873.789V722.469H877.789ZM854.727 738.125C856.805 738.125 859.18 738.125 861.633 738.062V736.469C858.539 736.031 856.602 734.531 856.633 732.344C856.602 729.719 859.383 728.094 863.602 728.094C867.789 728.094 870.539 729.719 870.57 732.344C870.539 734.531 868.648 736.016 865.602 736.438V737.906C867.945 737.812 870.273 737.625 872.477 737.344L872.758 740.094C866.758 741.156 860.164 741.219 855.133 741.219L854.727 738.125ZM877.789 742.938V750.875H873.789V746H858.352V742.938H877.789ZM871.758 724.531V727.438H855.477V724.531H861.633V722.219H865.602V724.531H871.758ZM863.602 730.75C861.57 730.75 860.414 731.25 860.445 732.344C860.414 733.375 861.57 733.969 863.602 733.969C865.602 733.969 866.727 733.375 866.758 732.344C866.727 731.25 865.602 730.75 863.602 730.75ZM906.664 722.438V739.312H902.695V732.594H898.258V729.375H902.695V722.438H906.664ZM896.945 739.938C903.008 739.969 906.727 741.969 906.758 745.438C906.727 748.875 903.008 750.906 896.945 750.906C890.883 750.906 887.164 748.875 887.164 745.438C887.164 741.969 890.883 739.969 896.945 739.938ZM896.945 743C893.164 743 891.133 743.781 891.133 745.438C891.133 747.062 893.164 747.875 896.945 747.875C900.727 747.875 902.789 747.062 902.789 745.438C902.789 743.781 900.727 743 896.945 743ZM899.102 724.156V727.344H893.445C893.539 730.656 895.539 734 899.977 735.469L898.008 738.594C894.867 737.578 892.711 735.516 891.477 732.938C890.211 735.844 887.945 738.188 884.57 739.344L882.508 736.188C887.18 734.625 889.273 730.906 889.383 727.344H883.664V724.156H899.102ZM941.664 722.469V743.438H937.727V737.5H931.227V734.312H937.727V731.125H931.633C929.602 735.453 925.477 738.656 919.758 740.375L918.102 737.281C924.164 735.359 927.977 731.984 928.695 727.781H919.633V724.594H933.039C933.039 725.75 932.914 726.875 932.695 727.938H937.727V722.469H941.664ZM942.414 747.188V750.375H922.945V741.344H927.008V747.188H942.414ZM961.789 724.031V727.188H956.133C956.164 730.547 958.164 733.984 962.664 735.469L960.695 738.531C957.539 737.531 955.383 735.469 954.164 732.906C952.883 735.75 950.617 738.047 947.258 739.125L945.227 735.969C949.898 734.469 952.023 730.734 952.07 727.188H946.352V724.031H961.789ZM969.352 740.625V750.875H965.383V743.812H949.82V740.625H969.352ZM969.352 722.438V739.375H965.383V732.531H960.977V729.281H965.383V722.438H969.352Z" fill="#0A0A0A"/>
<rect x="1114.84" y="560" width="614.845" height="306" rx="50" fill="#F0F0F0"/>
<rect x="1255" y="654" width="240" height="31" fill="#3FB5FF" fill-opacity="0.3"/>
<path d="M1283.64 650.438V671.375H1279.67V664.375H1276.05V661.094H1279.67V658.625H1276.05V655.438H1279.67V650.438H1283.64ZM1275.55 652.469V655.656H1273.2V664.281C1274.16 664.219 1275.09 664.125 1275.98 664.031L1276.14 666.938C1270.83 667.812 1264.58 667.938 1260.08 667.938L1259.67 664.688L1262.7 664.656V655.656H1260.39V652.469H1275.55ZM1284.33 675.188V678.375H1264.73V669.812H1268.73V675.188H1284.33ZM1266.55 664.594L1269.39 664.5V655.656H1266.55V664.594ZM1311.17 650.438V678.938H1307.2V650.438H1311.17ZM1302.36 652.812V663.781H1292.98V669C1297.31 668.984 1301 668.734 1305.17 668.062L1305.52 671.281C1300.83 672.094 1296.61 672.281 1291.42 672.281H1288.86V660.625H1298.3V656.031H1288.83V652.812H1302.36ZM1337.55 650.469V659.188H1341.39V662.438H1337.55V671.688H1333.55V650.469H1337.55ZM1331.86 653.438V656.594H1314.98V653.438H1321.45V650.406H1325.42V653.438H1331.86ZM1323.42 657.594C1327.55 657.594 1330.42 659.812 1330.42 663.094C1330.42 666.375 1327.55 668.531 1323.42 668.531C1319.27 668.531 1316.36 666.375 1316.36 663.094C1316.36 659.812 1319.27 657.594 1323.42 657.594ZM1323.42 660.625C1321.52 660.656 1320.23 661.531 1320.27 663.094C1320.23 664.656 1321.52 665.5 1323.42 665.5C1325.33 665.5 1326.64 664.656 1326.64 663.094C1326.64 661.531 1325.33 660.656 1323.42 660.625ZM1338.58 675.188V678.375H1319.11V670.062H1323.08V675.188H1338.58ZM1364.52 652.281V664.75H1350.86V652.281H1364.52ZM1354.8 655.438V661.594H1360.58V655.438H1354.8ZM1372.58 650.438V656.625H1376.42V659.875H1372.58V666.375H1368.58V650.438H1372.58ZM1372.92 667.719V670.875H1365.64C1366.31 673 1369.12 675.109 1374.17 675.781L1372.77 678.812C1368.2 678.203 1364.98 676.375 1363.36 673.938C1361.72 676.375 1358.52 678.172 1353.98 678.75L1352.55 675.719C1357.67 675.094 1360.42 673.062 1361.08 670.875H1353.77V667.719H1372.92ZM1403.61 664.094V667.25H1392.58V669.438H1400.52V678.562H1380.67V669.438H1388.64V667.25H1377.67V664.094H1403.61ZM1392.58 650.438V652.875H1401.11V656H1392.92C1393.41 657.969 1396.31 659.734 1402.45 660.094L1401.3 663.031C1396.03 662.672 1392.39 661.234 1390.61 659C1388.81 661.234 1385.17 662.672 1379.92 663.031L1378.77 660.094C1384.95 659.734 1387.8 657.969 1388.33 656H1380.17V652.875H1388.64V650.438H1392.58ZM1384.61 672.594V675.375H1396.61V672.594H1384.61ZM1421.2 653.062V656.219H1405.39V653.062H1411.52V650.188H1415.48V653.062H1421.2ZM1413.45 657.156C1417.36 657.188 1420.17 659.344 1420.2 662.5C1420.17 665.688 1417.36 667.812 1413.45 667.781C1409.52 667.812 1406.77 665.688 1406.8 662.5C1406.77 659.344 1409.52 657.188 1413.45 657.156ZM1413.45 660.125C1411.64 660.125 1410.48 660.969 1410.52 662.5C1410.48 664.031 1411.64 664.844 1413.45 664.844C1415.23 664.844 1416.48 664.031 1416.48 662.5C1416.48 660.969 1415.23 660.125 1413.45 660.125ZM1429.3 650.438V668.562H1425.33V665.562H1421.45V662.375H1425.33V659.875H1421.52V656.688H1425.33V650.438H1429.3ZM1419.64 668.906C1425.67 668.906 1429.45 670.75 1429.45 673.906C1429.45 677 1425.67 678.875 1419.64 678.875C1413.58 678.875 1409.83 677 1409.83 673.906C1409.83 670.75 1413.58 668.906 1419.64 668.906ZM1419.64 671.906C1416.02 671.938 1414.02 672.562 1414.02 673.906C1414.02 675.188 1416.02 675.875 1419.64 675.875C1423.2 675.875 1425.17 675.188 1425.17 673.906C1425.17 672.562 1423.2 671.938 1419.64 671.906ZM1450.73 654.906C1450.73 658.344 1452.73 661.656 1457.23 663.062L1455.11 666.156C1452.09 665.156 1449.98 663.219 1448.77 660.719C1447.53 663.594 1445.33 665.844 1442.08 666.938L1439.92 663.812C1444.67 662.219 1446.7 658.438 1446.73 654.531V651.938H1450.73V654.906ZM1462.92 650.438V657.094H1466.77V660.406H1462.92V667.312H1458.92V650.438H1462.92ZM1453.61 667.875C1459.48 667.875 1463.2 669.906 1463.2 673.375C1463.2 676.875 1459.48 678.875 1453.61 678.875C1447.61 678.875 1443.86 676.875 1443.86 673.375C1443.86 669.906 1447.61 667.875 1453.61 667.875ZM1453.61 671C1449.86 671 1447.83 671.812 1447.86 673.375C1447.83 675 1449.86 675.75 1453.61 675.75C1457.3 675.75 1459.27 675 1459.27 673.375C1459.27 671.812 1457.3 671 1453.61 671ZM1490.58 650.438V656.844H1494.42V660.125H1490.58V666.406H1486.58V650.438H1490.58ZM1481.8 652.219V655.375H1473.11V662.156C1478.25 662.125 1481.08 661.938 1484.27 661.281L1484.67 664.406C1481.11 665.219 1477.83 665.344 1471.52 665.344H1469.11V652.219H1481.8ZM1490.58 667.594V678.531H1471.98V667.594H1490.58ZM1475.92 670.75V675.406H1486.64V670.75H1475.92ZM1508.64 650.844C1515.17 650.844 1518.95 652.562 1518.98 655.688C1518.95 658.844 1515.17 660.562 1508.64 660.562C1502.08 660.562 1498.27 658.844 1498.27 655.688C1498.27 652.562 1502.08 650.844 1508.64 650.844ZM1508.64 653.75C1504.45 653.75 1502.42 654.438 1502.45 655.688C1502.42 657.094 1504.45 657.625 1508.64 657.625C1512.86 657.625 1514.86 657.094 1514.86 655.688C1514.86 654.438 1512.86 653.75 1508.64 653.75ZM1521.61 661.906V665.062H1495.67V661.906H1521.61ZM1518.45 666.719V673.969H1502.61V675.688H1519.2V678.688H1498.7V671.188H1514.52V669.625H1498.67V666.719H1518.45ZM1556.64 665.094V668.219H1530.64V665.094H1541.64V663.344H1533.89V651.125H1553.61V654.188H1537.89V655.781H1552.95V658.656H1537.89V660.281H1553.86V663.344H1545.64V665.094H1556.64ZM1543.64 669.531C1549.92 669.5 1553.52 671.188 1553.55 674.188C1553.52 677.25 1549.92 678.875 1543.64 678.875C1537.27 678.875 1533.67 677.25 1533.67 674.188C1533.67 671.188 1537.27 669.5 1543.64 669.531ZM1543.64 672.469C1539.55 672.469 1537.64 673 1537.67 674.188C1537.64 675.406 1539.55 675.938 1543.64 675.938C1547.64 675.938 1549.52 675.406 1549.55 674.188C1549.52 673 1547.64 672.469 1543.64 672.469ZM1572.08 654.781V657.938H1558.33V654.781H1563.27V651.219H1567.2V654.781H1572.08ZM1565.27 659.219C1568.89 659.219 1571.48 662.031 1571.52 665.969C1571.48 669.938 1568.89 672.75 1565.27 672.75C1561.64 672.75 1558.98 669.938 1558.98 665.969C1558.98 662.031 1561.64 659.219 1565.27 659.219ZM1565.27 662.531C1563.61 662.531 1562.48 663.812 1562.48 665.969C1562.48 668.125 1563.61 669.375 1565.27 669.375C1566.86 669.375 1567.98 668.125 1568.02 665.969C1567.98 663.812 1566.86 662.531 1565.27 662.531ZM1582.95 650.438V678.875H1579.17V665.188H1576.86V677.656H1573.14V651H1576.86V662H1579.17V650.438H1582.95ZM1216.2 724.312C1211.23 724.312 1207.67 721.562 1207.58 717.625H1212.33C1212.42 719.312 1214.05 720.438 1216.23 720.438C1218.48 720.438 1220.11 719.156 1220.08 717.344C1220.11 715.5 1218.45 714.188 1215.8 714.188H1213.7V710.719H1215.8C1218.02 710.719 1219.58 709.5 1219.58 707.719C1219.58 706 1218.27 704.812 1216.27 704.812C1214.27 704.812 1212.61 705.938 1212.55 707.656H1208.05C1208.11 703.75 1211.64 701.062 1216.27 701.062C1220.98 701.062 1224.14 703.844 1224.11 707.438C1224.14 709.969 1222.36 711.781 1219.83 712.219V712.406C1223.14 712.812 1224.98 714.844 1224.95 717.656C1224.98 721.531 1221.3 724.312 1216.2 724.312ZM1236.36 724H1228.39V701.375H1236.45C1243.27 701.375 1247.42 705.625 1247.42 712.656C1247.42 719.75 1243.27 724 1236.36 724ZM1233.08 719.969H1236.17C1240.48 719.969 1242.73 717.719 1242.73 712.656C1242.73 707.625 1240.48 705.406 1236.2 705.406H1233.08V719.969ZM1275.8 720.25V723.562H1249.77V720.25H1275.8ZM1273.61 700.938V704.125H1269.61V712.75H1273.48V715.875H1251.92V712.75H1255.73V704.125H1251.8V700.938H1273.61ZM1259.73 712.75H1265.67V704.125H1259.73V712.75ZM1301.2 698.469V719.406H1297.23V698.469H1301.2ZM1301.95 723.188V726.375H1282.08V717.656H1286.05V723.188H1301.95ZM1292.08 700.312V709.375H1282.83V712.531C1287.91 712.516 1291.16 712.375 1294.83 711.656L1295.27 714.844C1291.14 715.625 1287.45 715.781 1281.42 715.781H1278.92V706.438H1288.11V703.5H1278.89V700.312H1292.08ZM1320.42 700.406V703.594H1310.64V705.812H1319.58V708.906H1310.64V711.188C1315.64 711.188 1318.81 711.125 1322.42 710.531L1322.83 713.656C1318.77 714.312 1315.17 714.406 1309.08 714.375H1306.64V700.406H1320.42ZM1328.89 698.469V715.688H1324.89V698.469H1328.89ZM1319.2 716.062C1325.2 716.062 1329.02 718.062 1329.05 721.469C1329.02 724.906 1325.2 726.875 1319.2 726.875C1313.11 726.875 1309.42 724.906 1309.42 721.469C1309.42 718.062 1313.11 716.062 1319.2 716.062ZM1319.2 719.156C1315.39 719.156 1313.39 719.938 1313.39 721.469C1313.39 723.031 1315.39 723.844 1319.2 723.844C1322.98 723.844 1325.05 723.031 1325.05 721.469C1325.05 719.938 1322.98 719.156 1319.2 719.156ZM1366.14 720.375V723.625H1340.11V720.375H1351.11V714.812H1355.08V720.375H1366.14ZM1363.86 702.344V705.531H1355.17C1355.5 708.688 1358.72 711.891 1365.2 712.688L1363.77 715.781C1358.67 715.141 1355 713.031 1353.11 710.094C1351.19 713.031 1347.55 715.141 1342.45 715.781L1340.98 712.688C1347.47 711.891 1350.69 708.688 1351.05 705.531H1342.36V702.344H1351.11V698.781H1355.08V702.344H1363.86ZM1393.8 720.312V723.562H1367.77V720.312H1378.73V715.062H1370.52V700.25H1374.52V704.656H1386.92V700.25H1390.89V715.062H1382.7V720.312H1393.8ZM1374.52 711.875H1386.92V707.844H1374.52V711.875ZM1405.92 706.188C1405.89 710.531 1408.2 715.531 1412.89 717.688L1410.67 720.812C1407.5 719.359 1405.23 716.453 1403.98 713.031C1402.7 716.797 1400.38 719.984 1397.08 721.531L1394.77 718.375C1399.52 716.156 1401.89 710.875 1401.92 706.188V704.438H1395.89V701.188H1411.64V704.438H1405.92V706.188ZM1417.86 698.438V709.281H1422.05V712.625H1417.86V726.875H1413.86V698.438H1417.86ZM1446.27 711.156V714.312H1438.02V720.375H1449.11V723.625H1423.08V720.375H1434.05V714.312H1426.14V700.438H1446.05V703.625H1430.14V711.156H1446.27ZM1466.36 723.406H1478.05V721.406H1466.36V723.406ZM1481.98 698.469V714.844H1478.02V698.469H1481.98ZM1458.14 710.406C1463.45 710.406 1470.36 710.406 1476.45 709.656L1476.64 712.469C1474.45 712.844 1472.2 713.094 1469.98 713.25V716.594H1466.36V718.406H1478.05V716H1481.98V726.562H1462.42V716H1466.02V713.469C1463.38 713.578 1460.86 713.594 1458.61 713.594L1458.14 710.406ZM1469.83 700.312C1469.83 702.719 1471.89 705 1476.3 705.844L1474.61 708.844C1471.36 708.188 1469.08 706.672 1467.83 704.625C1466.59 706.859 1464.28 708.547 1460.89 709.281L1459.14 706.25C1463.64 705.344 1465.7 702.906 1465.73 700.312V699.156H1469.83V700.312ZM1510.42 698.438V726.875H1506.67V698.438H1510.42ZM1504.36 699.062V725.625H1500.64V712.562H1495.98C1494.36 715.812 1491.72 718.625 1487.67 720.969L1485.42 718.156C1491.16 714.75 1493.69 710.609 1494.23 705.031H1486.98V701.812H1498.2C1498.19 704.516 1497.91 707.062 1497.23 709.406H1500.64V699.062H1504.36ZM1546.8 712.5V715.656H1536.08V720.562H1532.14V715.656H1520.77V712.5H1546.8ZM1543.45 699.688V710.156H1524.02V699.688H1543.45ZM1527.92 702.781V707.062H1539.55V702.781H1527.92ZM1543.92 723.188V726.375H1523.83V718.094H1527.8V723.188H1543.92ZM1557.67 700.344C1562.17 700.312 1565.55 703.25 1565.55 707.312C1565.55 711.406 1562.17 714.312 1557.67 714.312C1553.17 714.312 1549.77 711.406 1549.77 707.312C1549.77 703.25 1553.17 700.312 1557.67 700.344ZM1557.67 703.781C1555.42 703.781 1553.7 705.094 1553.73 707.312C1553.7 709.562 1555.42 710.844 1557.67 710.844C1559.92 710.844 1561.64 709.562 1561.67 707.312C1561.64 705.094 1559.95 703.781 1557.67 703.781ZM1572.36 698.438V726.938H1568.39V698.438H1572.36ZM1548.58 717.875C1553.64 717.906 1560.67 717.812 1566.77 716.969L1567.08 719.844C1560.77 721.062 1554.02 721.125 1549.05 721.125L1548.58 717.875ZM1605.92 698.438V709.344H1609.95V712.625H1605.92V726.812H1601.92V698.438H1605.92ZM1598.33 701.344C1598.3 709.844 1594.98 717.219 1585.42 721.906L1583.17 718.844C1589.91 715.469 1593.52 710.938 1594.27 704.594H1584.8V701.344H1598.33ZM1634.2 705.562V708.75H1614.42V698.875H1618.39V705.562H1634.2ZM1637.14 711.188V714.438H1611.14V711.188H1637.14ZM1624.08 716.219C1630.23 716.25 1633.95 718.156 1633.98 721.5C1633.95 724.875 1630.23 726.781 1624.08 726.781C1617.86 726.781 1614.11 724.875 1614.11 721.5C1614.11 718.156 1617.86 716.25 1624.08 716.219ZM1624.08 719.312C1620.14 719.344 1618.14 720 1618.17 721.5C1618.14 722.969 1620.14 723.75 1624.08 723.75C1627.92 723.75 1629.95 722.969 1629.98 721.5C1629.95 720 1627.92 719.344 1624.08 719.312ZM1307.86 763.375C1307.86 757.5 1309.67 752.625 1312.67 748.406H1317.08C1314.92 751.531 1312.67 757.781 1312.67 763.375C1312.67 769 1314.92 775.25 1317.08 778.375H1312.67C1309.67 774.156 1307.86 769.25 1307.86 763.375ZM1331.48 764.156C1337.7 764.156 1341.61 766.125 1341.64 769.531C1341.61 772.875 1337.7 774.875 1331.48 774.875C1325.33 774.875 1321.36 772.875 1321.36 769.531C1321.36 766.125 1325.33 764.156 1331.48 764.156ZM1331.48 767.125C1327.58 767.125 1325.33 767.938 1325.33 769.531C1325.33 771.062 1327.58 771.844 1331.48 771.844C1335.39 771.844 1337.67 771.062 1337.67 769.531C1337.67 767.938 1335.39 767.125 1331.48 767.125ZM1341.48 747.719V750.031C1341.48 752.281 1341.48 754.719 1340.67 757.656L1336.77 757.281C1337.39 754.703 1337.47 752.781 1337.52 750.844H1321.64V747.719H1341.48ZM1344.55 759.125V762.344H1318.73V759.125H1328.42V754.156H1332.36V759.125H1344.55ZM1370.92 749.281V752.406H1347.58V749.281H1357.3V746.406H1361.27V749.281H1370.92ZM1372.36 764.625V767.844H1366.33V774.906H1362.3V767.844H1356.36V774.906H1352.39V767.844H1346.33V764.625H1372.36ZM1359.3 753.562C1365.39 753.562 1369.08 755.25 1369.11 758.406C1369.08 761.531 1365.39 763.281 1359.3 763.281C1353.14 763.281 1349.45 761.531 1349.48 758.406C1349.45 755.25 1353.14 753.562 1359.3 753.562ZM1359.3 756.531C1355.48 756.531 1353.61 757.094 1353.61 758.406C1353.61 759.656 1355.48 760.281 1359.3 760.281C1363.05 760.281 1364.95 759.656 1364.95 758.406C1364.95 757.094 1363.05 756.531 1359.3 756.531ZM1382.08 747.281C1386.39 747.281 1389.67 749.969 1389.67 753.781C1389.67 757.531 1386.39 760.25 1382.08 760.25C1377.67 760.25 1374.42 757.531 1374.42 753.781C1374.42 749.969 1377.67 747.281 1382.08 747.281ZM1382.08 750.531C1379.89 750.531 1378.27 751.719 1378.3 753.781C1378.27 755.812 1379.89 757.031 1382.08 757.031C1384.23 757.031 1385.83 755.812 1385.83 753.781C1385.83 751.719 1384.23 750.531 1382.08 750.531ZM1397.8 746.438V760.688H1393.8V746.438H1397.8ZM1397.8 761.875V769.594H1382.67V771.438H1398.58V774.562H1378.77V766.688H1393.83V764.938H1378.7V761.875H1397.8ZM1435.02 760.5V763.656H1424.3V768.562H1420.36V763.656H1408.98V760.5H1435.02ZM1431.67 747.688V758.156H1412.23V747.688H1431.67ZM1416.14 750.781V755.062H1427.77V750.781H1416.14ZM1432.14 771.188V774.375H1412.05V766.094H1416.02V771.188H1432.14ZM1445.89 748.344C1450.39 748.312 1453.77 751.25 1453.77 755.312C1453.77 759.406 1450.39 762.312 1445.89 762.312C1441.39 762.312 1437.98 759.406 1437.98 755.312C1437.98 751.25 1441.39 748.312 1445.89 748.344ZM1445.89 751.781C1443.64 751.781 1441.92 753.094 1441.95 755.312C1441.92 757.562 1443.64 758.844 1445.89 758.844C1448.14 758.844 1449.86 757.562 1449.89 755.312C1449.86 753.094 1448.17 751.781 1445.89 751.781ZM1460.58 746.438V774.938H1456.61V746.438H1460.58ZM1436.8 765.875C1441.86 765.906 1448.89 765.812 1454.98 764.969L1455.3 767.844C1448.98 769.062 1442.23 769.125 1437.27 769.125L1436.8 765.875ZM1494.14 746.438V757.344H1498.17V760.625H1494.14V774.812H1490.14V746.438H1494.14ZM1486.55 749.344C1486.52 757.844 1483.2 765.219 1473.64 769.906L1471.39 766.844C1478.12 763.469 1481.73 758.938 1482.48 752.594H1473.02V749.344H1486.55ZM1522.42 753.562V756.75H1502.64V746.875H1506.61V753.562H1522.42ZM1525.36 759.188V762.438H1499.36V759.188H1525.36ZM1512.3 764.219C1518.45 764.25 1522.17 766.156 1522.2 769.5C1522.17 772.875 1518.45 774.781 1512.3 774.781C1506.08 774.781 1502.33 772.875 1502.33 769.5C1502.33 766.156 1506.08 764.25 1512.3 764.219ZM1512.3 767.312C1508.36 767.344 1506.36 768 1506.39 769.5C1506.36 770.969 1508.36 771.75 1512.3 771.75C1516.14 771.75 1518.17 770.969 1518.2 769.5C1518.17 768 1516.14 767.344 1512.3 767.312ZM1536.14 763.375C1536.14 769.25 1534.33 774.156 1531.33 778.375H1526.92C1529.08 775.25 1531.33 769 1531.33 763.375C1531.33 757.781 1529.08 751.531 1526.92 748.406H1531.33C1534.33 752.625 1536.14 757.5 1536.14 763.375Z" fill="#0A0A0A"/>
</svg>
