<svg width="1364" height="650" viewBox="0 0 1364 650" fill="none" xmlns="http://www.w3.org/2000/svg">
<path d="M750.009 35.8913C679.624 3.70925 605.378 -6.09408 536.791 3.53484C536.956 4.24164 537.131 4.9576 537.259 5.6644C606.992 -2.20213 666.718 45.814 668.663 113.345C668.874 120.615 668.433 128.105 667.241 135.788C658.765 190.459 593.82 225.523 559.008 265.168C517.299 312.679 480.836 377.53 463.572 438.479C456.968 461.804 452.886 513.537 444.144 529.399C431.237 552.824 367.604 499.126 358 464.337C358.303 469.835 358.725 475.159 359.88 480.924C384.849 538.908 429.632 586.291 485.688 614.627C503.466 623.614 522.353 630.691 542.121 635.565C677.9 674.273 818.816 632.976 900.144 537.522C890.035 547.243 876.248 554.173 858.563 556.413C840.033 558.754 824.411 555.146 811.927 547.739C759.861 516.842 762.695 419.616 839.73 410.263C851.903 408.785 862.764 409.85 872.331 412.778C918.829 427.005 933.956 486.367 910.647 524.424C922.902 508.186 933.552 490.479 942.285 471.359C1014.8 312.569 928.709 117.595 750.009 35.8913ZM809.065 337.132C803.836 376.805 757.595 411.116 744.157 450.449C734.617 478.372 739.515 498.474 735.598 523.946C732.03 547.16 704.557 558.387 683.321 551.144C647.693 538.982 668.553 483.677 615.744 485.844C563.549 487.982 583.5 548.565 536.324 551.135C478.405 554.293 495.742 469.964 506.63 436.313C530.609 362.201 611.973 237.676 695.512 226.34C765.842 216.794 818.467 265.774 809.065 337.142V337.132Z" fill="url(#paint0_linear_7643_54018)"/>
<path d="M7.72688 252.04L43.7269 246.28V332.36L57.3269 330.76V252.04L93.3269 246.28V326.76L106.927 325.16V252.04L142.927 246.28V334.12L119.247 336.68V376.84L80.5269 381.32V340.84L69.9669 341.96V376.84L31.2469 381.32V346.44L7.72688 349V252.04ZM242.192 342.44V372.04L158.352 381.32V252.04L186.832 246.76V252.2L213.552 246.76V252.2L241.232 246.6V273.16L194.352 278.44V298.12L239.472 293.32V322.12L194.352 327.24V347.56L242.192 342.44ZM264.526 271.72V262.6L254.446 263.72V235.24L284.206 231.72V272.04L264.526 274.28V271.72L272.206 270.92V288.2L255.246 290.12V272.84L264.526 271.72ZM299.602 381.32V252.04L328.082 246.76V252.2L360.562 246.76V252.2L393.202 246.76V324.36L381.522 325.64V340.84L394.802 339.4V375.56L358.802 379.72V346.28L345.522 347.88V329.64L335.602 330.76V377.16L299.602 381.32ZM357.202 299.24V276.04L335.602 278.44V301.8L357.202 299.24ZM492.817 342.44V372.04L408.977 381.32V252.04L437.457 246.76V252.2L464.177 246.76V252.2L491.857 246.6V273.16L444.977 278.44V298.12L490.097 293.32V322.12L444.977 327.24V347.56L492.817 342.44ZM573.102 264.84L591.182 262.76V285.96L613.262 283.4V260.52L631.502 258.44V252.04L667.502 246.28V377.32L631.502 381.32V288.2L620.462 289.48V377.32L584.462 381.32V293.32L573.102 294.6V377.32L537.102 381.32V252.04L573.102 246.28V264.84ZM745.443 374.44V330.12L718.883 333V377.32L682.883 381.32V266.44L695.523 265V252.04L724.003 246.76V252.2L750.723 246.76V252.2L781.443 246.76V370.28L745.443 374.44ZM745.443 300.52V276.84L718.883 279.72V303.56L745.443 300.52ZM833.571 295.72L856.611 293V252.04L892.611 246.28V296.04L860.291 299.56V318.12L892.131 314.44V377.32L856.131 381.32V326.44L833.571 329.16V377.32L797.571 381.32V252.04L833.571 246.28V295.72ZM991.254 342.44V372.04L907.414 381.32V252.04L935.894 246.76V252.2L962.614 246.76V252.2L990.294 246.6V273.16L943.414 278.44V298.12L988.534 293.32V322.12L943.414 327.24V347.56L991.254 342.44ZM1003.51 381.32V252.04L1031.99 246.76V252.2L1064.47 246.76V252.2L1097.11 246.76V324.36L1085.43 325.64V340.84L1098.71 339.4V375.56L1062.71 379.72V346.28L1049.43 347.88V329.64L1039.51 330.76V377.16L1003.51 381.32ZM1061.11 299.24V276.04L1039.51 278.44V301.8L1061.11 299.24ZM1206.03 297.32V277.48L1184.43 279.88V291.4L1148.43 295.4V263.24L1170.51 260.84V251.4L1212.75 246.76V257.48L1241.39 254.44V304.04L1218.35 306.6V317.48L1241.39 315.08V364.84L1214.51 367.72V376.68L1172.27 381.32V370.92L1148.43 373.64V343.24L1184.43 339.24V349.96L1205.39 347.56V328.04L1173.07 331.72V301L1206.03 297.32ZM1322.79 344.68L1322.95 275.4L1296.23 278.44V347.56L1322.79 344.68ZM1260.23 252.04L1288.71 246.76V252.2L1315.43 246.76V252.2L1343.11 246.6V259.56L1356.23 258.28L1356.07 352.52L1344.07 353.8V372.04L1260.23 381.32V252.04Z" fill="#28313A"/>
<defs>
<linearGradient id="paint0_linear_7643_54018" x1="358.009" y1="325.007" x2="1077.63" y2="325.007" gradientUnits="userSpaceOnUse">
<stop stop-color="#1480F9"/>
<stop offset="1" stop-color="#6CEA42"/>
</linearGradient>
</defs>
</svg>
