<svg width="21" height="21" viewBox="0 0 21 21" fill="none" xmlns="http://www.w3.org/2000/svg">
<path d="M10.5 0C12.3984 0 14.1543 0.399993 15.7676 1.19998C17.3809 1.99997 18.6562 3.08778 19.5938 4.46342C20.5312 5.83906 21 7.33956 21 8.96493C21 10.5903 20.5312 12.0929 19.5938 13.4728C18.6562 14.8527 17.3828 15.9426 15.7734 16.7426C14.1641 17.5426 12.4062 17.9426 10.5 17.9426C9.89844 17.9426 9.27734 17.896 8.63672 17.8029C5.85547 19.8938 4.375 20.952 4.19531 20.9774C4.10938 21.0113 4.02734 21.0071 3.94922 20.9647C3.91797 20.9393 3.89453 20.9055 3.87891 20.8631C3.86328 20.8208 3.85547 20.7827 3.85547 20.7489V20.6981C3.90234 20.3679 4.25781 18.9923 4.92188 16.5711C3.41406 15.7585 2.2168 14.6812 1.33008 13.3395C0.443359 11.9977 0 10.5395 0 8.96493C0 7.33956 0.46875 5.83906 1.40625 4.46342C2.34375 3.08778 3.61914 1.99997 5.23242 1.19998C6.8457 0.399993 8.60156 0 10.5 0Z" fill="#0A0A0A"/>
</svg>
