<svg width="186" height="20" viewBox="0 0 186 20" fill="none" xmlns="http://www.w3.org/2000/svg">
<path d="M28.1641 18.4815V1.67969H31.3132L39.0915 7.13241H39.2097L46.988 1.67969H50.1371V18.4815H46.3771V6.37969L41.0424 9.95242V18.4833H37.2824V9.95242L31.9241 6.37969V18.4815H28.1641Z" fill="white"/>
<path d="M51.6641 18.4815L59.2315 1.67969H65.0352L72.6026 18.4815H68.5134L66.9152 14.9324H57.3514L55.7532 18.4815H51.6641ZM58.7133 11.8779H65.5516L62.2842 4.61606H61.9788L58.7114 11.8779H58.7133Z" fill="white"/>
<path d="M74.125 18.4811V1.72656H77.8851V8.56474H83.4779L88.9998 1.72656H93.6762L86.767 10.092L93.6762 18.4811H88.9998L83.4542 11.6193H77.8851V18.4811H74.125Z" fill="white"/>
<path d="M95.2109 18.4815V1.67969H113.635V4.73424H98.971V8.44697H112.271V11.5015H98.971V15.4251H113.635V18.4797H95.2109V18.4815Z" fill="white"/>
<path d="M115.867 18.4815V1.67969H129.944C131.682 1.67969 133.035 2.11787 133.998 2.99605C134.962 3.87423 135.444 5.20515 135.444 6.9906C135.444 8.5106 135.091 9.70151 134.386 10.5633C133.68 11.4252 132.678 11.9651 131.378 12.1851L135.257 18.4833H130.98L127.384 12.3033H119.629V18.4833H115.869L115.867 18.4815ZM129.498 4.73424H119.629V9.22332L129.498 9.24696C130.187 9.24696 130.717 9.07424 131.084 8.7306C131.451 8.38697 131.637 7.80697 131.637 6.99242C131.637 6.17788 131.453 5.57787 131.084 5.24151C130.715 4.90515 130.187 4.73605 129.498 4.73605V4.73424Z" fill="white"/>
<path d="M144.836 18.4795V15.4249H157.762C158.356 15.4249 158.803 15.2577 159.102 14.9195C159.4 14.5831 159.549 14.1159 159.549 13.5213C159.549 12.9268 159.4 12.4322 159.102 12.0886C158.803 11.7449 158.358 11.5722 157.762 11.5722H147.045V8.5413H157.738C158.943 8.5413 159.547 7.90676 159.547 6.63767C159.547 5.36858 158.943 4.75767 157.738 4.75767H144.836V1.70312H158.442C160.071 1.70312 161.336 2.10677 162.236 2.91404C163.136 3.72131 163.587 4.84495 163.587 6.28677C163.587 7.0704 163.438 7.81039 163.14 8.50676C162.842 9.20312 162.349 9.71767 161.66 10.0468C162.349 10.3922 162.842 10.8958 163.14 11.5631C163.438 12.2286 163.587 12.9613 163.587 13.7595C163.587 15.1849 163.136 16.3286 162.236 17.1904C161.334 18.0522 160.071 18.4831 158.442 18.4831H144.836V18.4795Z" fill="white"/>
<path d="M165.586 18.4817V1.67989H168.359L175.879 1.65625C178.919 1.65625 181.275 2.36898 182.952 3.79443C184.628 5.21989 185.466 7.31262 185.466 10.069C185.466 12.8253 184.628 14.9181 182.952 16.3435C181.275 17.769 178.917 18.4817 175.879 18.4817H165.586ZM175.621 4.7108H169.346V15.4272H175.621C177.595 15.4272 179.09 14.9963 180.11 14.1344C181.128 13.2726 181.637 11.9181 181.637 10.069C181.637 8.21989 181.128 6.84535 180.11 5.99262C179.092 5.13807 177.595 4.71261 175.621 4.71261V4.7108Z" fill="white"/>
<path d="M12.035 1.10435C9.87417 0.114131 7.59473 -0.18751 5.48906 0.108764C5.49413 0.130512 5.49948 0.152542 5.50342 0.174289C7.6443 -0.0677577 9.47793 1.40966 9.53763 3.48754C9.54411 3.71122 9.53059 3.94169 9.49398 4.17809C9.23376 5.86027 7.23989 6.93918 6.17114 8.15901C4.89062 9.6209 3.77118 11.6163 3.24117 13.4917C3.0384 14.2093 2.91308 15.8011 2.6447 16.2892C2.24846 17.01 0.294856 15.3577 0 14.2873C0.00929347 14.4565 0.0222477 14.6203 0.0577318 14.7977C0.824302 16.5818 2.19917 18.0397 3.92015 18.9116C4.46593 19.1881 5.04579 19.4059 5.65268 19.5558C9.82122 20.7469 14.1475 19.4762 16.6443 16.5391C16.334 16.8382 15.9107 17.0515 15.3677 17.1204C14.7989 17.1924 14.3193 17.0814 13.936 16.8535C12.3375 15.9028 12.4245 12.9113 14.7896 12.6235C15.1633 12.578 15.4967 12.6108 15.7904 12.7009C17.218 13.1386 17.6824 14.9651 16.9668 16.1361C17.343 15.6365 17.67 15.0917 17.9381 14.5034C20.1643 9.61751 17.5213 3.6183 12.035 1.10435ZM13.8481 10.3733C13.6876 11.594 12.2679 12.6497 11.8554 13.86C11.5625 14.7191 11.7129 15.3377 11.5926 16.1214C11.4831 16.8357 10.6396 17.1811 9.98766 16.9583C8.89385 16.5841 9.53425 14.8824 7.91296 14.949C6.31054 15.0148 6.92307 16.8789 5.4747 16.958C3.69655 17.0552 4.22881 14.4604 4.56309 13.425C5.29925 11.1446 7.79722 7.31312 10.3619 6.96431C12.5211 6.67058 14.1368 8.17766 13.8481 10.3736V10.3733Z" fill="url(#paint0_linear_7513_75048)"/>
<defs>
<linearGradient id="paint0_linear_7513_75048" x1="0.00028162" y1="10.0002" x2="22.0934" y2="10.0002" gradientUnits="userSpaceOnUse">
<stop stop-color="#1480F9"/>
<stop offset="1" stop-color="#6CEA42"/>
</linearGradient>
</defs>
</svg>
