<svg width="1200" height="790" viewBox="0 0 1200 790" fill="none" xmlns="http://www.w3.org/2000/svg">
<path d="M314.855 10.1582C321.35 10.207 326.086 14.1133 326.086 19.7773C326.086 25.4414 321.35 29.3477 314.855 29.3477C308.264 29.3477 303.576 25.4414 303.576 19.7773C303.576 14.1133 308.264 10.207 314.855 10.1582ZM314.855 13.3809C310.51 13.3809 307.287 16.0176 307.336 19.7773C307.287 23.5859 310.51 26.2227 314.855 26.2227C319.152 26.2227 322.375 23.5859 322.375 19.7773C322.375 16.0176 319.152 13.3809 314.855 13.3809ZM338.391 8.54688V30.8613H334.582V8.54688H338.391ZM338.391 32.9609V43.4102H314.025V48.293H339.953V51.3691H310.266V40.5293H334.582V36.0371H310.168V32.9609H338.391ZM379.699 8.5957V21.7305H386.242V24.9531H379.699V40.4805H375.891V8.5957H379.699ZM381.701 47.8047V51.0273H352.551V37.3555H356.311V47.8047H381.701ZM351.379 11.7207V19.0449H364.025V11.7207H367.834V33.1562H347.619V11.7207H351.379ZM351.379 30.0312H364.025V22.0723H351.379V30.0312ZM441.711 26.6621V31.7402H424.816V34.1328H436.926V45.4609H412.512V47.3164H438V52.4434H405.578V40.7734H429.943V39.1133H405.578V34.1328H417.883V31.7402H401.086V26.6621H441.711ZM424.816 7.91211V11.2324H437.902V16.4082H425.891C427.307 18.459 431.433 20.2656 440.246 20.6074L438.195 25.7832C429.699 25.3926 424.133 23.3906 421.301 20.2656C418.469 23.3906 412.927 25.3926 404.357 25.7832L402.453 20.6074C411.169 20.2656 415.246 18.459 416.711 16.4082H404.748V11.2324H417.785V7.91211H424.816ZM465.734 10.4512V24.8555H452.795V28.957C458.923 28.9326 462.731 28.7129 467.053 27.8828L467.688 33.498C462.561 34.377 457.824 34.5234 449.279 34.5723H445.861V19.7285H458.703V15.9199H445.812V10.4512H465.734ZM482.092 7.91211V35.5488H475.109V29.1035H468.176V23.5859H475.109V19.5332H468.176V13.9668H475.109V7.91211H482.092ZM482.092 37.3555V52.6875H475.109V42.9707H450.988V37.3555H482.092ZM504.699 17.3848C504.699 25.9297 507.482 34.1328 515.246 37.4043L510.998 43.0195C506.115 40.6758 502.99 36.5498 501.184 31.3496C499.255 36.8916 495.983 41.4082 490.93 43.8496L486.535 38.0879C494.543 34.5234 497.521 25.8809 497.57 17.3848V11.1836H504.699V17.3848ZM525.354 7.86328V52.7852H518.42V27.248H510.217V21.584H518.42V7.86328H525.354ZM568.225 7.86328V52.7852H561.145V7.86328H568.225ZM539.758 11.3789V21.9746H548.205V11.3789H555.139V42.4336H532.678V11.3789H539.758ZM539.758 36.7207H548.205V27.3945H539.758V36.7207ZM597.766 13.5273C597.717 19.7773 602.6 26.8574 613.488 28.6641L610.412 34.4746C602.404 32.9609 596.887 28.7129 594.006 23.1953C591.101 28.6641 585.559 32.9365 577.6 34.4746L574.621 28.6641C585.266 26.8086 590.197 19.6797 590.246 13.5273V10.4023H597.766V13.5273ZM614.758 41.6035V47.3652H573.791V41.6035H614.758ZM630.676 11.3789C637.365 11.4277 642.199 15.5293 642.248 21.584C642.199 27.0283 638.293 30.9102 632.629 31.5938V39.0156C636.682 38.8203 640.759 38.5273 644.543 38.0391L644.787 40.9199C635.607 42.4824 625.305 42.5801 617.688 42.5312L617.053 39.3086C620.544 39.2842 624.597 39.2598 628.771 39.1133V31.5938C623.01 30.9346 619.055 27.0527 619.104 21.584C619.055 15.5293 623.889 11.4277 630.676 11.3789ZM630.676 14.6992C626.135 14.6992 622.814 17.5312 622.863 21.584C622.814 25.6367 626.135 28.4688 630.676 28.4688C635.168 28.4688 638.439 25.6367 638.488 21.584C638.439 17.5312 635.168 14.6992 630.676 14.6992ZM651.135 8.54688V26.4668H658.215V29.7871H651.135V51.9551H647.326V8.54688H651.135ZM687.805 22.707C687.805 29.6406 692.346 36.7695 698.645 39.7969L696.398 42.7754C691.613 40.4316 687.829 35.6953 686.047 30.0801C684.143 36.1104 680.114 41.1641 675.158 43.5566L672.961 40.5781C679.309 37.5996 684.045 30.1777 684.094 22.707V19.2402H674.133V16.1152H684.045V9.37695H687.902V16.1152H697.668V19.2402H687.805V22.707ZM706.945 8.54688V26.3691H714.221V29.6406H706.945V51.9551H703.137V8.54688H706.945ZM752.355 8.5957V41.5547H748.498V37.0625H739.514V34.2793H748.498V8.5957H752.355ZM753.43 47.8047V51.0273H722.57V38.332H726.428V47.8047H753.43ZM716.32 28.7129C724.426 28.6641 735.266 28.6152 744.592 27.4434L744.836 30.2266C740.954 30.8369 736.901 31.2275 732.922 31.4473V40.041H729.064V31.6426C724.67 31.8379 720.495 31.8623 716.857 31.8379L716.32 28.7129ZM730.578 10.3535C736.926 10.3535 741.271 13.3809 741.32 17.9219C741.271 22.5605 736.926 25.4414 730.578 25.4414C724.182 25.4414 719.836 22.5605 719.836 17.9219C719.836 13.3809 724.182 10.3535 730.578 10.3535ZM730.578 13.2832C726.33 13.2344 723.449 15.1387 723.498 17.9219C723.449 20.7539 726.33 22.6094 730.578 22.6094C734.68 22.6094 737.609 20.7539 737.658 17.9219C737.609 15.1387 734.68 13.2344 730.578 13.2832ZM795.568 8.54688V52.0527H791.711V8.54688H795.568ZM772.473 11.916C778.918 11.9648 783.557 17.8242 783.557 27.0527C783.557 36.2812 778.918 42.1406 772.473 42.1406C765.979 42.1406 761.389 36.2812 761.389 27.0527C761.389 17.8242 765.979 11.9648 772.473 11.916ZM772.473 15.334C768.127 15.3828 765.1 19.9727 765.1 27.0527C765.1 34.1328 768.127 38.7227 772.473 38.7227C776.818 38.7227 779.846 34.1328 779.846 27.0527C779.846 19.9727 776.818 15.3828 772.473 15.334ZM849.133 8.54688V25.7344H856.408V28.957H849.133V52.0527H845.324V8.54688H849.133ZM837.707 12.7949V15.9688H821.252V37.9414C829.113 37.9414 834.68 37.5752 841.125 36.3789L841.613 39.6992C834.826 40.9199 829.113 41.1641 820.861 41.1641H817.443V12.7949H837.707ZM898.449 32.6191V35.793H858.703V32.6191H898.449ZM894.25 47.8047V51.0273H863.977V39.2109H867.834V47.8047H894.25ZM893.322 10.0605V20.7539H867.688V25.5879H894.25V28.6152H863.879V17.873H889.465V13.1367H863.732V10.0605H893.322ZM300.764 86.4375H317.248L331.857 122.062H332.482L347.092 86.4375H363.576V143H350.607V107.844H350.139L336.389 142.688H327.951L314.201 107.688H313.732V143H300.764V86.4375ZM370.139 131.203C370.139 121.828 377.404 118.469 385.842 117.922C388.889 117.727 394.201 117.531 395.998 117.453V114.016C395.998 111.047 393.811 109.406 390.217 109.406C386.701 109.406 384.514 110.891 383.967 113.703H371.701C372.248 106.203 378.654 100.031 390.529 100.031C400.998 100.031 409.201 105.031 409.201 114.172V143H396.779V137.062H396.467C394.123 141.359 390.061 143.781 384.123 143.781C375.998 143.781 370.139 139.641 370.139 131.203ZM382.639 130.656C382.639 133.547 384.904 135.031 388.107 135.031C392.561 135.031 396.154 132.141 396.076 127.922V125.188C394.475 125.266 389.982 125.461 388.029 125.656C384.748 126.047 382.639 127.844 382.639 130.656ZM417.248 143V86.4375H430.451V115.969H430.998L443.264 100.578H458.264L443.029 119.016L458.889 143H443.654L433.264 126.75L430.451 130.031V143H417.248ZM480.998 143.781C467.717 143.781 459.592 135.5 459.592 121.984C459.592 108.859 467.795 100.031 480.529 100.031C492.404 100.031 500.998 107.609 500.998 121.672V125.031H472.561V125.266C472.561 130.734 475.92 134.25 481.232 134.25C484.826 134.25 487.482 132.688 488.576 130.188H500.842C499.279 138.469 492.014 143.781 480.998 143.781ZM472.561 117.297H488.732C488.654 112.766 485.373 109.562 480.842 109.562C476.154 109.562 472.756 112.883 472.561 117.297ZM507.795 143V100.578H520.607V108.234H520.998C522.561 102.688 526.311 99.9531 530.998 99.9531C532.248 99.9531 533.654 100.188 534.748 100.422V111.906C533.498 111.516 531.154 111.281 529.514 111.281C524.592 111.281 520.998 114.719 520.998 119.797V143H507.795ZM579.357 143.781C566.467 143.781 557.326 136.672 557.17 126.516H570.607C570.686 130.266 574.436 132.922 579.436 132.922C584.436 132.922 588.029 130.031 587.951 125.969C588.029 121.906 584.201 118.938 578.264 118.938H572.795V109.406H578.264C583.42 109.406 587.014 106.672 587.014 102.609C587.014 98.7812 583.967 96.0469 579.436 96.0469C574.826 96.0469 571.154 98.7031 571.076 102.688H558.264C558.42 92.6875 567.326 85.6562 579.514 85.6562C591.623 85.6562 599.904 92.6094 599.826 101.828C599.904 108.156 595.217 112.609 588.732 113.547V113.938C597.404 114.953 602.014 119.953 601.936 126.984C602.014 136.75 592.561 143.781 579.357 143.781ZM630.451 143H609.748V86.4375H630.451C647.717 86.4375 658.342 97.0625 658.342 114.719C658.342 132.375 647.717 143 630.451 143ZM623.029 131.594H629.982C639.67 131.594 644.982 126.984 644.982 114.719C644.982 102.453 639.67 97.7656 629.826 97.7656H623.029V131.594ZM685.617 107.502V127.473H665.549V107.502H685.617ZM669.309 110.627V124.396H681.906V110.627H669.309ZM697.629 103.547V116.779H704.172V120.002H697.629V135.383H693.82V103.547H697.629ZM699.631 142.805V146.027H670.48V132.355H674.24V142.805H699.631ZM721.115 106.721C727.951 106.721 732.785 110.871 732.785 116.926C732.785 122.98 727.951 127.131 721.115 127.131C714.279 127.131 709.348 122.98 709.396 116.926C709.348 110.871 714.279 106.721 721.115 106.721ZM721.115 110.09C716.477 110.09 713.107 112.873 713.156 116.926C713.107 120.979 716.477 123.762 721.115 123.762C725.705 123.762 729.025 120.979 729.025 116.926C729.025 112.873 725.705 110.09 721.115 110.09ZM742.502 103.547V147.053H738.693V103.547H742.502ZM707.15 134.211C715.158 134.211 726.193 134.162 735.812 132.746L736.105 135.578C726.193 137.434 715.5 137.482 707.688 137.482L707.15 134.211ZM825.236 78.7812V95.1094H834.533V104.25H825.236V119.953H813.986V78.7812H825.236ZM805.158 83.3125C805.158 102.766 793.439 116.125 771.955 121.984L767.502 112.922C782.736 109.016 791.174 101.398 792.814 92.2969H770.939V83.3125H805.158ZM801.564 120.812C816.252 120.812 826.018 126.594 826.018 135.656C826.018 144.875 816.252 150.578 801.564 150.578C786.955 150.578 777.033 144.875 777.033 135.656C777.033 126.594 786.955 120.812 801.564 120.812ZM801.564 129.484C793.049 129.484 788.127 131.672 788.205 135.656C788.127 139.719 793.049 141.906 801.564 141.906C810.002 141.906 814.846 139.719 814.924 135.656C814.846 131.672 810.002 129.484 801.564 129.484ZM897.971 78.7812V120.109H886.799V104.016H876.408V94.875H886.799V78.7812H897.971ZM897.971 122.844V149.719H849.377V122.844H897.971ZM860.705 131.672V140.734H887.033V131.672H860.705ZM878.674 82.1406V91.125H865.08C865.549 98.7031 870.119 106.75 881.096 110.422L875.627 119.25C867.736 116.711 862.463 111.75 859.377 105.578C856.213 112.414 850.705 117.805 842.424 120.422L836.643 111.594C848.205 108 852.932 99.4844 853.518 91.125H839.768V82.1406H878.674Z" fill="#0A0A0A"/>
<rect x="600" y="255" width="1" height="160" fill="#0A0A0A"/>
<rect y="508" width="380" height="282" rx="20" fill="#EAEAEA" fill-opacity="0.8"/>
<rect x="820" y="508" width="380" height="282" rx="20" fill="#EAEAEA" fill-opacity="0.8"/>
<rect x="410" y="508" width="380" height="282" rx="20" fill="#EAEAEA" fill-opacity="0.8"/>
<path d="M872.109 544.23V567.336H868.834V544.23H872.109ZM865.178 546.643C865.178 553.65 862.715 559.465 854.463 563.375L852.762 560.785C858.729 557.967 861.356 554.311 861.877 549.182H854.006V546.643H865.178ZM894.326 545.195V547.785H887.953C888.347 549.728 890.733 551.67 895.291 552.152L894.098 554.717C889.769 554.209 886.874 552.406 885.668 549.994C884.449 552.394 881.58 554.209 877.264 554.717L876.096 552.152C880.653 551.67 883.015 549.702 883.408 547.785H877.086V545.195H894.326ZM893.844 564.34V566.93H877.695V560.277H880.945V564.34H893.844ZM896.23 556.266V558.881H875.156V556.266H884.068V553.066H887.268V556.266H896.23ZM923.602 544.23V567.336H920.529V555.732H918.295V566.219H915.324V544.611H918.295V553.143H920.529V544.23H923.602ZM912.887 546.896V549.512H907.529V559.363C909.764 559.351 911.744 559.236 913.979 558.83L914.207 561.471C911.389 562.004 908.926 562.08 905.879 562.105H904.279V546.896H912.887ZM945.438 544.23V567.387H942.162V544.23H945.438ZM930.482 546.059V551.695H935.459V546.059H938.658V561.979H927.232V546.059H930.482ZM930.482 559.363H935.459V554.209H930.482V559.363ZM954.857 553.854L957.041 546.617H959.732L958.463 553.854H954.857ZM968.975 565.254C964.938 565.254 962.043 563.02 961.967 559.82H965.826C965.902 561.191 967.223 562.105 969 562.105C970.828 562.105 972.148 561.064 972.123 559.592C972.148 558.094 970.803 557.027 968.645 557.027H966.943V554.209H968.645C970.447 554.209 971.717 553.219 971.717 551.771C971.717 550.375 970.65 549.41 969.025 549.41C967.4 549.41 966.055 550.324 966.004 551.721H962.348C962.398 548.547 965.268 546.363 969.025 546.363C972.859 546.363 975.424 548.623 975.398 551.543C975.424 553.6 973.977 555.072 971.92 555.428V555.58C974.611 555.91 976.109 557.561 976.084 559.846C976.109 562.994 973.113 565.254 968.975 565.254ZM981.721 546.287V551.492H984.869V546.287H987.865V561.852H978.674V546.287H981.721ZM981.721 559.262H984.869V554.031H981.721V559.262ZM998.047 544.23V567.336H994.949V555.682H992.867V566.27H989.795V544.561H992.867V553.041H994.949V544.23H998.047ZM1003.71 546.617V553.574H1000.99V546.617H1003.71ZM1030.78 544.23V552.762H1033.11V555.453H1030.78V567.336H1027.58V544.23H1030.78ZM1014.45 546.312V551.67H1015.92V546.312H1018.56V562.004H1011.78V546.312H1014.45ZM1014.45 559.338H1015.92V554.234H1014.45V559.338ZM1022.12 546.312V551.67H1023.62V546.312H1026.26V562.004H1019.5V546.312H1022.12ZM1022.12 559.338H1023.62V554.234H1022.12V559.338ZM1055.2 556.723V559.312H1034.05V556.723H1055.2ZM1053.14 564.34V566.93H1036.72V560.582H1039.97V564.34H1053.14ZM1052.64 544.764V551.137H1039.92V552.787H1053.07V555.225H1036.69V548.826H1049.39V547.252H1036.64V544.764H1052.64ZM853.447 597L853.422 594.232L860.023 588.164C861.75 586.514 862.664 585.498 862.664 584.051C862.664 582.426 861.42 581.41 859.744 581.41C858.018 581.41 856.9 582.502 856.9 584.254H853.27C853.244 580.648 855.91 578.363 859.795 578.363C863.73 578.363 866.346 580.598 866.346 583.797C866.346 585.879 865.33 587.605 861.547 591.033L858.754 593.75V593.852H866.6V597H853.447ZM876.07 597.254C872.236 597.254 869.443 594.994 869.367 591.82H873.074C873.15 593.268 874.471 594.232 876.07 594.232C877.975 594.232 879.32 592.887 879.32 590.982C879.32 589.027 877.949 587.682 876.02 587.656C874.648 587.656 873.684 588.164 873.125 589.205H869.672L870.662 578.617H881.986V581.74H873.811L873.303 586.387H873.455C874.141 585.473 875.512 584.838 877.137 584.838C880.514 584.838 883.027 587.352 883.027 590.881C883.027 594.588 880.209 597.254 876.07 597.254ZM892.752 597.254C888.156 597.254 885.363 593.826 885.363 587.809C885.363 581.791 888.156 578.363 892.752 578.363C897.348 578.363 900.141 581.816 900.141 587.809C900.141 593.852 897.348 597.254 892.752 597.254ZM892.752 594.105C894.885 594.105 896.256 592.049 896.23 587.809C896.23 583.619 894.885 581.486 892.752 581.486C890.619 581.486 889.273 583.619 889.273 587.809C889.248 592.049 890.619 594.105 892.752 594.105ZM902.807 597V583.213H906.387V585.625H906.539C907.123 584.025 908.52 583.035 910.373 583.035C912.277 583.035 913.674 584.025 914.131 585.625H914.258C914.842 584.051 916.391 583.035 918.422 583.035C920.986 583.035 922.764 584.736 922.764 587.732V597H919.006V588.469C919.006 586.895 918.092 586.133 916.848 586.133C915.426 586.133 914.613 587.123 914.613 588.57V597H910.957V588.367C910.957 586.996 910.094 586.133 908.824 586.133C907.555 586.133 906.564 587.148 906.564 588.723V597H902.807ZM925.658 597V583.213H929.238V585.625H929.391C929.975 584.025 931.371 583.035 933.225 583.035C935.129 583.035 936.525 584.025 936.982 585.625H937.109C937.693 584.051 939.242 583.035 941.273 583.035C943.838 583.035 945.615 584.736 945.615 587.732V597H941.857V588.469C941.857 586.895 940.943 586.133 939.699 586.133C938.277 586.133 937.465 587.123 937.465 588.57V597H933.809V588.367C933.809 586.996 932.945 586.133 931.676 586.133C930.406 586.133 929.416 587.148 929.416 588.723V597H925.658ZM956.457 577.754L950.516 599.768H947.291L953.207 577.754H956.457ZM966.029 587.301C965.877 586.336 965.014 585.701 963.77 585.701C962.551 585.701 961.611 586.285 961.637 587.123C961.611 587.732 962.119 588.215 963.414 588.494L965.877 589.002C968.543 589.561 969.838 590.754 969.863 592.734C969.838 595.451 967.4 597.279 963.744 597.279C960.012 597.279 957.828 595.604 957.523 592.912H961.307C961.484 594.004 962.373 594.562 963.744 594.562C965.115 594.562 966.029 594.004 966.029 593.115C966.029 592.404 965.445 591.973 964.15 591.693L961.865 591.236C959.25 590.729 957.879 589.357 957.904 587.326C957.879 584.686 960.164 583.035 963.719 583.035C967.197 583.035 969.355 584.686 969.559 587.301H966.029ZM998.529 594.055V596.695H977.379V594.055H986.316V589.535H989.541V594.055H998.529ZM996.676 579.404V581.994H989.617C989.884 584.559 992.499 587.161 997.768 587.809L996.6 590.322C992.461 589.802 989.478 588.088 987.941 585.701C986.38 588.088 983.422 589.802 979.283 590.322L978.09 587.809C983.358 587.161 985.974 584.559 986.266 581.994H979.207V579.404H986.316V576.51H989.541V579.404H996.676ZM1018.89 578.236V580.42C1018.89 583.314 1018.89 586.564 1017.95 591.465L1014.7 591.135C1015.58 586.768 1015.62 583.518 1015.64 580.801H1002.03V578.236H1018.89ZM1020.92 593.877V596.518H999.85V593.877H1007.39V585.93H1010.62V593.877H1020.92ZM1043.39 587.479V590.068H1022.32V587.479H1031.23V584.406H1034.43V587.479H1043.39ZM1034.48 577.373C1034.48 580.064 1037.07 582.629 1042.28 583.264L1041.03 585.777C1037.14 585.193 1034.27 583.556 1032.81 581.232C1031.32 583.556 1028.45 585.206 1024.55 585.777L1023.41 583.264C1028.52 582.629 1031.18 579.988 1031.18 577.373V576.611H1034.48V577.373ZM1040.83 591.693V599.336H1037.61V594.207H1024.66V591.693H1040.83ZM1071.81 586.082V588.443H1062.92V589.891H1069.29V595.527H1056.42V596.797H1069.9V599.184H1053.25V593.344H1066.09V592.201H1053.22V589.891H1059.7V588.443H1050.83V586.082H1071.81ZM1062.89 576.205V578.033H1069.83V580.42H1063.3C1063.94 581.766 1066.3 582.87 1070.97 583.061L1070.03 585.447C1065.74 585.244 1062.77 584.152 1061.29 582.4C1059.83 584.152 1056.85 585.244 1052.54 585.447L1051.65 583.061C1056.28 582.87 1058.63 581.766 1059.29 580.42H1052.81V578.033H1059.7V576.205H1062.89ZM1084.35 577.576V584.787H1077.37V587.25C1080.81 587.25 1082.84 587.136 1085.19 586.691L1085.49 589.281C1082.8 589.764 1080.36 589.84 1075.89 589.84H1074.17V582.375H1081.1V580.115H1074.12V577.576H1084.35ZM1092.73 576.256V590.475H1089.5V586.92H1085.67V584.355H1089.5V582.02H1085.67V579.455H1089.5V576.256H1092.73ZM1092.73 591.516V599.336H1089.5V594.105H1076.81V591.516H1092.73Z" fill="#0A0A0A"/>
<path d="M462.16 544.256V561.852H458.936V557.484H455.812V554.92H458.936V552.609H455.812V549.994H458.936V544.256H462.16ZM455.584 546.668V549.232H442.736V546.668H447.713V544.205H450.938V546.668H455.584ZM449.287 550.045C452.461 550.045 454.746 551.924 454.771 554.59C454.746 557.256 452.461 559.109 449.287 559.109C446.139 559.109 443.854 557.256 443.879 554.59C443.854 551.924 446.139 550.045 449.287 550.045ZM449.287 552.559C447.865 552.584 446.875 553.295 446.9 554.59C446.875 555.91 447.865 556.646 449.287 556.646C450.684 556.646 451.699 555.91 451.725 554.59C451.699 553.295 450.684 552.584 449.287 552.559ZM462.643 564.34V566.93H446.773V560.354H450.049V564.34H462.643ZM484.631 558.932V567.336H481.406V561.471H468.762V558.932H484.631ZM484.631 544.23V557.891H481.406V554.971H476.227C475.122 556.164 473.484 556.875 471.605 556.875C468.102 556.875 465.436 554.463 465.461 551.111C465.436 547.836 468.102 545.449 471.605 545.475C473.484 545.462 475.122 546.16 476.227 547.328H481.406V544.23H484.631ZM471.605 548.191C469.803 548.191 468.508 549.309 468.533 551.111C468.508 553.016 469.803 554.107 471.605 554.107C473.307 554.107 474.627 553.016 474.627 551.111C474.627 549.309 473.307 548.191 471.605 548.191ZM477.572 552.381H481.406V549.943H477.598C477.661 550.312 477.699 550.705 477.699 551.111C477.699 551.556 477.648 551.975 477.572 552.381ZM501.186 565.254C497.148 565.254 494.254 563.02 494.178 559.82H498.037C498.113 561.191 499.434 562.105 501.211 562.105C503.039 562.105 504.359 561.064 504.334 559.592C504.359 558.094 503.014 557.027 500.855 557.027H499.154V554.209H500.855C502.658 554.209 503.928 553.219 503.928 551.771C503.928 550.375 502.861 549.41 501.236 549.41C499.611 549.41 498.266 550.324 498.215 551.721H494.559C494.609 548.547 497.479 546.363 501.236 546.363C505.07 546.363 507.635 548.623 507.609 551.543C507.635 553.6 506.188 555.072 504.131 555.428V555.58C506.822 555.91 508.32 557.561 508.295 559.846C508.32 562.994 505.324 565.254 501.186 565.254ZM517.562 565H511.088V546.617H517.639C523.174 546.617 526.551 550.07 526.551 555.783C526.551 561.547 523.174 565 517.562 565ZM514.896 561.725H517.41C520.914 561.725 522.742 559.896 522.742 555.783C522.742 551.695 520.914 549.893 517.436 549.893H514.896V561.725ZM549.605 561.953V564.645H528.455V561.953H549.605ZM547.828 546.262V548.852H544.578V555.859H547.727V558.398H530.207V555.859H533.305V548.852H530.105V546.262H547.828ZM536.555 555.859H541.379V548.852H536.555V555.859ZM570.248 544.256V561.268H567.023V544.256H570.248ZM570.857 564.34V566.93H554.709V559.846H557.934V564.34H570.857ZM562.834 545.754V553.117H555.318V555.682C559.444 555.669 562.085 555.555 565.068 554.971L565.424 557.561C562.072 558.195 559.076 558.322 554.176 558.322H552.145V550.73H559.609V548.344H552.119V545.754H562.834ZM585.863 545.83V548.42H577.916V550.223H585.178V552.736H577.916V554.59C581.979 554.59 584.556 554.539 587.488 554.057L587.818 556.596C584.518 557.129 581.598 557.205 576.646 557.18H574.666V545.83H585.863ZM592.744 544.256V558.246H589.494V544.256H592.744ZM584.873 558.551C589.748 558.551 592.846 560.176 592.871 562.943C592.846 565.736 589.748 567.336 584.873 567.336C579.922 567.336 576.926 565.736 576.926 562.943C576.926 560.176 579.922 558.551 584.873 558.551ZM584.873 561.064C581.775 561.064 580.15 561.699 580.15 562.943C580.15 564.213 581.775 564.873 584.873 564.873C587.945 564.873 589.621 564.213 589.621 562.943C589.621 561.699 587.945 561.064 584.873 561.064ZM621.334 544.256V561.115H618.109V552.838H614.326V550.223H618.109V544.256H621.334ZM621.893 564.34V566.93H605.998V559.643H609.248V564.34H621.893ZM610.594 548.775C610.594 551.441 612.219 554.311 615.9 555.504L614.301 558.068C611.736 557.243 609.984 555.555 608.969 553.447C607.953 555.783 606.112 557.637 603.383 558.551L601.732 555.91C605.541 554.717 607.268 551.695 607.293 548.75V548.395H602.646V545.805H615.189V548.395H610.594V548.775ZM645.455 555.656V558.221H636.746V562.207H633.547V558.221H624.305V555.656H645.455ZM642.738 545.246V553.752H626.945V545.246H642.738ZM630.119 547.76V551.238H639.564V547.76H630.119ZM643.119 564.34V566.93H626.793V560.201H630.018V564.34H643.119ZM665.031 544.23V553.092H668.307V555.758H665.031V567.285H661.781V544.23H665.031ZM658.861 546.592C658.836 553.498 656.145 559.49 648.375 563.299L646.547 560.811C652.019 558.068 654.951 554.387 655.561 549.232H647.867V546.592H658.861ZM461.018 576.23V582.146H464.141V584.838H461.018V590.906H457.768V576.23H461.018ZM453.477 591.109C458.225 591.109 461.271 592.658 461.271 595.248C461.271 597.787 458.225 599.336 453.477 599.336C448.627 599.336 445.631 597.787 445.656 595.248C445.631 592.658 448.627 591.109 453.477 591.109ZM453.477 593.572C450.455 593.572 448.83 594.105 448.855 595.248C448.83 596.34 450.455 596.924 453.477 596.924C456.422 596.924 458.021 596.34 458.021 595.248C458.021 594.105 456.422 593.572 453.477 593.572ZM456.396 578.439V580.953H442.686V578.439H447.941V576.104H451.166V578.439H456.396ZM449.541 581.74C452.893 581.74 455.229 583.441 455.229 585.904C455.229 588.393 452.893 590.043 449.541 590.043C446.139 590.043 443.803 588.393 443.803 585.904C443.803 583.441 446.139 581.74 449.541 581.74ZM449.541 584.102C447.992 584.102 446.951 584.736 446.977 585.904C446.951 587.047 447.992 587.656 449.541 587.631C451.09 587.656 452.156 587.047 452.156 585.904C452.156 584.736 451.09 584.102 449.541 584.102ZM474.145 581.461C474.145 585.701 476.074 589.967 479.984 591.617L478.08 594.207C475.439 593.014 473.611 590.716 472.57 587.859C471.517 590.97 469.625 593.483 466.807 594.766L464.852 592.074C468.889 590.373 470.844 585.955 470.869 581.461V578.008H474.145V581.461ZM484.504 576.23V599.387H481.229V576.23H484.504ZM513.602 576.23V599.336H510.529V587.732H508.295V598.219H505.324V576.611H508.295V585.143H510.529V576.23H513.602ZM502.887 578.896V581.512H497.529V591.363C499.764 591.351 501.744 591.236 503.979 590.83L504.207 593.471C501.389 594.004 498.926 594.08 495.879 594.105H494.279V578.896H502.887ZM535.514 576.23V599.336H532.238V576.23H535.514ZM528.582 578.643C528.582 585.65 526.119 591.465 517.867 595.375L516.166 592.785C522.133 589.967 524.761 586.311 525.281 581.182H517.41V578.643H528.582Z" fill="#0A0A0A"/>
<path d="M37.2031 676.613C37.2031 679.127 38.4863 681.693 40.6133 682.836L39.8223 683.873C38.2666 683.029 37.1416 681.412 36.5703 679.531C36.0078 681.535 34.8916 683.275 33.3359 684.225L32.5098 683.17C34.6367 681.939 35.8848 679.197 35.9023 676.613V675.84H32.9316V674.697H35.9023V672.377H37.2207V674.697H40.1387V675.84H37.2031V676.613ZM45.9922 671.797V687.424H44.6738V671.797H45.9922ZM42.8281 672.184V686.615H41.5273V679.145H39.0664V677.967H41.5273V672.184H42.8281ZM61.5664 671.797V687.424H60.248V671.797H61.5664ZM58.4023 672.219V686.633H57.084V681.219H54.1836V680.076H57.084V677.299H54.4473C53.6826 679.944 51.9688 682.282 49.0156 684.049L48.1719 683.047C51.5732 681.034 53.2783 678.213 53.5508 674.943H48.875V673.801H54.9219C54.9219 674.601 54.8516 675.392 54.7109 676.156H57.084V672.219H58.4023ZM69.1777 674.68C69.1777 676.719 70.7422 678.652 73.0273 679.443L72.3066 680.533C70.54 679.9 69.1777 678.591 68.5098 676.982C67.833 678.784 66.3916 680.226 64.5371 680.902L63.8164 679.812C66.1191 678.986 67.7891 676.895 67.7891 674.697V674.012H64.2559V672.887H72.6758V674.012H69.1777V674.68ZM76.7012 681.992V687.424H75.3125V683.135H66.1895V681.992H76.7012ZM76.7012 671.797V681.166H75.3125V677.053H72.1836V675.893H75.3125V671.797H76.7012ZM92.2051 671.814V683.24H90.834V671.814H92.2051ZM92.6973 685.93V687.09H82.1152V682.08H83.4863V685.93H92.6973ZM83.7676 672.904C86.1055 672.904 87.8633 674.486 87.8633 676.736C87.8633 679.021 86.1055 680.586 83.7676 680.586C81.4297 680.586 79.6719 679.021 79.6719 676.736C79.6719 674.486 81.4297 672.904 83.7676 672.904ZM83.7676 674.117C82.1855 674.117 81.0078 675.207 81.0254 676.736C81.0078 678.301 82.1855 679.373 83.7676 679.373C85.3145 679.373 86.5098 678.301 86.5098 676.736C86.5098 675.207 85.3145 674.117 83.7676 674.117ZM104.598 674.328C104.598 676.455 106.215 678.406 108.482 679.18L107.727 680.27C105.995 679.637 104.633 678.345 103.947 676.719C103.279 678.556 101.891 680.006 100.062 680.709L99.3242 679.602C101.662 678.723 103.227 676.631 103.244 674.223V672.605H104.598V674.328ZM111.594 671.797V675.875H113.949V677.035H111.594V681.307H110.223V671.797H111.594ZM106.584 681.711C109.801 681.711 111.734 682.748 111.734 684.541C111.734 686.369 109.801 687.389 106.584 687.389C103.367 687.389 101.398 686.369 101.398 684.541C101.398 682.748 103.367 681.711 106.584 681.711ZM106.584 682.818C104.229 682.818 102.77 683.469 102.787 684.541C102.77 685.648 104.229 686.281 106.584 686.299C108.957 686.281 110.398 685.648 110.398 684.541C110.398 683.469 108.957 682.818 106.584 682.818ZM127.15 671.797V675.629H129.506V676.789H127.15V680.674H125.779V671.797H127.15ZM122.598 672.869V673.994H117.043V678.6C120.181 678.617 121.965 678.503 124.057 678.09L124.232 679.215C122.035 679.654 120.172 679.742 116.885 679.742H115.672V672.869H122.598ZM127.15 681.482V687.213H117.289V681.482H127.15ZM118.643 682.607V686.088H125.779V682.607H118.643ZM137.609 672.078C141.09 672.078 143.129 673.027 143.129 674.768C143.129 676.543 141.09 677.492 137.609 677.51C134.129 677.492 132.072 676.543 132.072 674.768C132.072 673.027 134.129 672.078 137.609 672.078ZM137.609 673.115C135.008 673.115 133.496 673.748 133.514 674.768C133.496 675.857 135.008 676.455 137.609 676.455C140.193 676.455 141.723 675.857 141.723 674.768C141.723 673.748 140.193 673.115 137.609 673.115ZM144.729 678.564V679.689H130.49V678.564H144.729ZM142.9 681.043V684.541H133.619V686.158H143.375V687.248H132.248V683.521H141.547V682.098H132.213V681.043H142.9ZM164.803 680.094V681.219H150.547V680.094H156.98V678.547H152.445V672.254H163.027V673.379H153.834V674.838H162.605V675.893H153.834V677.439H163.115V678.547H158.352V680.094H164.803ZM157.684 682.396C161.111 682.379 163.045 683.258 163.062 684.893C163.045 686.527 161.111 687.389 157.684 687.389C154.221 687.389 152.287 686.527 152.287 684.893C152.287 683.258 154.221 682.379 157.684 682.396ZM157.684 683.434C155.1 683.434 153.658 683.961 153.676 684.893C153.658 685.842 155.1 686.334 157.684 686.316C160.232 686.334 161.674 685.842 161.674 684.893C161.674 683.961 160.232 683.434 157.684 683.434ZM173.926 674.504V675.629H166.086V674.504H169.338V672.271H170.709V674.504H173.926ZM170.006 676.684C171.975 676.684 173.381 678.16 173.398 680.234C173.381 682.326 171.975 683.82 170.006 683.82C168.055 683.82 166.648 682.326 166.648 680.234C166.648 678.16 168.055 676.684 170.006 676.684ZM170.006 677.844C168.775 677.861 167.879 678.863 167.879 680.234C167.879 681.623 168.775 682.625 170.006 682.607C171.254 682.625 172.168 681.623 172.168 680.234C172.168 678.863 171.254 677.861 170.006 677.844ZM179.428 671.797V687.424H178.109V679.531H176.035V686.65H174.734V672.184H176.035V678.389H178.109V671.797H179.428ZM198.43 671.797V675.875H200.768V677.035H198.43V681.131H197.041V671.797H198.43ZM193.402 681.43C196.584 681.43 198.553 682.537 198.553 684.4C198.553 686.299 196.584 687.389 193.402 687.389C190.203 687.389 188.217 686.299 188.217 684.4C188.217 682.537 190.203 681.43 193.402 681.43ZM193.402 682.572C191.047 682.555 189.57 683.258 189.57 684.4C189.57 685.561 191.047 686.281 193.402 686.281C195.74 686.281 197.217 685.561 197.217 684.4C197.217 683.258 195.74 682.555 193.402 682.572ZM193.859 672.992V674.135H188.27V678.723C191.434 678.705 193.262 678.608 195.354 678.178L195.494 679.32C193.314 679.76 191.434 679.848 188.129 679.848H186.916V672.992H193.859ZM214.654 671.814V683.275H213.283V671.814H214.654ZM215.146 685.93V687.09H204.564V682.221H205.936V685.93H215.146ZM207.289 674.258C207.271 676.631 208.906 678.775 211.227 679.619L210.506 680.727C208.695 680.032 207.289 678.626 206.604 676.824C205.909 678.74 204.485 680.278 202.666 681.008L201.91 679.936C204.283 679.021 205.883 676.719 205.883 674.258V672.693H207.289V674.258ZM222.424 672.939C224.885 672.939 226.625 674.434 226.625 676.613C226.625 678.793 224.885 680.287 222.424 680.287C219.963 680.287 218.188 678.793 218.205 676.613C218.188 674.434 219.963 672.939 222.424 672.939ZM222.424 674.152C220.754 674.152 219.541 675.154 219.559 676.613C219.541 678.072 220.754 679.074 222.424 679.074C224.076 679.074 225.271 678.072 225.271 676.613C225.271 675.154 224.076 674.152 222.424 674.152ZM230.123 671.797V687.459H228.752V671.797H230.123ZM217.396 682.836C220.279 682.836 224.252 682.818 227.715 682.309L227.82 683.328C224.252 683.996 220.402 684.014 217.59 684.014L217.396 682.836ZM241.566 673.01C243.869 673.027 245.504 675.137 245.521 678.459C245.504 681.781 243.869 683.891 241.566 683.891C239.246 683.891 237.629 681.781 237.629 678.459C237.629 675.137 239.246 673.027 241.566 673.01ZM241.566 674.24C240.02 674.258 238.93 675.91 238.93 678.459C238.93 681.008 240.02 682.66 241.566 682.66C243.131 682.66 244.186 681.008 244.186 678.459C244.186 675.91 243.131 674.258 241.566 674.24ZM249.477 671.797V678.037H252.096V679.232H249.477V687.424H248.105V671.797H249.477ZM265.824 671.797V687.459H264.436V671.797H265.824ZM257.51 673.01C259.83 673.027 261.5 675.137 261.5 678.459C261.5 681.781 259.83 683.891 257.51 683.891C255.172 683.891 253.52 681.781 253.52 678.459C253.52 675.137 255.172 673.027 257.51 673.01ZM257.51 674.24C255.945 674.258 254.855 675.91 254.855 678.459C254.855 681.008 255.945 682.66 257.51 682.66C259.074 682.66 260.164 681.008 260.164 678.459C260.164 675.91 259.074 674.258 257.51 674.24ZM281.381 671.797V687.459H279.992V671.797H281.381ZM276.951 673.291V674.451H270.904V682.379C273.945 682.379 275.949 682.282 278.287 681.869L278.428 683.029C276.002 683.469 273.945 683.557 270.781 683.574H269.516V673.291H276.951ZM288.254 673.01C290.381 673.027 291.91 674.847 292.139 677.773H295.637V671.797H297.008V687.459H295.637V678.916H292.156C291.989 681.975 290.434 683.891 288.254 683.891C285.951 683.891 284.334 681.781 284.334 678.459C284.334 675.137 285.951 673.027 288.254 673.01ZM288.254 674.24C286.707 674.258 285.652 675.91 285.652 678.459C285.652 681.008 286.707 682.66 288.254 682.66C289.783 682.66 290.855 681.008 290.855 678.459C290.855 675.91 289.783 674.258 288.254 674.24ZM313.9 679.057V680.146H299.592V679.057H313.9ZM312.107 681.395V684.717H302.721V686.211H312.617V687.213H301.332V683.768H310.736V682.432H301.314V681.395H312.107ZM312.055 672.271V675.506H302.826V676.877H312.336V677.879H301.455V674.557H310.666V673.273H301.402V672.271H312.055ZM45.5352 695.814V707.275H44.1641V695.814H45.5352ZM46.0273 709.93V711.09H35.4453V706.221H36.8164V709.93H46.0273ZM38.1699 698.258C38.1523 700.631 39.7871 702.775 42.1074 703.619L41.3867 704.727C39.5762 704.032 38.1699 702.626 37.4844 700.824C36.79 702.74 35.3662 704.278 33.5469 705.008L32.791 703.936C35.1641 703.021 36.7637 700.719 36.7637 698.258V696.693H38.1699V698.258ZM62.4805 703.654V704.797H48.1895V703.654H54.623V701.246H55.9766V703.654H62.4805ZM55.9941 696.781C55.9941 698.855 58.8066 700.596 61.5664 700.982L61.0039 702.09C58.6309 701.677 56.2842 700.42 55.3086 698.609C54.3242 700.429 51.9688 701.677 49.5781 702.09L49.0508 700.982C51.8105 700.596 54.6055 698.855 54.6055 696.781V696.043H55.9941V696.781ZM60.6699 706.326V711.424H59.2812V707.434H49.7715V706.326H60.6699ZM68.8613 696.676L64.748 711.916H63.377L67.4727 696.676H68.8613ZM82.7129 695.797V705.113H81.3242V701.018H78.1777V699.875H81.3242V695.797H82.7129ZM77.5273 705.605C80.7793 705.605 82.7656 706.66 82.7656 708.506C82.7656 710.352 80.7793 711.406 77.5273 711.424C74.2754 711.406 72.2891 710.352 72.2891 708.506C72.2891 706.66 74.2754 705.605 77.5273 705.605ZM77.5273 706.678C75.1367 706.678 73.6426 707.363 73.6602 708.506C73.6426 709.631 75.1367 710.316 77.5273 710.316C79.918 710.316 81.3945 709.631 81.3945 708.506C81.3945 707.363 79.918 706.678 77.5273 706.678ZM75.1895 698.662C75.1895 700.701 76.7539 702.635 79.0391 703.426L78.3184 704.533C76.5605 703.9 75.1982 702.591 74.5391 700.965C73.8535 702.802 72.4033 704.27 70.5488 704.973L69.8281 703.865C72.1484 703.021 73.8008 700.912 73.8008 698.68V698.1H70.2676V696.939H78.6875V698.1H75.1895V698.662ZM97.5137 695.814V700.543H99.8516V701.703H97.5137V706.291H96.125V695.814H97.5137ZM85.2441 704.691C86.4922 704.691 87.9512 704.691 89.4805 704.639V703.496C87.6611 703.338 86.4922 702.485 86.4922 701.193C86.4922 699.77 87.9512 698.891 90.1484 698.891C92.3633 698.891 93.8047 699.77 93.8223 701.193C93.8047 702.477 92.6621 703.329 90.8516 703.496V704.586C92.3105 704.516 93.7871 704.401 95.1582 704.199L95.2812 705.201C91.8887 705.799 88.1445 705.816 85.4023 705.816L85.2441 704.691ZM97.5137 707.064V711.424H96.125V708.172H87.1602V707.064H97.5137ZM94.6836 697.238V698.293H85.6309V697.238H89.4805V695.674H90.8516V697.238H94.6836ZM90.1484 699.875C88.707 699.857 87.8105 700.367 87.8105 701.193C87.8105 702.002 88.707 702.564 90.1484 702.547C91.5898 702.564 92.5039 702.002 92.5039 701.193C92.5039 700.367 91.5898 699.857 90.1484 699.875ZM112.965 695.797V702.248H115.584V703.391H112.965V711.424H111.594V695.797H112.965ZM110.082 698.311V699.453H100.783V698.311H104.809V695.99H106.18V698.311H110.082ZM105.512 700.754C107.727 700.754 109.326 702.23 109.344 704.34C109.326 706.449 107.727 707.926 105.512 707.926C103.279 707.926 101.662 706.449 101.68 704.34C101.662 702.23 103.279 700.754 105.512 700.754ZM105.512 701.914C104.053 701.914 102.98 702.934 102.998 704.34C102.98 705.764 104.053 706.766 105.512 706.748C106.953 706.766 108.008 705.764 108.025 704.34C108.008 702.934 106.953 701.914 105.512 701.914ZM129.805 695.797V711.424H128.486V695.797H129.805ZM126.518 696.219V710.633H125.199V703.338H121.895C120.937 705.157 119.434 706.766 117.254 708.049L116.445 707.047C119.847 705.034 121.552 702.213 121.807 698.943H117.113V697.801H123.178C123.169 699.339 122.923 700.824 122.404 702.213H125.199V696.219H126.518ZM144.395 697.221V704.41H137.17V697.221H144.395ZM138.523 698.346V703.303H143.059V698.346H138.523ZM148.719 695.797V700.561H151.074V701.721H148.719V707.258H147.348V695.797H148.719ZM149.439 709.93V711.09H138.945V706.168H140.299V709.93H149.439ZM166.314 702.371V703.479H152.059V702.371H166.314ZM164.609 699.963V701.088H153.957V696.342H164.451V697.449H155.346V699.963H164.609ZM164.469 704.885V708.506H155.188V710.123H164.943V711.248H153.816V707.469H163.115V705.957H153.781V704.885H164.469ZM171.816 697.01C173.943 697.027 175.473 698.847 175.701 701.773H179.199V695.797H180.57V711.459H179.199V702.916H175.719C175.552 705.975 173.996 707.891 171.816 707.891C169.514 707.891 167.896 705.781 167.896 702.459C167.896 699.137 169.514 697.027 171.816 697.01ZM171.816 698.24C170.27 698.258 169.215 699.91 169.215 702.459C169.215 705.008 170.27 706.66 171.816 706.66C173.346 706.66 174.418 705.008 174.418 702.459C174.418 699.91 173.346 698.258 171.816 698.24ZM200.311 703.32V704.463H189.518V697.256H200.152V698.398H190.889V703.32H200.311ZM201.998 708.137V709.297H187.689V708.137H201.998ZM216.148 695.814V704.393H214.777V695.814H216.148ZM211.174 696.57V700.789H205.408V702.916C208.203 702.898 210.295 702.846 212.826 702.424L212.984 703.566C210.365 703.988 208.221 704.059 205.338 704.076H204.072V699.699H209.803V697.713H204.037V696.57H211.174ZM207.377 705.184V707.047H214.777V705.184H216.148V711.213H205.988V705.184H207.377ZM207.377 710.088H214.777V708.154H207.377V710.088ZM231.688 695.797V711.424H230.316V695.797H231.688ZM221.176 697.344V706.203C223.558 706.194 226.027 706.001 228.646 705.447L228.84 706.625C226.062 707.205 223.584 707.398 221.088 707.398H219.822V697.344H221.176ZM246.453 695.797V701.984H249.072V703.145H246.453V711.459H245.082V695.797H246.453ZM242.34 697.326V698.469H236.416V706.379C239.246 706.379 241.25 706.247 243.57 705.816L243.746 707.012C241.303 707.451 239.246 707.539 236.275 707.539H235.045V697.326H242.34ZM251.568 710.105C250.953 710.105 250.426 709.596 250.443 708.963C250.426 708.348 250.953 707.838 251.568 707.838C252.184 707.838 252.693 708.348 252.693 708.963C252.693 709.596 252.184 710.105 251.568 710.105Z" fill="#0A0A0A"/>
<path d="M447.59 686.176C445.059 686.176 443.248 684.822 443.16 682.801H444.76C444.848 684.014 446.061 684.77 447.572 684.77C449.242 684.77 450.473 683.855 450.473 682.537C450.473 681.148 449.365 680.164 447.379 680.164H446.342V678.775H447.379C448.926 678.775 449.998 677.914 449.998 676.596C449.998 675.33 449.066 674.469 447.625 674.469C446.271 674.469 445.023 675.225 444.953 676.473H443.424C443.512 674.451 445.375 673.098 447.643 673.098C450.068 673.098 451.545 674.68 451.527 676.508C451.545 677.949 450.701 679.021 449.365 679.391V679.479C451.018 679.742 452.037 680.92 452.02 682.537C452.037 684.629 450.121 686.176 447.59 686.176ZM458.471 686H454.516V673.273H458.629C462.338 673.273 464.535 675.664 464.535 679.619C464.535 683.592 462.338 686 458.471 686ZM456.098 684.594H458.365C461.494 684.594 462.988 682.713 462.988 679.619C462.988 676.543 461.494 674.68 458.523 674.68H456.098V684.594ZM480.391 684.242V685.42H466.082V684.242H480.391ZM479.02 673.379V674.521H476.541V679.988H478.984V681.113H467.383V679.988H469.826V674.521H467.348V673.379H479.02ZM471.197 679.988H475.188V674.521H471.197V679.988ZM494.523 671.814V683.311H493.17V671.814H494.523ZM494.98 685.93V687.09H484.275V682.414H485.664V685.93H494.98ZM489.566 672.922V677.439H483.801V679.936C486.701 679.936 488.758 679.848 491.236 679.408L491.377 680.551C488.828 680.99 486.719 681.078 483.73 681.096H482.465V676.35H488.195V674.047H482.43V672.922H489.566ZM505.598 672.957V674.082H499.498V676.051H505.158V677.176H499.498V679.232C502.829 679.232 504.675 679.171 506.881 678.811L507.021 679.936C504.736 680.305 502.82 680.375 499.375 680.375H498.109V672.957H505.598ZM510.098 671.814V681.5H508.727V671.814H510.098ZM504.912 681.729C508.164 681.711 510.168 682.748 510.168 684.541C510.168 686.369 508.164 687.389 504.912 687.389C501.59 687.389 499.621 686.369 499.621 684.541C499.621 682.748 501.59 681.711 504.912 681.729ZM504.912 682.818C502.451 682.818 500.992 683.469 500.992 684.541C500.992 685.648 502.451 686.299 504.912 686.299C507.303 686.299 508.814 685.648 508.814 684.541C508.814 683.469 507.303 682.818 504.912 682.818ZM525.936 673.01V673.836C525.918 674.855 525.918 676.42 525.531 678.459L524.143 678.354C524.521 676.481 524.556 675.154 524.582 674.17H518.148V673.01H525.936ZM521.91 676.473V679.83C523.642 679.76 525.435 679.637 527.061 679.408L527.148 680.428C523.879 680.99 520.1 681.061 517.322 681.061L517.182 679.918C518.192 679.909 519.335 679.9 520.539 679.865V676.473H521.91ZM529.521 671.797V676.895H531.807V678.072H529.521V683.557H528.115V671.797H529.521ZM530.031 685.93V687.09H519.59V682.502H520.979V685.93H530.031ZM540.244 672.922V677.475H534.865V680.059C537.722 680.059 539.286 679.979 541.193 679.654L541.334 680.797C539.295 681.148 537.66 681.201 534.602 681.201H533.477V676.385H538.838V674.047H533.441V672.922H540.244ZM545.781 671.814V683.311H544.393V679.092H541.299V677.949H544.393V675.576H541.299V674.451H544.393V671.814H545.781ZM546.256 685.859V687.002H535.621V682.467H537.01V685.859H546.256ZM565.855 671.814V681.201H564.467V679.092H560.318V677.949H564.467V675.84H560.477C559.448 678.354 557.031 680.173 553.691 681.166L553.111 680.076C556.891 678.951 559.237 676.842 559.527 674.135H553.902V672.975H561.021C561.021 673.59 560.951 674.179 560.828 674.732H564.467V671.814H565.855ZM560.74 681.359C563.904 681.359 565.943 682.484 565.943 684.348C565.943 686.229 563.904 687.354 560.74 687.354C557.541 687.354 555.52 686.229 555.52 684.348C555.52 682.484 557.541 681.359 560.74 681.359ZM560.74 682.467C558.385 682.449 556.873 683.17 556.873 684.348C556.873 685.525 558.385 686.229 560.74 686.229C563.061 686.229 564.555 685.525 564.572 684.348C564.555 683.17 563.061 682.449 560.74 682.467ZM575.875 672.764V677.141H570.496V679.566C573.432 679.566 574.943 679.522 576.789 679.18L576.93 680.322C574.979 680.639 573.396 680.691 570.232 680.691H569.125V676.086H574.504V673.871H569.09V672.764H575.875ZM581.412 671.814V681.412H580.023V678.512H576.912V677.369H580.023V675.26H576.912V674.135H580.023V671.814H581.412ZM581.412 682.256V687.459H580.023V683.381H570.883V682.256H581.412ZM596.898 671.797V687.459H595.51V671.797H596.898ZM588.584 673.01C590.904 673.027 592.574 675.137 592.574 678.459C592.574 681.781 590.904 683.891 588.584 683.891C586.246 683.891 584.594 681.781 584.594 678.459C584.594 675.137 586.246 673.027 588.584 673.01ZM588.584 674.24C587.02 674.258 585.93 675.91 585.93 678.459C585.93 681.008 587.02 682.66 588.584 682.66C590.148 682.66 591.238 681.008 591.238 678.459C591.238 675.91 590.148 674.258 588.584 674.24ZM616.744 675.84V676.947H611.893V678.934H618.326V680.076H604.088V678.934H610.521V676.947H606.039V672.148H607.41V675.84H616.744ZM616.762 681.641V682.748H614.336V686.088H616.885V687.213H605.547V686.088H608.096V682.748H605.688V681.641H616.762ZM609.467 686.088H612.982V682.748H609.467V686.088ZM633.883 680.041V681.166H619.645V680.041H633.883ZM632.301 685.93V687.09H621.49V682.537H622.879V685.93H632.301ZM626.764 672.359C630.121 672.342 632.283 673.502 632.283 675.453C632.283 677.404 630.121 678.564 626.764 678.564C623.371 678.564 621.227 677.404 621.227 675.453C621.227 673.502 623.371 672.342 626.764 672.359ZM626.764 673.467C624.25 673.467 622.633 674.223 622.65 675.453C622.633 676.684 624.25 677.439 626.764 677.439C629.26 677.439 630.877 676.684 630.877 675.453C630.877 674.223 629.26 673.467 626.764 673.467ZM652.674 671.814V683.275H651.285V677.281H648.068V676.139H651.285V671.814H652.674ZM653.113 685.93V687.09H642.637V682.238H644.025V685.93H653.113ZM645.15 675.031C645.15 677.053 646.715 679.021 649 679.795L648.279 680.902C646.513 680.27 645.15 678.951 644.482 677.334C643.806 679.136 642.364 680.577 640.51 681.271L639.789 680.146C642.092 679.338 643.762 677.281 643.762 675.031V674.223H640.229V673.08H648.648V674.223H645.15V675.031ZM669.566 679.795V680.938H663.203V684.137H661.832V680.938H655.258V679.795H669.566ZM667.703 672.57V678.002H657.121V672.57H667.703ZM658.475 673.66V676.895H666.332V673.66H658.475ZM667.967 685.93V687.09H657.086V682.59H658.475V685.93H667.967ZM682.926 671.797V678.16H685.457V679.32H682.926V687.424H681.555V671.797H682.926ZM678.883 673.484C678.883 677.914 676.809 681.939 671.711 684.453L670.938 683.363C674.98 681.351 677.178 678.345 677.494 674.645H671.658V673.484H678.883ZM705.215 684.277V685.42H690.906V684.277H697.34V680.902H692.594V672.904H693.982V675.734H702.104V672.904H703.457V680.902H698.693V684.277H705.215ZM693.982 679.777H702.104V676.859H693.982V679.777ZM720.754 680.709V681.852H716.975V687.424H715.586V681.852H711.578V687.424H710.154V681.852H706.445V680.709H720.754ZM713.564 672.43C716.852 672.43 719.066 673.748 719.066 675.84C719.066 677.914 716.852 679.232 713.564 679.215C710.277 679.232 708.062 677.914 708.062 675.84C708.062 673.748 710.277 672.43 713.564 672.43ZM713.564 673.555C711.121 673.555 709.469 674.451 709.486 675.84C709.469 677.229 711.121 678.107 713.564 678.107C715.99 678.107 717.66 677.229 717.66 675.84C717.66 674.451 715.99 673.555 713.564 673.555ZM724.586 684.822L723.215 689.604H721.914L722.881 684.822H724.586ZM448.557 704.041V706.906C450.06 706.845 451.598 706.713 453.039 706.502L453.145 707.521C449.576 708.172 445.727 708.189 442.914 708.189L442.721 707.047C444.03 707.038 445.577 707.029 447.203 706.977V704.041H448.557ZM452.23 697.854V698.996H448.557C448.592 701.018 450.271 702.661 452.582 703.32L451.932 704.41C450.051 703.848 448.583 702.644 447.889 701.053C447.203 702.731 445.744 703.979 443.863 704.551L443.195 703.496C445.507 702.819 447.133 701.105 447.168 698.996H443.582V697.854H447.203V695.92H448.557V697.854H452.23ZM455.447 695.797V711.459H454.076V695.797H455.447ZM470.723 697.379V698.943C470.705 700.859 470.705 703.004 470.143 706.15L468.736 705.992C469.334 703.004 469.334 700.807 469.334 698.943V698.521H459.701V697.379H470.723ZM472.428 708.066V709.209H458.189V708.066H463.779V702.477H465.133V708.066H472.428ZM478.861 696.939C481.322 696.939 483.062 698.434 483.062 700.613C483.062 702.793 481.322 704.287 478.861 704.287C476.4 704.287 474.625 702.793 474.643 700.613C474.625 698.434 476.4 696.939 478.861 696.939ZM478.861 698.152C477.191 698.152 475.979 699.154 475.996 700.613C475.979 702.072 477.191 703.074 478.861 703.074C480.514 703.074 481.709 702.072 481.709 700.613C481.709 699.154 480.514 698.152 478.861 698.152ZM486.561 695.797V711.459H485.189V695.797H486.561ZM473.834 706.836C476.717 706.836 480.689 706.818 484.152 706.309L484.258 707.328C480.689 707.996 476.84 708.014 474.027 708.014L473.834 706.836ZM502.557 696.43V697.291C502.539 698.231 502.539 699.611 502.188 701.422C502.812 701.378 503.427 701.325 504.033 701.264L504.121 702.16C502.601 702.371 501.01 702.503 499.445 702.582V705.078H498.092V702.635C496.615 702.696 495.2 702.705 493.926 702.705L493.768 701.668C495.868 701.659 498.347 701.633 500.781 701.51C500.913 700.868 501.01 700.288 501.08 699.77L494.998 700.174L494.77 699.137L501.15 698.838C501.177 698.328 501.186 697.88 501.186 697.484H495.244V696.43H502.557ZM506.705 695.814V705.025H505.316V704.146H502.152V703.215H505.316V695.814H506.705ZM506.705 705.588V708.787H497.582V710.229H507.215V711.248H496.229V707.838H505.334V706.59H496.158V705.588H506.705ZM522.279 695.797V711.459H520.908V695.797H522.279ZM517.533 697.256V702.811H511.697V706.502C514.29 706.502 516.602 706.388 519.396 705.939L519.537 707.1C516.654 707.557 514.281 707.662 511.592 707.662H510.291V701.686H516.145V698.398H510.256V697.256H517.533ZM533.547 697.221V698.381H527.307V701.615H532.984V702.74H527.307V706.52C530.225 706.52 532.229 706.405 534.619 706.01L534.76 707.152C532.299 707.557 530.189 707.645 527.184 707.662H525.936V697.221H533.547ZM537.854 695.797V711.424H536.465V695.797H537.854ZM554.781 703.057V704.146H540.473V703.057H554.781ZM552.988 705.395V708.717H543.602V710.211H553.498V711.213H542.213V707.768H551.617V706.432H542.195V705.395H552.988ZM552.936 696.271V699.506H543.707V700.877H553.217V701.879H542.336V698.557H551.547V697.273H542.283V696.271H552.936ZM573.924 695.797V711.424H572.605V695.797H573.924ZM570.76 696.184V710.615H569.459V702.564H566.822V701.439H569.459V696.184H570.76ZM565.152 700.262C565.152 702.969 566.365 705.658 568.527 706.906L567.684 707.926C566.146 707.003 565.056 705.315 564.52 703.32C563.948 705.474 562.814 707.311 561.25 708.295L560.371 707.258C562.551 705.957 563.816 703.109 563.816 700.262V698.785H560.811V697.643H568.018V698.785H565.152V700.262ZM583.188 705.676C586.545 705.676 588.672 706.73 588.672 708.541C588.672 710.334 586.545 711.389 583.188 711.389C579.848 711.389 577.721 710.334 577.721 708.541C577.721 706.73 579.848 705.676 583.188 705.676ZM583.188 706.73C580.691 706.748 579.074 707.434 579.092 708.541C579.074 709.631 580.691 710.299 583.188 710.299C585.684 710.299 587.283 709.631 587.301 708.541C587.283 707.434 585.684 706.748 583.188 706.73ZM588.549 696.605V697.924C588.549 699.189 588.549 700.455 588.109 702.072L586.756 701.914C587.178 700.297 587.178 699.154 587.178 697.924V697.73H577.826V696.605H588.549ZM590.359 703.092V704.217H576.139V703.092H582.027V700.068H583.381V703.092H590.359ZM603.895 695.797V699.805H606.25V700.982H603.895V704.885H602.523V695.797H603.895ZM595.387 705.57V707.24H602.523V705.57H603.895V711.213H594.016V705.57H595.387ZM595.387 710.105H602.523V708.33H595.387V710.105ZM601.029 697.414V698.557H591.713V697.414H595.686V695.656H597.057V697.414H601.029ZM596.371 699.277C598.621 699.277 600.115 700.35 600.133 702.02C600.115 703.689 598.621 704.762 596.371 704.762C594.104 704.762 592.592 703.689 592.609 702.02C592.592 700.35 594.104 699.277 596.371 699.277ZM596.371 700.35C594.895 700.332 593.91 701.018 593.928 702.02C593.91 703.039 594.895 703.707 596.371 703.707C597.83 703.707 598.814 703.039 598.832 702.02C598.814 701.018 597.83 700.332 596.371 700.35ZM620.119 695.797V711.424H618.748V695.797H620.119ZM609.607 697.344V706.203C611.989 706.194 614.459 706.001 617.078 705.447L617.271 706.625C614.494 707.205 612.016 707.398 609.52 707.398H608.254V697.344H609.607ZM634.885 695.797V701.984H637.504V703.145H634.885V711.459H633.514V695.797H634.885ZM630.771 697.326V698.469H624.848V706.379C627.678 706.379 629.682 706.247 632.002 705.816L632.178 707.012C629.734 707.451 627.678 707.539 624.707 707.539H623.477V697.326H630.771ZM640 710.105C639.385 710.105 638.857 709.596 638.875 708.963C638.857 708.348 639.385 707.838 640 707.838C640.615 707.838 641.125 708.348 641.125 708.963C641.125 709.596 640.615 710.105 640 710.105Z" fill="#0A0A0A"/>
<path d="M858.557 680.041V682.906C860.06 682.845 861.598 682.713 863.039 682.502L863.145 683.521C859.576 684.172 855.727 684.189 852.914 684.189L852.721 683.047C854.03 683.038 855.577 683.029 857.203 682.977V680.041H858.557ZM862.23 673.854V674.996H858.557C858.592 677.018 860.271 678.661 862.582 679.32L861.932 680.41C860.051 679.848 858.583 678.644 857.889 677.053C857.203 678.731 855.744 679.979 853.863 680.551L853.195 679.496C855.507 678.819 857.133 677.105 857.168 674.996H853.582V673.854H857.203V671.92H858.557V673.854H862.23ZM865.447 671.797V687.459H864.076V671.797H865.447ZM881.092 671.814V683.275H879.721V671.814H881.092ZM881.584 685.93V687.09H871.002V682.221H872.373V685.93H881.584ZM873.727 674.258C873.709 676.631 875.344 678.775 877.664 679.619L876.943 680.727C875.133 680.032 873.727 678.626 873.041 676.824C872.347 678.74 870.923 680.278 869.104 681.008L868.348 679.936C870.721 679.021 872.32 676.719 872.32 674.258V672.693H873.727V674.258ZM902.572 684.295V685.455H888.264V684.295H894.715V680.709H896.068V684.295H902.572ZM901.201 674.293V675.436H896.104C896.112 677.888 898.714 679.689 901.711 680.182L901.184 681.271C898.679 680.823 896.385 679.566 895.4 677.615C894.407 679.566 892.113 680.823 889.6 681.271L889.055 680.182C892.069 679.689 894.688 677.888 894.697 675.436H889.6V674.293H894.715V672.131H896.068V674.293H901.201ZM916.354 673.379V674.943C916.336 676.859 916.336 679.004 915.773 682.15L914.367 681.992C914.965 679.004 914.965 676.807 914.965 674.943V674.521H905.332V673.379H916.354ZM918.059 684.066V685.209H903.82V684.066H909.41V678.477H910.764V684.066H918.059ZM933.668 679.654V680.797H919.377V679.654H925.811V677.246H927.164V679.654H933.668ZM927.182 672.781C927.182 674.855 929.994 676.596 932.754 676.982L932.191 678.09C929.818 677.677 927.472 676.42 926.496 674.609C925.512 676.429 923.156 677.677 920.766 678.09L920.238 676.982C922.998 676.596 925.793 674.855 925.793 672.781V672.043H927.182V672.781ZM931.857 682.326V687.424H930.469V683.434H920.959V682.326H931.857ZM944.408 686.176C941.877 686.176 940.066 684.822 939.979 682.801H941.578C941.666 684.014 942.879 684.77 944.391 684.77C946.061 684.77 947.291 683.855 947.291 682.537C947.291 681.148 946.184 680.164 944.197 680.164H943.16V678.775H944.197C945.744 678.775 946.816 677.914 946.816 676.596C946.816 675.33 945.885 674.469 944.443 674.469C943.09 674.469 941.842 675.225 941.771 676.473H940.242C940.33 674.451 942.193 673.098 944.461 673.098C946.887 673.098 948.363 674.68 948.346 676.508C948.363 677.949 947.52 679.021 946.184 679.391V679.479C947.836 679.742 948.855 680.92 948.838 682.537C948.855 684.629 946.939 686.176 944.408 686.176ZM955.289 686H951.334V673.273H955.447C959.156 673.273 961.354 675.664 961.354 679.619C961.354 683.592 959.156 686 955.289 686ZM952.916 684.594H955.184C958.312 684.594 959.807 682.713 959.807 679.619C959.807 676.543 958.312 674.68 955.342 674.68H952.916V684.594ZM977.209 684.242V685.42H962.9V684.242H977.209ZM975.838 673.379V674.521H973.359V679.988H975.803V681.113H964.201V679.988H966.645V674.521H964.166V673.379H975.838ZM968.016 679.988H972.006V674.521H968.016V679.988ZM991.342 671.814V683.311H989.988V671.814H991.342ZM991.799 685.93V687.09H981.094V682.414H982.482V685.93H991.799ZM986.385 672.922V677.439H980.619V679.936C983.52 679.936 985.576 679.848 988.055 679.408L988.195 680.551C985.646 680.99 983.537 681.078 980.549 681.096H979.283V676.35H985.014V674.047H979.248V672.922H986.385ZM1006.97 671.797V687.459H1005.6V678.846H1002.29V677.703H1005.6V671.797H1006.97ZM1002.03 673.238V674.381H996.123V677.633H1001.34V678.758H996.123V682.537C998.997 682.537 1000.83 682.44 1002.98 682.062L1003.14 683.205C1000.87 683.574 998.953 683.68 995.93 683.68H994.734V673.238H1002.03ZM1023.86 679.057V680.146H1009.55V679.057H1023.86ZM1022.07 681.395V684.717H1012.68V686.211H1022.58V687.213H1011.29V683.768H1020.7V682.432H1011.28V681.395H1022.07ZM1022.02 672.271V675.506H1012.79V676.877H1022.3V677.879H1011.42V674.557H1020.63V673.273H1011.36V672.271H1022.02ZM1041.84 671.797V675.805H1044.18V676.982H1041.84V681.025H1040.46V671.797H1041.84ZM1041.84 681.729V684.875H1033.07V686.264H1042.44V687.248H1031.7V683.943H1040.47V682.713H1031.67V681.729H1041.84ZM1029.57 679.619C1030.82 679.619 1032.28 679.619 1033.81 679.566V678.6C1031.98 678.468 1030.82 677.738 1030.82 676.543C1030.82 675.26 1032.26 674.521 1034.48 674.521C1036.71 674.521 1038.13 675.26 1038.15 676.543C1038.13 677.729 1037.01 678.459 1035.18 678.6V679.531C1036.64 679.461 1038.12 679.347 1039.49 679.145L1039.61 680.076C1036.24 680.621 1032.47 680.656 1029.73 680.656L1029.57 679.619ZM1039.01 672.992V673.994H1029.96V672.992H1033.81V671.656H1035.18V672.992H1039.01ZM1034.48 675.436C1033.04 675.453 1032.14 675.857 1032.14 676.543C1032.14 677.246 1033.04 677.703 1034.48 677.703C1035.92 677.703 1036.83 677.246 1036.83 676.543C1036.83 675.857 1035.92 675.453 1034.48 675.436ZM1059.44 679.531V680.674H1045.2V679.531H1048.73V677.334C1047.49 676.851 1046.78 676.051 1046.78 674.996C1046.78 673.15 1048.89 672.096 1052.32 672.096C1055.71 672.096 1057.84 673.15 1057.84 674.996C1057.84 676.042 1057.15 676.842 1055.91 677.316V679.531H1059.44ZM1052.32 681.869C1055.68 681.869 1057.68 682.836 1057.7 684.629C1057.68 686.404 1055.68 687.389 1052.32 687.389C1048.93 687.389 1046.92 686.404 1046.92 684.629C1046.92 682.836 1048.93 681.869 1052.32 681.869ZM1052.32 682.924C1049.81 682.941 1048.31 683.557 1048.33 684.629C1048.31 685.684 1049.81 686.316 1052.32 686.316C1054.8 686.316 1056.31 685.684 1056.31 684.629C1056.31 683.557 1054.8 682.941 1052.32 682.924ZM1052.32 673.186C1049.77 673.186 1048.19 673.871 1048.21 674.996C1048.19 676.139 1049.77 676.807 1052.32 676.807C1054.85 676.807 1056.43 676.139 1056.43 674.996C1056.43 673.871 1054.85 673.186 1052.32 673.186ZM1050.11 679.531H1054.54V677.703C1053.88 677.817 1053.14 677.879 1052.32 677.879C1051.5 677.879 1050.76 677.817 1050.11 677.703V679.531ZM1072.85 671.797V678.248H1075.47V679.391H1072.85V687.424H1071.48V671.797H1072.85ZM1069.97 674.311V675.453H1060.67V674.311H1064.7V671.99H1066.07V674.311H1069.97ZM1065.4 676.754C1067.61 676.754 1069.21 678.23 1069.23 680.34C1069.21 682.449 1067.61 683.926 1065.4 683.926C1063.17 683.926 1061.55 682.449 1061.57 680.34C1061.55 678.23 1063.17 676.754 1065.4 676.754ZM1065.4 677.914C1063.94 677.914 1062.87 678.934 1062.88 680.34C1062.87 681.764 1063.94 682.766 1065.4 682.748C1066.84 682.766 1067.89 681.764 1067.91 680.34C1067.89 678.934 1066.84 677.914 1065.4 677.914ZM1080.52 673.01C1081.95 673.019 1083.11 673.854 1083.79 675.295H1087.9V671.797H1089.27V687.459H1087.9V681.395H1083.89C1083.23 682.977 1082.03 683.891 1080.52 683.891C1078.21 683.891 1076.6 681.781 1076.6 678.459C1076.6 675.137 1078.21 673.027 1080.52 673.01ZM1080.52 674.24C1078.97 674.258 1077.91 675.91 1077.91 678.459C1077.91 681.008 1078.97 682.66 1080.52 682.66C1082.04 682.66 1083.12 681.008 1083.12 678.459C1083.12 675.91 1082.04 674.258 1080.52 674.24ZM1084.19 676.455C1084.33 677.062 1084.42 677.729 1084.42 678.459C1084.42 679.101 1084.35 679.707 1084.24 680.252H1087.9V676.455H1084.19ZM861.369 696.43V697.291C861.352 698.231 861.352 699.611 861 701.422C861.624 701.378 862.239 701.325 862.846 701.264L862.934 702.16C861.413 702.371 859.822 702.503 858.258 702.582V705.078H856.904V702.635C855.428 702.696 854.013 702.705 852.738 702.705L852.58 701.668C854.681 701.659 857.159 701.633 859.594 701.51C859.726 700.868 859.822 700.288 859.893 699.77L853.811 700.174L853.582 699.137L859.963 698.838C859.989 698.328 859.998 697.88 859.998 697.484H854.057V696.43H861.369ZM865.518 695.814V705.025H864.129V704.146H860.965V703.215H864.129V695.814H865.518ZM865.518 705.588V708.787H856.395V710.229H866.027V711.248H855.041V707.838H864.146V706.59H854.971V705.588H865.518ZM881.092 695.797V711.459H879.721V695.797H881.092ZM876.346 697.256V702.811H870.51V706.502C873.103 706.502 875.414 706.388 878.209 705.939L878.35 707.1C875.467 707.557 873.094 707.662 870.404 707.662H869.104V701.686H874.957V698.398H869.068V697.256H876.346ZM892.359 697.221V698.381H886.119V701.615H891.797V702.74H886.119V706.52C889.037 706.52 891.041 706.405 893.432 706.01L893.572 707.152C891.111 707.557 889.002 707.645 885.996 707.662H884.748V697.221H892.359ZM896.666 695.797V711.424H895.277V695.797H896.666ZM912.926 697.273H914.508V705.693C914.508 708.312 912.557 710.229 909.551 710.229C906.545 710.229 904.594 708.312 904.594 705.693V697.273H906.176V705.57C906.176 707.416 907.459 708.752 909.551 708.752C911.66 708.752 912.926 707.416 912.926 705.57V697.273ZM917.127 713.586V700.455H918.586V701.967H918.762C919.078 701.457 919.676 700.332 921.521 700.332C923.912 700.332 925.582 702.23 925.582 705.254C925.582 708.277 923.912 710.193 921.539 710.193C919.711 710.193 919.078 709.068 918.762 708.541H918.639V713.586H917.127ZM918.604 705.219C918.604 707.363 919.57 708.84 921.328 708.84C923.139 708.84 924.07 707.258 924.07 705.219C924.07 703.232 923.156 701.686 921.328 701.686C919.535 701.686 918.604 703.109 918.604 705.219ZM929.502 697.273L929.379 706.414H927.902L927.779 697.273H929.502ZM928.641 710.105C928.025 710.105 927.498 709.596 927.516 708.963C927.498 708.348 928.025 707.838 928.641 707.838C929.256 707.838 929.766 708.348 929.766 708.963C929.766 709.596 929.256 710.105 928.641 710.105ZM949.471 695.797V711.424H948.152V695.797H949.471ZM946.307 696.184V710.615H945.006V702.564H942.369V701.439H945.006V696.184H946.307ZM940.699 700.262C940.699 702.969 941.912 705.658 944.074 706.906L943.23 707.926C941.692 707.003 940.603 705.315 940.066 703.32C939.495 705.474 938.361 707.311 936.797 708.295L935.918 707.258C938.098 705.957 939.363 703.109 939.363 700.262V698.785H936.357V697.643H943.564V698.785H940.699V700.262ZM956.959 698.697C956.959 700.771 958.488 702.67 960.809 703.479L960.105 704.551C958.321 703.918 956.959 702.635 956.291 701.018C955.623 702.793 954.19 704.173 952.354 704.85L951.615 703.777C953.953 702.951 955.588 700.93 955.605 698.697V698.029H952.037V696.904H960.475V698.029H956.959V698.697ZM963.885 695.797V699.928H966.24V701.105H963.885V705.219H962.514V695.797H963.885ZM963.885 706.045V711.424H962.514V707.17H953.654V706.045H963.885ZM981.516 703.654V704.797H967.225V703.654H973.658V701.246H975.012V703.654H981.516ZM975.029 696.781C975.029 698.855 977.842 700.596 980.602 700.982L980.039 702.09C977.666 701.677 975.319 700.42 974.344 698.609C973.359 700.429 971.004 701.677 968.613 702.09L968.086 700.982C970.846 700.596 973.641 698.855 973.641 696.781V696.043H975.029V696.781ZM979.705 706.326V711.424H978.316V707.434H968.807V706.326H979.705ZM995.402 703.127V704.252H990.568V708.295H997.09V709.455H982.781V708.295H989.215V704.252H984.609V697.08H995.244V698.205H985.998V703.127H995.402ZM1011.96 697.273H1013.54V705.693C1013.54 708.312 1011.59 710.229 1008.59 710.229C1005.58 710.229 1003.63 708.312 1003.63 705.693V697.273H1005.21V705.57C1005.21 707.416 1006.49 708.752 1008.59 708.752C1010.7 708.752 1011.96 707.416 1011.96 705.57V697.273ZM1016.16 713.586V700.455H1017.62V701.967H1017.8C1018.11 701.457 1018.71 700.332 1020.56 700.332C1022.95 700.332 1024.62 702.23 1024.62 705.254C1024.62 708.277 1022.95 710.193 1020.57 710.193C1018.75 710.193 1018.11 709.068 1017.8 708.541H1017.67V713.586H1016.16ZM1017.64 705.219C1017.64 707.363 1018.61 708.84 1020.36 708.84C1022.17 708.84 1023.11 707.258 1023.11 705.219C1023.11 703.232 1022.19 701.686 1020.36 701.686C1018.57 701.686 1017.64 703.109 1017.64 705.219ZM1028.54 697.273L1028.41 706.414H1026.94L1026.81 697.273H1028.54ZM1027.68 710.105C1027.06 710.105 1026.53 709.596 1026.55 708.963C1026.53 708.348 1027.06 707.838 1027.68 707.838C1028.29 707.838 1028.8 708.348 1028.8 708.963C1028.8 709.596 1028.29 710.105 1027.68 710.105ZM857.396 720.535C859.682 720.535 861.281 721.766 861.281 723.629C861.281 725.237 860.016 726.406 858.135 726.635V728.164C859.594 728.103 861.079 727.971 862.441 727.76L862.547 728.797C859.242 729.395 855.498 729.43 852.791 729.43L852.615 728.287C853.828 728.296 855.252 728.287 856.746 728.234V726.652C854.812 726.441 853.512 725.264 853.529 723.629C853.512 721.766 855.111 720.535 857.396 720.535ZM857.396 721.607C855.885 721.607 854.812 722.416 854.83 723.629C854.812 724.807 855.885 725.615 857.396 725.633C858.926 725.615 859.963 724.807 859.98 723.629C859.963 722.416 858.926 721.607 857.396 721.607ZM864.832 719.814V725.105H867.17V726.283H864.832V731.768H863.443V719.814H864.832ZM865.395 733.912V735.072H854.9V730.73H856.289V733.912H865.395ZM870.352 720.729V723.33H874.711V720.729H876.064V722.311H879.756V719.797H881.145V729.096H879.756V726.635H876.064V728.199H868.98V720.729H870.352ZM870.352 727.057H874.711V724.42H870.352V727.057ZM881.145 729.922V735.424H879.756V731.047H870.633V729.922H881.145ZM876.064 725.492H879.756V723.453H876.064V725.492ZM895.963 719.814V724.965H898.318V726.125H895.963V731.521H894.592V719.814H895.963ZM893.098 721.73V722.855H883.781V721.73H887.754V719.814H889.125V721.73H893.098ZM888.439 723.717C890.672 723.717 892.184 724.859 892.201 726.635C892.184 728.393 890.672 729.518 888.439 729.518C886.189 729.518 884.66 728.393 884.678 726.635C884.66 724.859 886.189 723.717 888.439 723.717ZM888.439 724.807C886.963 724.807 885.979 725.527 885.996 726.635C885.979 727.742 886.963 728.445 888.439 728.428C889.898 728.445 890.883 727.742 890.9 726.635C890.883 725.527 889.898 724.807 888.439 724.807ZM896.684 733.93V735.09H886.189V730.59H887.543V733.93H896.684ZM916.775 719.797V727.795H915.387V726.16H911.221V725.07H915.387V723.189H911.449C910.465 725.659 908.039 727.32 904.576 728.146L904.084 727.004C907.916 726.116 910.148 724.244 910.412 721.73H904.875V720.588H911.924C911.924 721.106 911.871 721.607 911.783 722.082H915.387V719.797H916.775ZM916.775 728.498V732.312H908.057V734.141H917.303V735.283H906.686V731.258H915.387V729.623H906.65V728.498H916.775ZM928.043 721.537V722.346C928.025 723.576 928.025 725.65 927.586 728.551L926.197 728.428C926.619 725.809 926.654 723.91 926.654 722.662H920.098V721.537H928.043ZM923.947 726.002V730.748C925.679 730.687 927.454 730.572 929.08 730.379L929.15 731.416C925.863 731.926 922.189 731.996 919.395 731.979L919.219 730.836C920.247 730.827 921.39 730.818 922.594 730.783V726.002H923.947ZM931.436 719.797V726.336H933.967V727.531H931.436V735.424H930.064V719.797H931.436ZM949.172 726.406V727.531H942.721V729.078H947.344V732.576H938.062V734.158H947.818V735.248H936.691V731.539H945.99V730.15H936.656V729.078H941.35V727.531H934.934V726.406H949.172ZM947.326 720.324V725.088H936.779V720.324H947.326ZM938.15 721.432V723.98H945.955V721.432H938.15ZM957.609 720.078C961.09 720.078 963.129 721.027 963.129 722.768C963.129 724.543 961.09 725.492 957.609 725.51C954.129 725.492 952.072 724.543 952.072 722.768C952.072 721.027 954.129 720.078 957.609 720.078ZM957.609 721.115C955.008 721.115 953.496 721.748 953.514 722.768C953.496 723.857 955.008 724.455 957.609 724.455C960.193 724.455 961.723 723.857 961.723 722.768C961.723 721.748 960.193 721.115 957.609 721.115ZM964.729 726.564V727.689H950.49V726.564H964.729ZM962.9 729.043V732.541H953.619V734.158H963.375V735.248H952.248V731.521H961.547V730.098H952.213V729.043H962.9ZM983.924 719.797V735.424H982.605V719.797H983.924ZM980.76 720.184V734.615H979.459V726.564H976.822V725.439H979.459V720.184H980.76ZM975.152 724.262C975.152 726.969 976.365 729.658 978.527 730.906L977.684 731.926C976.146 731.003 975.056 729.315 974.52 727.32C973.948 729.474 972.814 731.311 971.25 732.295L970.371 731.258C972.551 729.957 973.816 727.109 973.816 724.262V722.785H970.811V721.643H978.018V722.785H975.152V724.262ZM993.188 729.676C996.545 729.676 998.672 730.73 998.672 732.541C998.672 734.334 996.545 735.389 993.188 735.389C989.848 735.389 987.721 734.334 987.721 732.541C987.721 730.73 989.848 729.676 993.188 729.676ZM993.188 730.73C990.691 730.748 989.074 731.434 989.092 732.541C989.074 733.631 990.691 734.299 993.188 734.299C995.684 734.299 997.283 733.631 997.301 732.541C997.283 731.434 995.684 730.748 993.188 730.73ZM998.549 720.605V721.924C998.549 723.189 998.549 724.455 998.109 726.072L996.756 725.914C997.178 724.297 997.178 723.154 997.178 721.924V721.73H987.826V720.605H998.549ZM1000.36 727.092V728.217H986.139V727.092H992.027V724.068H993.381V727.092H1000.36ZM1013.89 719.797V723.805H1016.25V724.982H1013.89V728.885H1012.52V719.797H1013.89ZM1005.39 729.57V731.24H1012.52V729.57H1013.89V735.213H1004.02V729.57H1005.39ZM1005.39 734.105H1012.52V732.33H1005.39V734.105ZM1011.03 721.414V722.557H1001.71V721.414H1005.69V719.656H1007.06V721.414H1011.03ZM1006.37 723.277C1008.62 723.277 1010.12 724.35 1010.13 726.02C1010.12 727.689 1008.62 728.762 1006.37 728.762C1004.1 728.762 1002.59 727.689 1002.61 726.02C1002.59 724.35 1004.1 723.277 1006.37 723.277ZM1006.37 724.35C1004.89 724.332 1003.91 725.018 1003.93 726.02C1003.91 727.039 1004.89 727.707 1006.37 727.707C1007.83 727.707 1008.81 727.039 1008.83 726.02C1008.81 725.018 1007.83 724.332 1006.37 724.35ZM1030.12 719.797V735.424H1028.75V719.797H1030.12ZM1019.61 721.344V730.203C1021.99 730.194 1024.46 730.001 1027.08 729.447L1027.27 730.625C1024.49 731.205 1022.02 731.398 1019.52 731.398H1018.25V721.344H1019.61ZM1044.88 719.797V725.984H1047.5V727.145H1044.88V735.459H1043.51V719.797H1044.88ZM1040.77 721.326V722.469H1034.85V730.379C1037.68 730.379 1039.68 730.247 1042 729.816L1042.18 731.012C1039.73 731.451 1037.68 731.539 1034.71 731.539H1033.48V721.326H1040.77ZM1050 734.105C1049.38 734.105 1048.86 733.596 1048.88 732.963C1048.86 732.348 1049.38 731.838 1050 731.838C1050.62 731.838 1051.12 732.348 1051.12 732.963C1051.12 733.596 1050.62 734.105 1050 734.105Z" fill="#0A0A0A"/>
<path d="M52.1602 544.256V561.115H48.9355V552.838H45.1523V550.223H48.9355V544.256H52.1602ZM52.7188 564.34V566.93H36.8242V559.643H40.0742V564.34H52.7188ZM41.4199 548.775C41.4199 551.441 43.0449 554.311 46.7266 555.504L45.127 558.068C42.5625 557.243 40.8105 555.555 39.7949 553.447C38.7793 555.783 36.9385 557.637 34.209 558.551L32.5586 555.91C36.3672 554.717 38.0938 551.695 38.1191 548.75V548.395H33.4727V545.805H46.0156V548.395H41.4199V548.775ZM76.2812 555.656V558.221H67.5723V562.207H64.373V558.221H55.1309V555.656H76.2812ZM73.5645 545.246V553.752H57.7715V545.246H73.5645ZM60.9453 547.76V551.238H70.3906V547.76H60.9453ZM73.9453 564.34V566.93H57.6191V560.201H60.8438V564.34H73.9453ZM95.8574 544.23V553.092H99.1328V555.758H95.8574V567.285H92.6074V544.23H95.8574ZM89.6875 546.592C89.6621 553.498 86.9707 559.49 79.2012 563.299L77.373 560.811C82.8447 558.068 85.7773 554.387 86.3867 549.232H78.6934V546.592H89.6875ZM106.979 545.602C110.533 545.602 113.301 547.938 113.326 551.264C113.301 554.057 111.358 556.151 108.629 556.748V559.896C110.457 559.82 112.272 559.668 113.986 559.439L114.215 561.826C109.391 562.74 104.186 562.74 100.25 562.689L99.8184 560.074C101.481 560.062 103.398 560.062 105.404 560.023V556.773C102.573 556.202 100.631 554.095 100.631 551.264C100.631 547.938 103.322 545.602 106.979 545.602ZM106.979 548.344C105.15 548.344 103.779 549.41 103.805 551.264C103.779 553.092 105.15 554.184 106.979 554.184C108.756 554.184 110.127 553.092 110.127 551.264C110.127 549.41 108.756 548.344 106.979 548.344ZM118.455 544.23V553.295H121.604V556.012H118.455V567.336H115.205V544.23H118.455ZM137.574 548.801C137.574 551.568 139.275 554.387 143.084 555.529L141.434 558.068C138.844 557.256 137.016 555.593 135.975 553.498C134.921 555.771 133.042 557.599 130.338 558.5L128.662 555.961C132.496 554.717 134.273 551.721 134.273 548.801V548.471H129.525V545.881H142.221V548.471H137.574V548.801ZM147.908 544.256V560.963H144.658V544.256H147.908ZM148.518 564.34V566.93H132.42V559.439H135.695V564.34H148.518ZM170.887 544.23V558.729H167.814V552.584H165.961V557.967H162.939V544.662H165.961V549.943H167.814V544.23H170.887ZM162.254 546.617V549.131H150.904V546.617H154.992V544.434H158.217V546.617H162.254ZM156.617 549.893C159.562 549.893 161.645 551.518 161.67 553.93C161.645 556.316 159.562 557.941 156.617 557.941C153.723 557.941 151.615 556.316 151.615 553.93C151.615 551.518 153.723 549.893 156.617 549.893ZM156.617 552.229C155.348 552.229 154.51 552.863 154.51 553.93C154.51 554.996 155.348 555.656 156.617 555.631C157.887 555.656 158.725 554.996 158.75 553.93C158.725 552.863 157.887 552.229 156.617 552.229ZM162.99 558.932C167.992 558.932 170.988 560.455 171.014 563.146C170.988 565.812 167.992 567.336 162.99 567.336C158.014 567.336 154.992 565.812 154.992 563.146C154.992 560.455 158.014 558.932 162.99 558.932ZM162.99 561.369C159.867 561.369 158.217 561.928 158.242 563.146C158.217 564.314 159.867 564.898 162.99 564.898C166.139 564.898 167.738 564.314 167.738 563.146C167.738 561.928 166.139 561.369 162.99 561.369ZM187.264 553.625V556.215H182.77V559.998C184.674 559.935 186.578 559.808 188.381 559.617L188.635 561.979C183.582 562.766 178.326 562.791 173.984 562.791L173.604 560.15C175.444 560.163 177.45 560.163 179.52 560.1V556.215H175.127V546.287H187.137V548.852H178.352V553.625H187.264ZM192.926 544.23V567.387H189.701V544.23H192.926ZM214.736 550.527V553.066H198.588V545.043H201.812V550.527H214.736ZM217.098 555.555V558.094H195.947V555.555H217.098ZM214.889 564.238V566.828H198.385V559.973H201.635V564.238H214.889ZM39.8965 583.264C39.8965 586.768 41.166 590.271 44.4414 592.049L42.6641 594.41C40.582 593.344 39.1982 591.465 38.3984 589.205C37.5859 591.668 36.2021 593.75 34.1074 594.969L32.2539 592.531C35.5801 590.602 36.8242 586.844 36.8496 583.264V582.73H33.1172V580.141H36.8496V577.018H39.8711V580.141H43.5273V582.73H39.8965V583.264ZM52.668 576.23V599.336H49.5957V576.23H52.668ZM47.9453 576.611V598.27H44.8984V587.631H42.1816V584.99H44.8984V576.611H47.9453ZM75.1895 576.23V599.336H72.1426V576.23H75.1895ZM70.3652 576.738V598.32H67.293V590.703H64.0176V588.088H67.293V584.939H64.4492C63.3701 588.748 61.0342 591.973 56.7051 594.537L54.8008 592.252C59.4854 589.484 61.542 586.12 61.9863 581.588H56.1465V578.973H65.2109C65.2109 580.128 65.1348 581.245 65.0078 582.324H67.293V576.738H70.3652ZM90.957 577.525V580.09H86.3613C86.3867 582.819 88.0117 585.612 91.668 586.818L90.0684 589.307C87.5039 588.494 85.752 586.818 84.7617 584.736C83.7207 587.047 81.8799 588.913 79.1504 589.789L77.5 587.225C81.2959 586.006 83.0225 582.972 83.0605 580.09H78.4141V577.525H90.957ZM97.1016 591.008V599.336H93.877V593.598H81.2324V591.008H97.1016ZM97.1016 576.23V589.992H93.877V584.432H90.2969V581.791H93.877V576.23H97.1016ZM119.445 576.256V592.861H116.195V576.256H119.445ZM120.055 596.34V598.93H103.957V591.186H107.232V596.34H120.055ZM106.775 577.729C110.33 577.729 113.098 580.166 113.098 583.543C113.098 586.996 110.33 589.408 106.775 589.408C103.221 589.408 100.453 586.996 100.453 583.543C100.453 580.166 103.221 577.729 106.775 577.729ZM106.775 580.547C104.973 580.521 103.602 581.664 103.627 583.543C103.602 585.473 104.973 586.59 106.775 586.59C108.527 586.59 109.898 585.473 109.898 583.543C109.898 581.664 108.527 580.521 106.775 580.547ZM136.99 579.861C136.99 582.654 138.615 585.346 142.271 586.488L140.545 589.002C138.095 588.189 136.381 586.615 135.391 584.584C134.388 586.92 132.598 588.748 129.957 589.637L128.205 587.098C132.064 585.803 133.715 582.73 133.74 579.557V577.449H136.99V579.861ZM146.893 576.23V581.639H150.016V584.33H146.893V589.941H143.643V576.23H146.893ZM139.326 590.398C144.1 590.398 147.121 592.049 147.121 594.867C147.121 597.711 144.1 599.336 139.326 599.336C134.451 599.336 131.404 597.711 131.404 594.867C131.404 592.049 134.451 590.398 139.326 590.398ZM139.326 592.938C136.279 592.938 134.629 593.598 134.654 594.867C134.629 596.188 136.279 596.797 139.326 596.797C142.322 596.797 143.922 596.188 143.922 594.867C143.922 593.598 142.322 592.938 139.326 592.938ZM169.363 576.23V581.436H172.486V584.102H169.363V589.205H166.113V576.23H169.363ZM162.229 577.678V580.242H155.17V585.752C159.347 585.727 161.645 585.574 164.234 585.041L164.564 587.58C161.67 588.24 159.004 588.342 153.875 588.342H151.92V577.678H162.229ZM169.363 590.17V599.057H154.256V590.17H169.363ZM157.455 592.734V596.518H166.164V592.734H157.455Z" fill="#0A0A0A"/>
</svg>
