<svg width="864" height="150" viewBox="0 0 864 150" fill="none" xmlns="http://www.w3.org/2000/svg">
<path d="M102.402 1.31984C102.822 1.31984 103.002 1.43984 103.002 1.67984C103.002 2.09984 102.702 2.51984 102.402 2.93984C100.902 4.67984 100.482 7.01984 100.722 9.35984C101.502 8.69984 102.042 8.39984 102.462 8.39984C104.862 8.39984 103.662 12.1198 101.742 12.2998C100.722 12.3598 99.2816 11.4598 99.3416 10.4398C97.4216 7.79984 99.7616 3.95984 101.562 1.79984C101.862 1.49984 102.162 1.31984 102.402 1.31984ZM130.71 35.9398C130.71 41.7598 119.43 45.5998 114.81 45.5998C114.33 45.5998 113.13 45.2998 113.13 44.8198C113.13 44.1598 113.49 43.7998 114.27 43.6798C118.83 43.0798 127.65 40.1398 127.35 35.6998C127.17 32.2798 121.17 32.5798 118.47 32.8798C115.95 33.2398 116.85 31.1998 117.87 30.7198C119.55 29.8798 122.55 26.2198 122.55 23.2198C122.55 20.8798 120.99 20.5198 119.31 20.5198C116.61 20.5198 114.27 21.3598 112.77 21.7798C111.87 22.0198 111.27 21.6598 111.03 21.1798C110.97 20.8798 110.85 20.0998 112.11 19.5598C114.81 18.5398 117.15 18.2398 118.77 18.2398C122.85 18.2398 125.79 19.4398 125.79 23.2198C125.79 25.3798 123.93 28.0798 121.35 30.7198C127.35 30.7198 130.71 32.1598 130.71 35.9398ZM156.981 26.8198C157.101 35.4598 150.201 41.5798 142.281 44.3998C141.381 44.8198 140.301 45.0598 140.301 44.0998C140.301 43.4398 141.201 42.4798 142.221 41.9398C148.761 38.5798 153.981 35.9398 153.981 26.9398C153.981 20.2198 149.301 16.1998 141.681 17.5198C140.901 17.4598 140.541 17.0998 140.541 16.4998C140.601 15.8998 140.961 15.5398 141.741 15.3598C150.561 13.6798 156.981 19.3198 156.981 26.8198ZM139.161 30.8998C138.921 35.6998 138.141 40.6798 137.601 44.0998C137.541 44.3398 137.481 45.7198 136.821 45.7198C136.161 45.7198 135.801 44.8198 135.621 44.3998C135.141 42.2998 136.281 33.4198 136.281 31.3198C136.281 26.5198 135.921 19.4398 135.801 16.0798C135.741 14.9398 135.921 13.7998 137.121 13.5598C138.381 13.3198 138.561 14.3998 138.801 15.3598C139.581 18.9598 139.161 29.6398 139.161 30.8998ZM186.142 12.7198C186.082 13.2598 185.302 13.6198 185.002 13.5598C184.222 13.3798 183.262 13.3198 182.062 13.4398C179.602 13.6798 171.622 15.4798 165.862 18.2998C164.782 18.6598 162.682 19.0198 162.682 17.8198C162.682 17.2798 163.402 16.7998 164.062 16.3798C168.622 13.6798 178.042 11.2798 182.782 11.2798C183.982 11.2798 184.882 11.3398 185.302 11.5198C185.842 11.5798 186.322 12.1798 186.142 12.7198ZM186.382 34.2598C186.382 34.7998 186.022 35.0998 185.242 35.0998C182.182 35.1598 179.182 35.3998 176.362 36.5398C174.922 37.6198 170.782 40.2598 167.002 41.0998C165.862 41.3398 165.142 40.9798 165.142 40.6798C165.142 39.7798 166.522 39.0598 166.522 39.0598C169.162 37.6798 173.602 35.6398 173.482 35.6998C177.802 32.6398 179.842 29.0998 179.842 23.7598C179.842 22.0198 179.242 21.2998 179.242 19.9198C179.242 18.9598 180.202 17.0998 181.222 17.0998C182.122 17.0998 182.362 17.7598 182.542 18.4798C182.842 19.6198 182.962 20.5798 182.962 22.3198C182.962 26.7598 181.822 29.6398 178.102 34.0798C181.162 33.4198 183.322 33.2998 184.762 33.4798C185.482 33.4798 186.382 33.5998 186.382 34.2598ZM173.362 33.8998C173.362 34.3198 172.642 34.1398 172.642 34.1398C170.182 33.4198 168.082 30.4198 167.722 28.1998C167.542 25.8598 167.662 24.1198 168.322 22.0198C168.562 20.9998 169.102 20.3398 170.302 20.3398C171.202 20.3398 171.262 21.3598 171.262 21.8398C171.322 23.0998 170.242 25.1398 170.422 27.4798C170.602 29.4598 171.622 31.1398 172.642 32.5798C173.062 33.0598 173.362 33.4798 173.362 33.8998ZM192.442 44.6398C192.682 45.4798 190.042 45.8998 188.962 45.8998C181.942 46.1398 174.682 47.0998 168.742 49.1998C167.662 49.5598 162.442 51.1798 161.962 49.4998C162.202 48.3598 165.262 47.3398 166.102 47.0998C173.302 45.1198 181.162 43.7398 190.582 44.0398C191.242 44.0398 192.382 44.0998 192.442 44.6398ZM224.549 11.6998C227.249 17.2798 225.449 30.2998 223.589 36.4198C223.169 37.8598 222.569 38.5798 221.729 38.5798C221.429 38.5798 221.249 38.0398 221.249 37.7398C221.249 35.8198 221.669 34.0798 221.969 32.3398C222.929 27.9598 223.469 17.2798 221.609 12.7798C221.429 12.2998 221.189 11.9398 221.189 11.2198C221.189 10.7398 221.489 10.4998 222.089 10.4998C223.229 10.3198 224.009 10.5598 224.549 11.6998ZM216.329 34.1398C216.629 34.9198 215.909 35.5198 215.669 35.6998C212.549 37.6198 205.469 38.7598 201.629 38.7598C201.029 38.7598 199.049 38.5798 199.049 37.4398C199.049 36.2398 199.709 35.3998 200.429 34.6198C202.649 32.0398 204.569 30.7798 207.029 28.6198C209.489 26.6398 208.349 26.5198 207.569 26.5198C205.649 26.5198 203.789 26.6398 201.929 26.6398C198.269 26.6398 198.869 23.8798 200.789 22.3198C202.889 20.6998 205.709 18.5398 206.969 16.6198C208.049 14.7598 206.249 14.5798 205.169 14.5798C202.769 14.5798 199.709 15.3598 197.549 15.5398C196.289 15.5998 195.749 14.7598 195.989 14.2198C196.169 13.7998 196.889 13.4998 197.189 13.4398C199.769 12.7798 203.729 12.0598 206.549 12.3598C209.729 12.6598 211.769 14.1598 209.909 17.2198C208.469 19.4398 205.829 21.2998 203.729 22.9198C201.989 24.2998 202.529 24.3598 203.969 24.2998C206.369 24.1198 209.129 24.0598 210.629 24.5998C212.129 25.0798 212.249 26.3998 211.349 27.6598C210.929 28.1998 210.329 28.9798 209.669 29.5198C206.969 31.8598 204.509 33.6598 203.369 35.0398C202.829 35.7598 202.229 36.2998 204.089 36.2398C206.909 36.0598 210.629 35.3998 214.289 34.1398C214.709 33.9598 216.089 33.4798 216.329 34.1398ZM225.929 46.9198C221.969 48.6598 221.009 49.6798 215.669 49.7998C214.289 49.7398 212.969 49.6198 211.709 49.3798C210.509 49.1998 209.729 48.4798 209.429 47.2798C208.889 44.9398 209.369 43.0798 210.089 40.9198C210.509 39.7798 211.229 39.5998 212.129 39.6598C213.149 39.7198 213.209 41.0398 213.029 41.2798C212.609 42.2998 212.309 44.1598 212.309 44.9398C212.309 47.5798 214.469 47.5798 216.929 47.5798C220.469 47.5798 222.389 45.8398 225.689 45.2398C226.349 45.0598 227.129 45.1798 227.189 45.5998C227.429 46.3198 226.169 46.7398 225.929 46.9198ZM251.226 38.6398C251.226 39.5398 249.606 39.8998 249.066 40.0798C245.886 40.9798 243.306 42.7198 240.726 43.8598C239.766 44.1598 238.326 44.5198 237.366 44.2798C236.586 44.0998 236.226 43.6198 236.166 42.8398C236.106 42.0598 236.166 41.3998 236.226 40.8598C237.186 36.2998 241.266 30.8998 244.626 28.1398C241.206 28.6798 239.346 29.8798 237.006 29.8798C236.586 29.8798 236.286 29.6998 236.106 29.3398C235.986 28.8598 236.106 28.4998 236.526 28.2598C239.346 26.8798 243.726 26.0398 247.086 25.6198C247.506 25.4398 248.466 25.3198 249.126 25.2598C249.906 25.1998 250.206 25.7998 250.266 25.9798C250.506 26.4598 250.026 26.8798 249.366 27.2998C245.106 29.8198 240.606 35.8798 239.406 40.2598C238.986 41.8798 240.186 41.6398 241.386 40.9798C242.826 40.1998 248.526 37.8598 250.266 37.8598C250.566 37.8598 251.226 38.2198 251.226 38.6398ZM262.446 26.0398C262.446 31.7998 261.846 37.7398 260.586 43.0798C260.346 43.9798 259.986 44.6398 259.506 44.6398C258.726 44.6398 258.366 43.7998 258.426 43.0198C258.726 39.6598 259.326 35.2198 259.386 30.8998C257.406 31.6198 253.566 32.9398 252.846 33.3598C252.066 33.7798 250.566 34.0798 249.846 34.0798C248.826 34.0798 248.586 33.5998 248.526 33.2998C248.466 32.8798 249.186 32.3398 249.846 32.0398C253.026 30.6598 256.866 29.4598 259.446 28.5598C259.446 26.6398 259.386 24.8398 259.146 23.1598C258.966 22.0198 259.026 20.8198 260.406 20.7598C261.306 20.6998 261.726 21.4198 261.906 21.6598C262.446 22.7998 262.446 25.1398 262.446 26.0398ZM251.886 19.4998C251.886 20.1598 250.386 20.2798 249.726 20.2798C248.526 20.2798 247.086 20.2198 245.886 20.2798C241.986 20.5198 238.326 21.5398 233.706 22.7998C233.226 22.8598 231.966 23.3398 231.966 22.3798C231.966 21.8398 232.266 21.3598 232.806 21.0598C236.166 19.3198 241.926 18.1198 246.006 17.9998C247.446 17.9398 248.706 18.0598 249.666 18.2398C250.326 18.2998 251.886 18.5998 251.886 19.4998ZM314.261 54.7198C314.201 55.0198 313.901 55.5598 313.481 55.7998C310.961 57.7198 302.561 58.3798 299.141 58.3798C298.361 58.3798 294.761 58.3798 294.761 56.9398C294.581 55.9198 295.601 54.6598 296.381 54.1198C298.721 52.3798 301.841 51.2998 304.781 49.1398C305.921 48.3598 305.741 48.2398 304.841 48.2398C303.221 48.1198 300.161 48.2398 299.681 48.2398C299.261 48.1798 297.521 48.2998 297.101 47.5198C296.801 47.0398 297.221 46.1998 297.521 45.7798C299.621 43.1998 302.321 42.1798 304.541 40.1998C305.201 39.6598 305.561 39.3598 305.561 38.8798C305.561 38.5798 305.261 38.3998 304.661 38.3998H303.521C302.081 38.4598 299.321 39.1798 297.941 39.4798C297.041 39.6598 295.721 39.7198 295.541 38.9398C295.361 38.2198 296.201 37.7398 296.981 37.4998C298.721 37.0198 300.761 36.5998 302.681 36.3598C303.101 34.6198 303.521 31.6198 303.281 29.7598C298.301 30.7798 294.461 32.2198 289.961 33.4798C289.481 33.5398 287.861 34.2598 287.441 34.2598C286.181 34.2598 285.341 34.2598 285.281 33.5998C285.161 32.5798 287.081 32.0398 287.681 31.9198C292.541 30.2998 301.361 27.5998 308.021 26.8798C310.361 26.5798 313.481 26.5198 315.821 27.2398C316.421 27.3598 316.721 27.6598 316.661 28.0798C316.601 28.5598 315.761 28.9198 314.801 28.8598C312.341 28.6198 311.021 28.6198 308.381 28.9198C307.601 28.9798 306.881 29.0398 306.221 29.2198C306.401 30.7198 305.981 33.9598 305.081 36.1198H306.461C307.481 36.1798 309.161 36.4798 309.221 37.8598C309.281 38.7598 309.041 39.1198 308.621 39.6598C307.061 41.6998 303.701 43.0798 301.961 45.0598C301.301 45.7198 301.301 46.1398 303.041 46.0798C304.541 45.9598 307.841 46.0798 308.981 46.4398C310.181 46.7398 310.181 48.5998 309.281 49.3198C307.721 50.4598 302.561 52.6798 300.221 54.5398C299.321 55.1998 299.021 55.6198 299.321 55.7398C299.681 55.9198 300.221 55.9798 300.881 56.0398C302.981 56.1598 309.521 55.2598 312.581 54.4198C313.001 54.2398 314.201 54.0598 314.261 54.7198ZM303.281 15.4198C303.101 20.5198 294.161 23.5798 292.901 27.4798C292.661 27.8998 292.241 28.1398 291.641 28.1398C291.101 28.1398 290.861 27.7798 290.861 27.1198C290.861 21.4198 299.921 20.1598 299.921 15.2998C299.921 13.9198 297.941 13.9198 296.981 14.2198C294.821 14.6998 292.901 15.7798 290.561 16.0798C290.261 16.1398 289.721 16.1398 289.061 16.0798C288.401 16.0198 288.041 15.7798 288.041 15.2398C288.041 14.6998 288.281 14.3398 288.821 14.2798C291.041 13.6198 296.681 11.5198 299.801 11.6398C301.661 11.6398 303.341 12.8398 303.281 15.4198ZM316.961 21.0598C316.961 21.3598 316.541 21.6598 316.361 21.5998C314.201 20.9398 312.581 20.3398 310.481 20.5198C308.621 20.5798 306.821 21.9598 304.841 21.9598C304.301 21.9598 303.641 21.8398 303.581 21.2998C303.461 20.6398 303.581 20.2198 304.001 19.9798C306.221 19.0198 307.781 18.4198 310.601 18.4198C312.281 18.4198 314.861 18.8998 316.481 20.2798C316.781 20.5198 316.961 20.7598 316.961 21.0598ZM299.141 8.81984C298.901 9.53984 298.541 10.3198 297.821 10.3198C297.041 10.3198 296.981 9.47984 296.801 8.69984C296.621 5.99984 296.621 4.13984 295.421 1.91984C295.121 1.13984 295.721 0.599841 296.381 0.539842C297.161 0.479843 297.821 0.719843 298.361 1.37984C299.561 2.63984 300.101 6.35984 299.141 8.81984ZM338.388 33.5398C338.448 33.7198 338.328 33.8998 338.028 34.1998C335.268 36.3598 328.908 38.0398 324.768 37.3198C323.028 37.0198 322.308 35.5198 322.368 34.1398C322.548 30.3598 329.448 23.8798 332.028 17.8798C332.748 16.2598 331.908 15.2398 330.168 15.4798C327.228 15.8998 325.008 17.0998 322.188 17.7598C321.528 17.8198 320.328 18.1798 320.268 17.5198C320.208 16.7398 321.168 16.1998 321.948 15.8998C325.008 14.5198 328.908 13.1998 332.028 13.1998C333.648 13.1998 335.388 14.0398 335.448 15.6598C335.508 16.8598 335.148 17.7598 334.728 18.8998C333.828 21.3598 326.988 29.8798 325.788 32.4598C325.128 33.8998 325.428 35.0998 327.108 35.1598C330.408 35.3398 333.768 34.3198 336.948 33.0598C337.248 32.8798 338.328 32.8798 338.388 33.5398ZM355.308 15.3598C355.848 21.1198 355.728 26.8198 354.108 32.7598C353.868 33.5398 353.568 35.3398 352.068 35.3398C351.168 35.3398 351.768 33.2998 351.768 32.9398C352.068 30.5998 352.308 28.4398 352.488 26.3998C349.668 28.6198 344.748 30.1798 341.568 30.1798C340.548 30.1798 339.168 29.9998 339.168 29.3398C339.168 28.6798 340.548 28.2598 341.088 28.1998C344.088 27.9598 349.308 26.6398 352.608 24.2998C352.668 21.7198 352.548 19.1998 352.128 16.7398C351.948 15.7198 351.888 14.3398 352.068 13.7998C352.248 13.0798 352.908 12.2998 353.868 12.3598C354.888 12.4198 355.248 14.2198 355.308 15.3598ZM354.648 41.2798C354.768 43.3198 354.048 47.4598 353.028 49.1998C353.028 49.1998 352.608 50.0398 351.948 49.8598C351.408 49.6798 351.168 48.7198 351.168 48.4198C351.168 46.4998 351.708 44.1598 351.708 42.8998C351.768 41.5198 351.108 40.6198 349.488 40.8598C347.988 41.2198 344.868 42.4798 343.248 42.5998C342.708 42.5998 341.508 42.3598 341.568 41.3398C341.568 40.8598 342.648 40.7398 342.888 40.6798C344.628 40.2598 347.148 39.2998 348.648 38.9998C350.268 38.5798 351.408 38.3998 352.788 38.8198C353.808 39.0598 354.648 40.1398 354.648 41.2798ZM349.668 18.8998C349.848 19.0798 349.848 19.6798 349.368 19.9798C346.428 21.8398 341.988 23.0398 338.328 23.0398C337.428 23.0398 336.588 22.9798 336.528 22.3198C336.468 21.6598 337.188 21.2398 338.568 20.9998C341.148 20.5198 345.408 19.6198 348.588 18.5998C349.128 18.4798 349.488 18.5998 349.668 18.8998ZM382.967 44.4598C381.767 44.4598 381.407 43.7998 380.927 43.3198C377.627 39.8998 373.247 36.5398 368.627 34.0798C367.367 37.0198 366.107 40.2598 365.147 43.8598C364.847 44.6398 365.027 46.3798 363.887 46.3798C362.627 46.3798 362.747 44.1598 362.867 42.9598C363.827 35.8198 369.947 23.3398 375.887 17.8798C376.487 17.2798 378.527 16.3198 379.007 17.2798C379.187 17.8198 379.127 18.2398 378.827 18.6598C375.407 22.4998 372.527 26.6398 369.947 31.4398C373.487 33.2998 379.847 38.2198 382.127 41.3998C383.267 42.8398 383.627 44.5198 382.967 44.4598ZM397.907 20.3398C399.167 23.9398 398.627 36.1198 397.547 40.6798C397.367 41.6998 396.947 42.8998 395.807 42.8998C395.267 42.8998 395.087 42.2398 395.207 40.9798C395.447 38.2798 395.627 34.0798 395.567 30.0598C392.027 32.0998 386.867 33.6598 383.687 33.6598C382.967 33.6598 380.207 33.7798 380.207 32.4598C380.207 31.7998 381.047 30.9598 381.707 30.9598C385.847 30.9598 391.307 29.6398 395.447 27.6598C395.387 25.0798 395.027 22.8598 394.547 21.1798C394.067 19.4998 395.387 18.4798 395.927 18.4198C396.827 18.2398 397.367 19.0798 397.907 20.3398ZM411.426 21.8998C410.946 23.3398 410.406 28.3198 410.646 32.0998C411.366 31.6798 412.146 31.2598 413.046 30.7798C415.266 29.5798 418.386 28.6198 421.326 28.1398C421.386 27.4798 421.386 26.8198 421.386 26.1598C421.326 23.5198 421.266 20.8198 419.766 17.8798C419.466 17.1598 419.406 15.5398 420.906 15.4798C421.506 15.4198 422.046 15.6598 422.466 16.1398C423.846 17.8798 424.446 20.5798 424.446 26.0398C424.446 34.0198 419.226 43.0198 410.106 43.0198C407.226 43.0198 404.406 41.4598 404.406 39.2398C404.406 37.8598 405.066 36.1198 408.006 33.8998C407.586 28.5598 407.766 23.4598 408.306 20.9998C408.366 20.5798 409.086 19.1398 410.346 19.6798C411.546 20.2198 411.606 21.6598 411.426 21.8998ZM439.626 25.5598C439.626 30.7798 439.446 35.0398 438.486 40.1398C438.486 40.6198 438.306 43.1398 437.586 42.8998C436.926 42.7198 436.326 41.6398 436.326 39.4198C436.326 35.8798 436.446 32.0998 436.446 26.9998C436.446 23.6998 436.026 20.6998 435.246 17.1598C435.066 16.2598 435.906 15.4798 436.926 15.4798C438.126 15.4798 438.666 16.6198 438.966 18.2998C439.086 18.6598 439.626 22.4998 439.626 25.5598ZM410.226 40.7998C415.986 40.7998 419.826 35.9998 421.026 30.2998C418.626 30.7198 415.806 31.6798 413.226 33.1198C409.446 35.3398 407.226 37.5598 407.226 38.8198C407.226 39.5998 407.766 40.7998 410.226 40.7998ZM476.645 28.5598C475.745 28.5598 473.945 27.2998 472.985 26.8798C469.805 25.4998 467.225 24.7198 463.805 24.6598C462.065 24.5998 460.325 24.8398 458.465 24.8398C458.165 24.8398 457.085 25.0198 457.025 24.3598C456.845 22.4398 462.365 22.2598 463.985 22.2598C465.965 22.2598 468.125 22.6198 470.345 23.2798C472.625 23.9398 474.485 25.0798 475.985 26.6998C476.765 27.4798 477.545 28.5598 476.645 28.5598ZM457.925 13.2598C455.045 19.9198 453.305 24.5398 451.385 30.5998C450.425 33.4798 450.425 36.3598 450.425 39.2398C450.425 40.7398 449.945 40.7998 449.645 40.7998C448.985 40.7998 448.565 40.4398 448.325 39.7198C448.025 38.7598 447.605 37.1998 447.785 34.8598C448.385 27.6598 452.525 18.5398 455.705 11.5198C456.125 10.7998 457.025 10.3798 457.565 10.3798C459.125 10.3798 458.225 12.4798 457.925 13.2598ZM472.745 44.5198C467.885 44.0398 462.185 45.7198 458.225 46.7998C456.605 47.2198 455.165 47.6398 453.965 48.1198C452.765 48.6598 451.385 48.8998 449.765 48.8998C448.985 48.8998 448.145 48.6598 448.145 47.8798C448.205 47.1598 449.525 46.6198 450.725 46.3198C456.545 44.4598 466.685 41.8798 472.205 42.6598C472.445 42.6598 473.885 42.8398 473.705 43.7398C473.645 44.2798 473.345 44.5198 472.745 44.5198ZM536.877 53.4598C536.877 54.4798 535.917 55.0198 535.137 55.4398C532.077 56.9398 525.177 57.8998 521.817 57.6598C519.837 57.4798 519.537 55.9198 520.917 54.5398C523.077 52.4398 525.957 51.1198 527.697 49.1398C528.657 48.1198 528.477 47.8798 527.457 47.9398C526.437 47.9998 524.937 48.2398 523.077 48.2398C521.217 48.2398 520.497 47.6398 521.037 46.4998C521.937 44.3398 525.897 41.6398 526.797 40.2598C527.217 39.7798 527.037 38.5798 524.877 39.0598C522.177 39.5998 520.977 40.0198 519.597 40.4398C518.697 40.6798 517.437 40.6798 517.257 39.8998C517.197 39.3598 517.977 38.5798 518.757 38.3398C520.917 37.6798 523.857 36.7198 526.497 36.6598C528.297 36.5998 529.437 37.0798 529.977 38.0998C530.277 38.6398 530.277 39.8998 529.737 40.5598C527.997 42.7798 525.957 43.7998 524.817 45.2998C524.337 45.9598 524.337 46.1998 525.117 46.1998C526.737 46.1998 528.297 45.8998 529.797 45.8998C531.717 45.8998 532.197 47.6398 531.537 48.7798C530.397 50.5198 526.677 52.7998 525.177 54.0598C524.157 55.0798 523.677 55.4398 525.177 55.4398C527.817 55.2598 531.837 54.4798 534.537 53.4598C535.017 53.2198 536.877 52.4998 536.877 53.4598ZM532.377 18.7798C532.377 20.3998 532.317 22.0198 532.197 23.6398C535.257 22.0198 538.857 20.9398 540.537 20.6398C541.557 20.4598 542.877 20.3398 544.317 20.6398C545.037 20.6998 545.637 20.9998 545.637 21.7798C545.637 22.2598 545.037 22.4998 544.497 22.4398C543.477 22.2598 542.697 22.3798 541.797 22.5598C538.617 23.0998 534.957 24.8998 531.897 26.7598C531.657 28.4998 531.417 30.3598 531.117 32.0998C531.057 32.9998 531.297 34.2598 529.857 34.2598C528.597 34.2598 529.017 32.9398 529.017 32.0398C529.017 27.8998 529.317 23.2198 529.317 19.3798C529.317 15.8398 529.017 13.6198 526.917 10.4398C526.197 9.17984 527.277 7.91984 528.417 8.09984C529.197 8.15984 529.737 8.75984 530.037 9.23984C531.537 11.3398 532.317 13.7998 532.377 18.7798ZM517.917 29.9398C517.917 32.6398 515.337 36.1798 511.317 36.1798C509.397 36.1798 508.257 34.4398 508.257 32.6998C508.197 28.9198 509.817 24.8998 511.737 22.2598C512.037 21.8398 512.937 21.5398 513.357 21.7198C513.897 21.9598 513.657 22.5598 513.477 23.2198L512.757 25.1998C513.957 25.3798 515.097 25.8598 516.237 26.7598C517.377 27.5998 517.917 28.6798 517.917 29.9398ZM520.197 18.6598C520.137 19.3798 518.517 19.1998 517.797 19.1998C513.477 18.9598 506.277 20.7598 500.757 22.9798C499.137 23.6398 498.237 24.2998 497.037 24.2998C496.257 24.2998 496.017 23.8798 495.957 23.3998C496.017 22.8598 496.437 22.3798 497.157 22.0198C500.037 20.2798 507.597 17.9398 513.357 17.3398C515.577 17.0998 517.677 17.2198 518.697 17.3998C519.417 17.4598 520.437 17.8798 520.197 18.6598ZM508.737 1.85984C509.997 4.55984 509.637 10.9798 508.617 14.6998C508.437 15.4198 508.077 16.6198 507.297 16.6198C506.637 16.6198 506.397 16.1998 506.457 15.4198C507.117 9.47984 506.217 5.09984 505.557 3.47984C505.317 2.57984 504.777 0.299841 506.577 0.179843C507.597 -0.00015831 508.317 0.899841 508.737 1.85984ZM515.337 29.9398C515.337 28.2598 513.777 27.2998 512.157 26.7598C511.617 28.4998 511.017 30.3598 511.077 32.3398C511.077 32.9998 511.377 34.0798 512.277 34.0798C513.897 34.0798 515.337 31.9198 515.337 29.9398ZM582.683 26.9398C582.683 28.6798 582.623 30.5398 582.443 32.2798C585.083 30.8998 588.623 29.6398 592.943 29.3398C595.043 29.2798 596.603 30.2398 596.423 31.1998C596.243 32.0998 594.863 31.2598 592.763 31.4998C589.583 31.7998 585.263 33.5998 582.143 35.4598C581.723 38.3998 581.243 40.9198 580.943 42.3598C580.883 42.7798 580.343 44.3398 579.623 44.3998C578.843 44.3398 578.663 43.0798 578.723 42.3598C580.103 29.4598 579.623 19.0198 577.763 13.7998C577.403 12.7198 577.163 10.5598 578.783 10.9198C580.643 11.1598 581.183 12.6598 581.243 13.3198C582.143 16.7398 582.623 21.7198 582.683 26.9398ZM560.423 23.0398C560.423 26.9398 558.503 29.9998 557.543 33.5398C557.363 34.3198 556.823 36.8998 556.583 38.5198C556.523 39.0598 556.463 39.8998 555.743 39.8998C555.203 39.8998 554.423 39.1198 554.423 38.1598C554.603 34.7398 555.083 32.4598 555.623 30.5398C556.343 28.1998 557.063 26.3398 557.063 24.1798C557.063 22.7998 557.123 21.6598 555.023 21.5998C552.863 21.4198 551.123 21.6598 548.063 22.3798C547.343 22.6198 546.563 22.5598 546.323 21.8998C546.263 21.5998 546.323 21.0598 546.623 20.8198C549.203 19.3198 554.243 19.0798 556.763 19.3198C558.983 19.4998 560.243 20.7598 560.423 23.0398ZM571.403 25.8598C571.403 30.6598 568.163 34.1398 566.363 38.2198C566.063 38.9998 565.763 40.1398 564.863 40.1398C564.563 40.1398 563.423 39.7198 563.843 38.0998C565.163 33.7198 568.403 31.0798 568.403 25.9798C568.403 25.4398 568.403 24.0598 567.443 24.0598C565.763 24.0598 564.803 24.3598 563.903 24.4198C563.423 24.4798 562.463 24.3598 562.283 23.6398C562.043 22.9798 562.703 22.6198 563.183 22.5598C564.803 22.0198 567.023 21.5398 568.703 21.7198C571.043 22.0198 571.403 23.9398 571.403 25.8598ZM618.138 20.5198C618.138 24.8398 611.778 27.6598 608.778 29.5198C606.678 30.8998 605.118 33.8998 605.538 36.7198C605.658 37.0798 606.438 39.1198 605.478 39.1198C604.938 39.1198 603.918 38.8198 603.498 37.8598C603.258 37.1998 603.018 36.4798 602.958 35.4598C602.838 32.6998 605.238 28.7398 607.758 27.2998C610.698 25.5598 614.958 23.0998 614.958 20.2798C615.078 17.2198 612.258 12.8998 607.758 12.8998C605.058 12.8998 602.658 15.1798 601.938 17.8798C601.878 18.1798 602.238 19.4398 601.338 19.4398C600.198 19.4398 599.358 18.3598 599.358 17.2198C599.358 13.5598 603.618 10.5598 607.158 10.5598C614.178 10.5598 618.138 15.6598 618.138 20.5198ZM608.118 44.9998C608.118 46.0198 607.338 46.4998 606.438 46.5598C604.998 46.5598 604.338 45.8398 604.338 43.9198C604.338 43.0198 605.058 42.7798 605.598 42.7798C606.618 42.7798 608.118 43.3798 608.118 44.9998ZM655.129 16.0198C655.369 14.0398 654.589 13.7398 652.969 14.4598C651.289 15.2398 649.849 16.3798 648.589 17.5798C648.169 18.0598 648.109 18.8398 647.209 19.0198C646.909 19.0798 646.609 19.0798 646.369 18.8998C646.189 21.4798 646.309 23.9998 647.209 25.3798C647.629 25.9198 647.329 26.2798 646.909 26.2198C646.369 26.2198 645.229 25.7398 644.749 25.0198C642.529 21.8398 643.969 14.6398 644.749 10.1998C645.049 8.57984 645.709 7.31984 647.389 7.49984C648.949 7.61984 647.689 10.9198 647.569 11.5198C647.389 12.2998 647.029 14.0398 646.729 16.1398C648.589 13.6798 653.629 11.6998 655.069 11.6998C656.929 11.6998 658.069 12.9598 658.129 14.3398C658.309 17.3998 656.209 21.5398 653.749 26.0998C655.729 25.9198 658.489 26.2798 659.629 27.1798C660.349 27.7198 659.929 28.4998 659.149 28.2598C657.229 27.5998 654.289 27.5998 652.429 28.3198C651.049 28.7998 642.949 31.8598 641.269 31.6798C640.969 31.6198 640.129 31.6198 640.189 30.8398C640.249 29.9398 641.149 29.3398 641.929 29.0398C644.989 27.8998 648.049 27.3598 650.749 26.5798C652.429 24.1198 654.769 19.0798 655.129 16.0198ZM671.629 50.9398C671.509 51.8398 670.609 52.4998 668.989 52.9198C666.409 53.5198 660.769 54.6598 656.869 54.4198C654.769 54.2998 655.069 52.0198 656.209 51.1198C657.649 49.7998 661.729 46.6798 665.029 44.9398C665.449 44.5198 665.209 44.4598 664.909 44.3998C663.889 44.2198 663.169 44.2198 662.029 44.2198C659.809 44.2198 658.549 43.1998 660.049 41.4598C661.309 39.9598 663.889 37.3198 664.309 36.5398C665.089 35.3398 664.369 34.8598 662.749 35.0998C660.889 35.3998 658.849 35.9398 656.509 36.6598C655.729 36.8998 655.189 36.7798 654.889 36.3598C654.589 35.8798 655.069 35.0398 656.029 34.5598C658.189 33.5398 661.369 32.6998 664.429 32.6398C667.129 32.6398 668.149 34.0798 667.729 35.6998C667.489 36.5998 666.889 37.4998 665.989 38.4598C665.089 39.4198 664.249 40.2598 663.589 40.9198C662.329 42.1798 662.809 42.2998 663.709 42.2998C664.369 42.2998 666.529 42.2998 667.969 42.9598C669.649 43.6798 668.569 45.3598 667.549 46.0198C665.329 47.6998 662.569 48.8398 659.509 51.4198C659.269 51.6598 658.609 52.1398 659.329 52.1398C662.389 52.1398 667.369 51.2398 669.469 50.6398C670.369 50.3398 671.689 50.0398 671.629 50.9398ZM670.909 10.0798C671.089 13.3798 671.029 16.0798 670.609 19.1398C673.309 18.6598 676.729 17.9398 679.069 18.5998C679.369 18.6598 680.629 18.8998 680.629 19.6198C680.629 20.1598 679.729 20.3998 679.069 20.3998C675.949 20.3998 672.949 20.9398 670.309 21.6598L670.129 22.7398C669.889 24.4798 669.709 26.1598 669.529 28.2598C669.469 29.0398 669.349 29.8198 668.329 29.8798C667.909 29.8798 667.429 29.5198 667.249 28.4998C666.709 24.4798 667.789 19.9198 667.789 15.1198C667.789 12.5398 667.909 11.3398 667.249 8.69984C666.949 7.55984 667.189 6.53984 668.329 6.53984C669.829 6.53984 670.849 8.21984 670.909 10.0798ZM717.038 26.9398C717.038 28.6798 716.978 30.5398 716.798 32.2798C719.438 30.8998 722.978 29.6398 727.298 29.3398C729.398 29.2798 730.958 30.2398 730.778 31.1998C730.598 32.0998 729.218 31.2598 727.118 31.4998C723.938 31.7998 719.618 33.5998 716.498 35.4598C716.078 38.3998 715.598 40.9198 715.298 42.3598C715.238 42.7798 714.698 44.3398 713.978 44.3998C713.198 44.3398 713.018 43.0798 713.078 42.3598C714.458 29.4598 713.978 19.0198 712.118 13.7998C711.758 12.7198 711.518 10.5598 713.138 10.9198C714.998 11.1598 715.538 12.6598 715.598 13.3198C716.498 16.7398 716.978 21.7198 717.038 26.9398ZM694.778 23.0398C694.778 26.9398 692.858 29.9998 691.898 33.5398C691.718 34.3198 691.178 36.8998 690.938 38.5198C690.878 39.0598 690.818 39.8998 690.098 39.8998C689.558 39.8998 688.778 39.1198 688.778 38.1598C688.958 34.7398 689.438 32.4598 689.978 30.5398C690.698 28.1998 691.418 26.3398 691.418 24.1798C691.418 22.7998 691.478 21.6598 689.378 21.5998C687.218 21.4198 685.478 21.6598 682.418 22.3798C681.698 22.6198 680.918 22.5598 680.678 21.8998C680.618 21.5998 680.678 21.0598 680.978 20.8198C683.558 19.3198 688.598 19.0798 691.118 19.3198C693.338 19.4998 694.598 20.7598 694.778 23.0398ZM705.758 25.8598C705.758 30.6598 702.518 34.1398 700.718 38.2198C700.418 38.9998 700.118 40.1398 699.218 40.1398C698.918 40.1398 697.778 39.7198 698.198 38.0998C699.518 33.7198 702.758 31.0798 702.758 25.9798C702.758 25.4398 702.758 24.0598 701.798 24.0598C700.118 24.0598 699.158 24.3598 698.258 24.4198C697.778 24.4798 696.818 24.3598 696.638 23.6398C696.398 22.9798 697.058 22.6198 697.538 22.5598C699.158 22.0198 701.378 21.5398 703.058 21.7198C705.398 22.0198 705.758 23.9398 705.758 25.8598ZM752.493 20.5198C752.493 24.8398 746.133 27.6598 743.133 29.5198C741.033 30.8998 739.473 33.8998 739.893 36.7198C740.013 37.0798 740.793 39.1198 739.833 39.1198C739.293 39.1198 738.273 38.8198 737.853 37.8598C737.613 37.1998 737.373 36.4798 737.313 35.4598C737.193 32.6998 739.593 28.7398 742.113 27.2998C745.053 25.5598 749.313 23.0998 749.313 20.2798C749.433 17.2198 746.613 12.8998 742.113 12.8998C739.413 12.8998 737.013 15.1798 736.293 17.8798C736.233 18.1798 736.593 19.4398 735.693 19.4398C734.553 19.4398 733.713 18.3598 733.713 17.2198C733.713 13.5598 737.973 10.5598 741.513 10.5598C748.533 10.5598 752.493 15.6598 752.493 20.5198ZM742.473 44.9998C742.473 46.0198 741.693 46.4998 740.793 46.5598C739.353 46.5598 738.693 45.8398 738.693 43.9198C738.693 43.0198 739.413 42.7798 739.953 42.7798C740.973 42.7798 742.473 43.3798 742.473 44.9998ZM764.208 12.3598C763.908 12.3598 763.728 12.2398 763.728 12.0598C763.728 11.6398 764.028 11.2198 764.328 10.7998C765.948 9.05984 766.248 6.59984 766.008 4.37984C765.228 5.03984 764.688 5.33984 764.268 5.33984C761.868 5.33984 763.068 1.61984 764.988 1.43984C766.128 1.37984 767.448 2.15984 767.388 3.29984C767.868 3.95984 768.108 4.67984 768.108 5.51984C768.108 7.67984 766.668 10.1998 765.168 11.9398C764.868 12.1198 764.388 12.3598 764.208 12.3598ZM58.3594 78.1211V149.996H47.0312V78.1211H58.3594ZM19.2188 83.043C30.0781 83.043 38.2031 92.9648 38.2812 108.668C38.2031 124.605 30.0781 134.527 19.2188 134.527C8.125 134.527 0 124.605 0 108.668C0 92.9648 8.125 83.043 19.2188 83.043ZM19.2188 93.1992C14.1406 93.1992 10.8594 98.4336 10.9375 108.668C10.8594 119.059 14.1406 124.293 19.2188 124.293C24.1406 124.293 27.4219 119.059 27.4219 108.668C27.4219 98.4336 24.1406 93.1992 19.2188 93.1992ZM102.656 82.8086V106.324H81.0938V112.887C91.5234 112.848 99.0234 112.457 107.266 111.246L108.203 120.23C98.4375 121.637 89.4531 121.871 76.0156 121.871H69.8438V97.8086H91.4844V91.793H69.8438V82.8086H102.656ZM127.969 78.1992V131.012H116.797V104.371H106.016V94.9961H116.797V78.1992H127.969ZM129.688 139.684V148.668H79.6094V126.637H90.7812V139.684H129.688ZM201.875 114.527V123.277H175.625V134.059H164.531V123.277H136.328V114.527H201.875ZM194.688 139.684V148.668H143.75V128.746H154.922V139.684H194.688ZM155.703 80.3867V87.3398H182.344V80.3867H193.438V110.152H144.688V80.3867H155.703ZM155.703 101.324H182.344V95.6211H155.703V101.324ZM271.094 105.465V114.215H205.547V105.465H271.094ZM263.281 93.3555V102.105H213.516V79.293H262.812V88.1992H224.766V93.3555H263.281ZM263.125 117.73V137.105H224.062V140.621H264.844V149.293H212.969V129.215H251.953V126.168H212.969V117.73H263.125ZM337.031 78.1211V149.84H326.25V78.1211H337.031ZM321.953 79.0586V146.637H311.328V113.121H306.719C305.742 127.184 299.688 135.621 290.859 135.621C281.406 135.621 275.234 125.621 275.234 109.215C275.234 92.8867 281.406 82.9648 290.859 82.9648C299.453 82.9648 305.43 90.8945 306.641 104.215H311.328V79.0586H321.953ZM290.859 93.5898C287.422 93.5898 285.469 98.4336 285.547 109.215C285.469 120.074 287.422 124.84 290.859 124.84C294.453 124.84 296.484 120.074 296.484 109.215C296.484 98.4336 294.453 93.5898 290.859 93.5898ZM406.172 78.1211V149.84H395.625V78.1211H406.172ZM390.859 79.6836V146.793H380.391V114.137H369.844C365.781 122.262 359.219 129.254 348.984 135.074L342.656 127.184C356.797 118.863 362.734 109.176 364.141 95.4648H346.875V86.4805H375.234C375.234 93.1992 374.609 99.4492 373.125 105.23H380.391V79.6836H390.859ZM496.25 120.934V130.074H469.062V149.918H457.812V130.074H430.859V120.934H496.25ZM490.391 86.168V94.9961H469.453C470.859 100.543 477.852 107.262 492.969 108.902L488.906 117.652C476.641 116.363 468.164 111.598 463.516 105.465C458.867 111.676 450.352 116.324 437.969 117.652L433.906 108.902C449.141 107.223 456.133 100.621 457.578 94.9961H436.641V86.168H457.812V78.2773H469.062V86.168H490.391ZM540.938 86.168V94.9961H527.031C527.07 102.535 531.523 110.699 543.516 114.371L538.125 123.043C530.234 120.816 524.805 116.129 521.641 110.23C518.438 116.637 512.93 121.676 504.688 124.137L499.297 115.387C511.211 111.871 515.742 103.238 515.781 94.9961H501.953V86.168H515.781V78.5898H527.109V86.168H540.938ZM560.703 78.1992V131.246H549.531V107.73H538.594V98.7461H549.531V78.1992H560.703ZM562.344 139.684V148.668H512.656V126.793H523.906V139.684H562.344ZM627.734 110.934V119.84H576.641V83.9023H627.266V92.9648H587.734V110.934H627.734ZM634.688 132.184V141.48H569.141V132.184H634.688ZM698.516 78.1992V118.355H687.266V78.1992H698.516ZM675.312 81.3242V103.277H653.125V107.965C664.766 107.926 672.773 107.77 681.875 106.168L683.281 115.152C672.656 116.949 663.047 117.184 648.516 117.184H642.109V94.8398H664.219V90.2305H642.031V81.3242H675.312ZM661.328 121.09V126.559H687.266V121.09H698.516V149.059H650.156V121.09H661.328ZM661.328 140.074H687.266V135.152H661.328V140.074ZM768.047 78.1211V149.84H756.875V78.1211H768.047ZM722.188 84.918V122.809C731.484 122.613 741.562 121.715 751.562 119.762L752.969 129.059C740.469 131.637 728.438 132.418 717.5 132.34H711.016V84.918H722.188ZM833.438 78.1211V104.215H843.594V113.355H833.438V149.996H822.188V78.1211H833.438ZM812.969 84.6836V93.7461H790.547V123.512C800.195 123.434 808.516 122.848 817.578 121.324L818.75 130.699C807.734 132.574 797.812 132.809 785.469 132.809H779.297V84.6836H812.969ZM863.516 85.7773L862.344 125.074H851.172L850 85.7773H863.516ZM856.719 143.121C852.812 143.121 849.609 139.996 849.688 136.012C849.609 132.184 852.812 129.059 856.719 129.059C860.469 129.059 863.75 132.184 863.828 136.012C863.75 139.996 860.469 143.121 856.719 143.121Z" fill="#0A0A0A"/>
</svg>
