<svg width="225" height="43" viewBox="0 0 225 43" fill="none" xmlns="http://www.w3.org/2000/svg">
<path d="M28.9619 17.9428C28.9619 20.1615 28.4419 22.1895 27.4019 24.0268C26.3966 25.8295 24.8539 27.2855 22.7739 28.3948C20.7286 29.4695 18.2153 30.0068 15.2339 30.0068H10.1899V42.3828H-0.00206241V5.72281H15.2339C18.1806 5.72281 20.6766 6.24281 22.7219 7.28281C24.8019 8.32281 26.3619 9.76148 27.4019 11.5988C28.4419 13.4361 28.9619 15.5508 28.9619 17.9428ZM14.2459 21.8948C17.1233 21.8948 18.5619 20.5775 18.5619 17.9428C18.5619 15.2735 17.1233 13.9388 14.2459 13.9388H10.1899V21.8948H14.2459ZM46.6285 42.7468C43.7165 42.7468 41.0992 42.1401 38.7765 40.9268C36.4885 39.7135 34.6859 37.9801 33.3685 35.7268C32.0512 33.4735 31.3925 30.8215 31.3925 27.7708C31.3925 24.7548 32.0512 22.1201 33.3685 19.8668C34.7205 17.6135 36.5405 15.8801 38.8285 14.6668C41.1512 13.4535 43.7685 12.8468 46.6805 12.8468C49.5925 12.8468 52.1925 13.4535 54.4805 14.6668C56.8032 15.8801 58.6232 17.6135 59.9405 19.8668C61.2925 22.1201 61.9685 24.7548 61.9685 27.7708C61.9685 30.7868 61.2925 33.4388 59.9405 35.7268C58.6232 37.9801 56.8032 39.7135 54.4805 40.9268C52.1579 42.1401 49.5405 42.7468 46.6285 42.7468ZM46.6285 33.9068C48.0499 33.9068 49.2285 33.3868 50.1645 32.3468C51.1352 31.2721 51.6205 29.7468 51.6205 27.7708C51.6205 25.7948 51.1352 24.2868 50.1645 23.2468C49.2285 22.2068 48.0672 21.6868 46.6805 21.6868C45.2939 21.6868 44.1325 22.2068 43.1965 23.2468C42.2605 24.2868 41.7925 25.7948 41.7925 27.7708C41.7925 29.7815 42.2432 31.3068 43.1445 32.3468C44.0459 33.3868 45.2072 33.9068 46.6285 33.9068ZM76.3071 18.3588C77.4511 16.6948 78.8378 15.3775 80.4671 14.4068C82.0965 13.4361 83.8471 12.9508 85.7191 12.9508V23.8188H82.8591C80.6405 23.8188 78.9938 24.2521 77.9191 25.1188C76.8445 25.9855 76.3071 27.4935 76.3071 29.6428V42.3828H66.1151V13.2108H76.3071V18.3588ZM106.585 33.6988V42.3828H102.165C94.7116 42.3828 90.9849 38.6908 90.9849 31.3068V21.6868H87.3969V13.2108H90.9849V6.13881H101.229V13.2108H106.533V21.6868H101.229V31.4628C101.229 32.2601 101.402 32.8321 101.749 33.1788C102.13 33.5255 102.754 33.6988 103.621 33.6988H106.585ZM127.016 21.6868H122.44V42.3828H112.196V21.6868H109.024V13.2108H112.196V12.9508C112.196 9.20681 113.288 6.34681 115.472 4.37081C117.69 2.36014 120.862 1.35481 124.988 1.35481C125.82 1.35481 126.461 1.37214 126.912 1.40681V10.0908C126.634 10.0561 126.253 10.0388 125.768 10.0388C124.658 10.0388 123.844 10.2988 123.324 10.8188C122.804 11.3041 122.509 12.1015 122.44 13.2108H127.016V21.6868ZM144.23 42.7468C141.318 42.7468 138.701 42.1401 136.378 40.9268C134.09 39.7135 132.287 37.9801 130.97 35.7268C129.653 33.4735 128.994 30.8215 128.994 27.7708C128.994 24.7548 129.653 22.1201 130.97 19.8668C132.322 17.6135 134.142 15.8801 136.43 14.6668C138.753 13.4535 141.37 12.8468 144.282 12.8468C147.194 12.8468 149.794 13.4535 152.082 14.6668C154.405 15.8801 156.225 17.6135 157.542 19.8668C158.894 22.1201 159.57 24.7548 159.57 27.7708C159.57 30.7868 158.894 33.4388 157.542 35.7268C156.225 37.9801 154.405 39.7135 152.082 40.9268C149.759 42.1401 147.142 42.7468 144.23 42.7468ZM144.23 33.9068C145.651 33.9068 146.83 33.3868 147.766 32.3468C148.737 31.2721 149.222 29.7468 149.222 27.7708C149.222 25.7948 148.737 24.2868 147.766 23.2468C146.83 22.2068 145.669 21.6868 144.282 21.6868C142.895 21.6868 141.734 22.2068 140.798 23.2468C139.862 24.2868 139.394 25.7948 139.394 27.7708C139.394 29.7815 139.845 31.3068 140.746 32.3468C141.647 33.3868 142.809 33.9068 144.23 33.9068ZM173.909 3.90281V42.3828H163.717V3.90281H173.909ZM184.861 10.5068C183.058 10.5068 181.602 10.0215 180.493 9.05081C179.418 8.04548 178.881 6.79748 178.881 5.30681C178.881 3.78148 179.418 2.51614 180.493 1.51081C181.602 0.505477 183.058 0.00280952 184.861 0.00280952C186.629 0.00280952 188.05 0.505477 189.125 1.51081C190.234 2.51614 190.789 3.78148 190.789 5.30681C190.789 6.79748 190.234 8.04548 189.125 9.05081C188.05 10.0215 186.629 10.5068 184.861 10.5068ZM189.905 13.2108V42.3828H179.713V13.2108H189.905ZM209.281 42.7468C206.369 42.7468 203.752 42.1401 201.429 40.9268C199.141 39.7135 197.338 37.9801 196.021 35.7268C194.704 33.4735 194.045 30.8215 194.045 27.7708C194.045 24.7548 194.704 22.1201 196.021 19.8668C197.373 17.6135 199.193 15.8801 201.481 14.6668C203.804 13.4535 206.421 12.8468 209.333 12.8468C212.245 12.8468 214.845 13.4535 217.133 14.6668C219.456 15.8801 221.276 17.6135 222.593 19.8668C223.945 22.1201 224.621 24.7548 224.621 27.7708C224.621 30.7868 223.945 33.4388 222.593 35.7268C221.276 37.9801 219.456 39.7135 217.133 40.9268C214.81 42.1401 212.193 42.7468 209.281 42.7468ZM209.281 33.9068C210.702 33.9068 211.881 33.3868 212.817 32.3468C213.788 31.2721 214.273 29.7468 214.273 27.7708C214.273 25.7948 213.788 24.2868 212.817 23.2468C211.881 22.2068 210.72 21.6868 209.333 21.6868C207.946 21.6868 206.785 22.2068 205.849 23.2468C204.913 24.2868 204.445 25.7948 204.445 27.7708C204.445 29.7815 204.896 31.3068 205.797 32.3468C206.698 33.3868 207.86 33.9068 209.281 33.9068Z" fill="#0A0A0A"/>
</svg>
