<svg width="24" height="27" viewBox="0 0 24 27" fill="none" xmlns="http://www.w3.org/2000/svg">
<path d="M23.6481 12.0464C23.5366 12.151 23.4043 12.234 23.2586 12.2906C23.113 12.3472 22.9568 12.3764 22.7991 12.3764C22.6415 12.3764 22.4853 12.3472 22.3396 12.2906C22.194 12.234 22.0616 12.151 21.9502 12.0464L13.1998 3.84123V25.875C13.1998 26.1734 13.0734 26.4595 12.8483 26.6705C12.6233 26.8815 12.3181 27 11.9999 27C11.6816 27 11.3764 26.8815 11.1514 26.6705C10.9264 26.4595 10.7999 26.1734 10.7999 25.875V3.84123L2.04953 12.0464C1.82438 12.2575 1.519 12.3761 1.20059 12.3761C0.882171 12.3761 0.576797 12.2575 0.351644 12.0464C0.12649 11.8353 2.37238e-09 11.549 0 11.2505C-2.37238e-09 10.952 0.12649 10.6657 0.351644 10.4546L11.1509 0.329937C11.2624 0.225341 11.3947 0.142365 11.5404 0.0857525C11.686 0.0291395 11.8422 0 11.9999 0C12.1575 0 12.3137 0.0291395 12.4594 0.0857525C12.605 0.142365 12.7374 0.225341 12.8488 0.329937L23.6481 10.4546C23.7596 10.5591 23.8482 10.6832 23.9085 10.8197C23.9689 10.9563 24 11.1027 24 11.2505C24 11.3984 23.9689 11.5447 23.9085 11.6813C23.8482 11.8179 23.7596 11.9419 23.6481 12.0464Z" fill="black"/>
</svg>
