<svg width="40" height="37" viewBox="0 0 40 37" fill="none" xmlns="http://www.w3.org/2000/svg">
<path d="M19.9857 0C8.9222 0 0 7.13768 0 15.8029C0 21.4275 3.71163 26.3525 9.27909 29.1648L7.39472 36.2027C7.35919 36.3082 7.35372 36.4214 7.37894 36.5298C7.40415 36.6382 7.45904 36.7375 7.53747 36.8164C7.65183 36.9173 7.79898 36.9731 7.95146 36.9735C8.07789 36.9633 8.19784 36.9134 8.29407 36.8307L16.4026 31.3633C17.5995 31.5285 18.806 31.6142 20.0143 31.6201C31.0635 31.6201 40 24.4824 40 15.8029C40 7.12341 31.035 0 19.9857 0Z" fill="#392020"/>
<path d="M7.00057 13.3053H4.81642C4.5457 13.3132 4.27834 13.2439 4.04554 13.1055C3.94218 13.0407 3.85332 12.9553 3.78454 12.8545C3.71575 12.7538 3.66853 12.64 3.64583 12.5201C3.63889 12.4441 3.63889 12.3678 3.64583 12.2918C3.63904 12.1497 3.66664 12.0079 3.72628 11.8787C3.78592 11.7494 3.87585 11.6366 3.98844 11.5495C4.23731 11.3692 4.5377 11.274 4.84497 11.2782H11.426C11.6988 11.2686 11.968 11.3434 12.1969 11.4923C12.3027 11.5542 12.3934 11.6389 12.4625 11.7401C12.5316 11.8413 12.5774 11.9566 12.5966 12.0777C12.6035 12.1489 12.6035 12.2206 12.5966 12.2918C12.6033 12.4361 12.5758 12.5798 12.5162 12.7113C12.4567 12.8428 12.3668 12.9582 12.254 13.0483C12.0111 13.2283 11.7137 13.3192 11.4117 13.3053H9.29893V20.8143C9.30751 20.9743 9.28275 21.1342 9.22623 21.2841C9.16971 21.434 9.08266 21.5706 8.97059 21.6851C8.86313 21.7945 8.73395 21.8803 8.59135 21.9369C8.44875 21.9934 8.29589 22.0195 8.14261 22.0134C7.87451 22.021 7.61209 21.9353 7.40028 21.7708C7.19864 21.6101 7.06178 21.3819 7.01485 21.1283C7.00074 21.0241 7.00074 20.9185 7.01485 20.8143L7.00057 13.3053Z" fill="#FEE500"/>
<path d="M13.2175 11.8296C13.2802 11.5947 13.4277 11.3913 13.6314 11.2586C13.8485 11.1355 14.0959 11.0761 14.3452 11.0873H14.8877C15.1522 11.0778 15.4142 11.142 15.6443 11.2728C15.8881 11.4368 16.0614 11.6865 16.1297 11.9723L18.9848 20.038C19.0588 20.2485 19.1207 20.463 19.1703 20.6805C19.1752 20.7709 19.1752 20.8613 19.1703 20.9517C19.1752 21.0908 19.1496 21.2293 19.0953 21.3575C19.0411 21.4858 18.9595 21.6006 18.8563 21.694C18.7563 21.7966 18.6362 21.8774 18.5036 21.9314C18.3709 21.9854 18.2286 22.0115 18.0854 22.0081C17.8652 22.03 17.6441 21.9772 17.4576 21.858C17.2712 21.7389 17.1302 21.5604 17.0576 21.3514L16.458 19.5956H12.7035L12.104 21.3514C12.0331 21.5646 11.8904 21.7465 11.7004 21.8662C11.5104 21.986 11.2847 22.0361 11.0618 22.0081C10.8205 22.0144 10.584 21.9389 10.3909 21.7939C10.2028 21.6443 10.0758 21.4311 10.034 21.1944C10.0264 21.1137 10.0264 21.0324 10.034 20.9517C10.0095 20.81 10.0095 20.6652 10.034 20.5235C10.034 20.3665 10.1339 20.1951 10.191 20.038L13.2175 11.8296ZM14.645 13.6998L13.2888 17.9824H15.9869L14.645 13.6998Z" fill="#FEE500"/>
<path d="M19.5012 12.2864C19.4867 11.966 19.5996 11.653 19.8153 11.4156C19.9249 11.305 20.0565 11.2186 20.2016 11.1621C20.3467 11.1055 20.502 11.0799 20.6576 11.0871C20.925 11.084 21.1859 11.1694 21.3999 11.3299C21.5982 11.4973 21.7298 11.7303 21.771 11.9865C21.7851 12.0859 21.7851 12.187 21.771 12.2864V19.7953H25.6968C25.9689 19.7918 26.2364 19.8659 26.4677 20.0093C26.5716 20.0734 26.6609 20.1587 26.7298 20.2596C26.7987 20.3604 26.8455 20.4745 26.8674 20.5947C26.8674 20.5947 26.8674 20.7375 26.8674 20.8088C26.8742 20.951 26.8466 21.0926 26.7869 21.2218C26.7273 21.3511 26.6374 21.4641 26.5248 21.5512C26.2759 21.7314 25.9755 21.8265 25.6683 21.8223H20.8431C20.5358 21.8421 20.2304 21.7621 19.9723 21.5941C19.7415 21.4215 19.5877 21.1652 19.5441 20.8803C19.5336 20.7234 19.5336 20.5659 19.5441 20.4091L19.5012 12.2864Z" fill="#FEE500"/>
<path d="M27.1275 12.2971C27.1189 11.9777 27.2311 11.6668 27.4415 11.4263C27.6555 11.2319 27.9299 11.1171 28.2186 11.1015C28.5073 11.0859 28.7925 11.1704 29.0261 11.3406C29.2287 11.5066 29.3654 11.7394 29.4116 11.9972C29.4186 12.097 29.4186 12.1973 29.4116 12.2971V15.7945L33.0233 11.626C33.1624 11.4838 33.3102 11.3505 33.4658 11.2264C33.6124 11.1391 33.7806 11.0945 33.9512 11.0978C34.2007 11.0965 34.4447 11.1712 34.6507 11.312C34.7477 11.3774 34.8306 11.4617 34.8944 11.5598C34.9582 11.6579 35.0015 11.7678 35.0218 11.8831C35.0276 11.9113 35.0276 11.9405 35.0218 11.9688C35.0149 12.0017 35.0149 12.0357 35.0218 12.0686C35.0213 12.2189 34.982 12.3665 34.9076 12.497C34.8319 12.6352 34.7409 12.7643 34.6364 12.8823L32.2667 15.4805L35.1218 19.9059V20.0486C35.27 20.2532 35.3856 20.4797 35.4644 20.7197V20.791C35.4809 20.9564 35.457 21.1234 35.3949 21.2775C35.3327 21.4317 35.2341 21.5684 35.1075 21.676C34.8693 21.856 34.578 21.9516 34.2795 21.9474C34.0812 21.9555 33.8842 21.9111 33.7085 21.8188C33.5184 21.6913 33.3617 21.5199 33.2517 21.3192L30.5964 17.0365L29.3259 18.3642V20.7481C29.3345 21.0675 29.2223 21.3784 29.0118 21.6189C28.899 21.7291 28.7648 21.8153 28.6175 21.8717C28.4702 21.9282 28.3129 21.954 28.1553 21.9474C27.8919 21.9529 27.6347 21.8671 27.4273 21.7046C27.2256 21.5439 27.0888 21.3159 27.0418 21.0623C27.0277 20.9581 27.0277 20.8523 27.0418 20.7481L27.1275 12.2971Z" fill="#FEE500"/>
</svg>
