<svg width="32" height="35" viewBox="0 0 32 35" fill="none" xmlns="http://www.w3.org/2000/svg">
<path d="M12.498 33.229C13.9293 33.229 15.0897 32.1039 15.0897 30.716C15.0897 29.3282 13.9293 28.2031 12.498 28.2031C11.0666 28.2031 9.90625 29.3282 9.90625 30.716C9.90625 32.1039 11.0666 33.229 12.498 33.229Z" stroke="white" stroke-width="2" stroke-miterlimit="10"/>
<path d="M25.0058 33.229C26.4371 33.229 27.5975 32.1039 27.5975 30.716C27.5975 29.3282 26.4371 28.2031 25.0058 28.2031C23.5744 28.2031 22.4141 29.3282 22.4141 30.716C22.4141 32.1039 23.5744 33.229 25.0058 33.229Z" stroke="white" stroke-width="2" stroke-miterlimit="10"/>
<path d="M1 1H3.47902C4.04243 1 4.49316 1.32777 4.60584 1.87406L8.88778 24.0533C9.00046 24.5996 9.45119 24.9274 10.0146 24.9274H28.1565C28.7199 24.9274 29.1707 24.4904 29.2833 23.9441L30.9736 12.7998C31.1989 11.0517 29.9594 9.41283 28.1565 9.08505L10.0146 6.46287" stroke="white" stroke-width="2" stroke-miterlimit="10" stroke-linecap="round" stroke-linejoin="round"/>
<path d="M29.6128 19.2539H8.20312" stroke="white" stroke-width="2" stroke-miterlimit="10" stroke-linecap="round" stroke-linejoin="round"/>
</svg>
