<svg width="96" height="75" viewBox="0 0 96 75" fill="none" xmlns="http://www.w3.org/2000/svg">
<path d="M17.8417 36.5324C7.19917 36.5324 0 29.1159 0 18.127C0 8.23829 8.25867 0 19.4445 0C31.6967 0 40.75 9.88867 40.75 24.9933C40.75 59.3252 15.7159 73.058 0 74.7083V59.6037C10.6561 57.6816 22.6366 46.9712 23.1732 35.1537C22.6366 35.4253 20.5108 36.5324 17.8417 36.5324Z" fill="#0A0A0A"/>
<path d="M72.1776 36.5324C61.5283 36.5324 54.3359 29.1159 54.3359 18.127C54.3359 8.23829 62.5946 0 73.7805 0C86.0326 0 95.0859 9.88867 95.0859 24.9933C95.0859 59.3252 70.0519 73.058 54.3359 74.7083V59.6037C64.9921 57.6816 76.9726 46.9712 77.5091 35.1537C76.9726 35.4253 74.8468 36.5324 72.1776 36.5324Z" fill="#0A0A0A"/>
</svg>
