<svg width="16" height="16" viewBox="0 0 16 16" fill="none" xmlns="http://www.w3.org/2000/svg">
<path d="M14.9121 14.5381L10.3564 9.95312C11.2646 8.86914 11.7188 7.61914 11.7188 6.20312C11.7188 5.13867 11.4575 4.15723 10.9351 3.25879C10.4126 2.36035 9.69971 1.6499 8.79639 1.12744C7.89307 0.60498 6.91162 0.34375 5.85205 0.34375C4.79248 0.34375 3.81348 0.60498 2.91504 1.12744C2.0166 1.6499 1.30615 2.36035 0.783691 3.25879C0.26123 4.15723 0 5.13867 0 6.20312C0 7.26758 0.26123 8.24902 0.783691 9.14746C1.30615 10.0459 2.0166 10.7563 2.91504 11.2788C3.81348 11.8013 4.79492 12.0625 5.85938 12.0625C7.31445 12.0625 8.59375 11.584 9.69727 10.627L14.2383 15.1973C14.3359 15.2949 14.4482 15.3438 14.5752 15.3438C14.7021 15.3438 14.812 15.2974 14.9048 15.2046C14.9976 15.1118 15.0439 14.9995 15.0439 14.8677C15.0439 14.7358 15 14.626 14.9121 14.5381ZM5.85938 11.1396C4.96094 11.1396 4.1333 10.9175 3.37646 10.4731C2.61963 10.0288 2.02148 9.42822 1.58203 8.67139C1.14258 7.91455 0.922852 7.0918 0.922852 6.20312C0.922852 5.31445 1.14258 4.4917 1.58203 3.73486C2.02148 2.97803 2.61963 2.37744 3.37646 1.93311C4.1333 1.48877 4.9585 1.2666 5.85205 1.2666C6.74561 1.2666 7.5708 1.48877 8.32764 1.93311C9.08447 2.37744 9.68262 2.97803 10.1221 3.73486C10.5615 4.4917 10.7812 5.31445 10.7812 6.20312C10.7812 6.58398 10.7373 6.95996 10.6494 7.33105C10.5615 7.70215 10.437 8.04883 10.2759 8.37109C10.1147 8.69336 9.92188 8.99854 9.69727 9.28662C9.47266 9.57471 9.21875 9.83105 8.93555 10.0557C8.65234 10.2803 8.34961 10.4731 8.02734 10.6343C7.70508 10.7954 7.3584 10.9199 6.9873 11.0078C6.61621 11.0957 6.24023 11.1396 5.85938 11.1396Z" fill="#2A2A2A"/>
</svg>
