<svg width="96" height="16" viewBox="0 0 96 16" fill="none" xmlns="http://www.w3.org/2000/svg">
<path d="M12.3112 15.0005C12.2059 15.0009 12.1033 14.9681 12.0177 14.9067L7.99869 11.993L3.97962 14.9067C3.89376 14.969 3.79031 15.0024 3.68424 15.002C3.57817 15.0016 3.47497 14.9675 3.38956 14.9046C3.30415 14.8417 3.24096 14.7532 3.20912 14.6521C3.17728 14.5509 3.17844 14.4422 3.21244 14.3417L4.77994 9.69891L0.717436 6.91298C0.62944 6.8527 0.563025 6.76586 0.527896 6.66515C0.492767 6.56444 0.490764 6.45513 0.522181 6.3532C0.553598 6.25127 0.616788 6.16206 0.702518 6.0986C0.788247 6.03514 0.892024 6.00076 0.998686 6.00048H6.01056L7.52306 1.34579C7.55564 1.2453 7.61922 1.15771 7.70467 1.09558C7.79011 1.03346 7.89304 1 7.99869 1C8.10433 1 8.20726 1.03346 8.29271 1.09558C8.37815 1.15771 8.44173 1.2453 8.47431 1.34579L9.98681 6.00204H14.9987C15.1055 6.00199 15.2095 6.03613 15.2955 6.09947C15.3815 6.16281 15.4449 6.25201 15.4765 6.35402C15.5081 6.45603 15.5063 6.56548 15.4712 6.66634C15.4361 6.76721 15.3696 6.85419 15.2815 6.91454L11.2174 9.69891L12.784 14.3405C12.8094 14.4156 12.8165 14.4957 12.8048 14.5742C12.7931 14.6526 12.7629 14.7272 12.7168 14.7917C12.6706 14.8561 12.6097 14.9087 12.5392 14.945C12.4686 14.9813 12.3905 15.0003 12.3112 15.0005Z" fill="#F9CA18"/>
<path d="M32.3112 15.0005C32.2059 15.0009 32.1033 14.9681 32.0177 14.9067L27.9987 11.993L23.9796 14.9067C23.8938 14.969 23.7903 15.0024 23.6842 15.002C23.5782 15.0016 23.475 14.9675 23.3896 14.9046C23.3042 14.8417 23.241 14.7532 23.2091 14.6521C23.1773 14.5509 23.1784 14.4422 23.2124 14.3417L24.7799 9.69891L20.7174 6.91298C20.6294 6.8527 20.563 6.76586 20.5279 6.66515C20.4928 6.56444 20.4908 6.45513 20.5222 6.3532C20.5536 6.25127 20.6168 6.16206 20.7025 6.0986C20.7882 6.03514 20.892 6.00076 20.9987 6.00048H26.0106L27.5231 1.34579C27.5556 1.2453 27.6192 1.15771 27.7047 1.09558C27.7901 1.03346 27.893 1 27.9987 1C28.1043 1 28.2073 1.03346 28.2927 1.09558C28.3782 1.15771 28.4417 1.2453 28.4743 1.34579L29.9868 6.00204H34.9987C35.1055 6.00199 35.2095 6.03613 35.2955 6.09947C35.3815 6.16281 35.4449 6.25201 35.4765 6.35402C35.5081 6.45603 35.5063 6.56548 35.4712 6.66634C35.4361 6.76721 35.3696 6.85419 35.2815 6.91454L31.2174 9.69891L32.784 14.3405C32.8094 14.4156 32.8165 14.4957 32.8048 14.5742C32.7931 14.6526 32.7629 14.7272 32.7168 14.7917C32.6706 14.8561 32.6097 14.9087 32.5392 14.945C32.4686 14.9813 32.3905 15.0003 32.3112 15.0005Z" fill="#F9CA18"/>
<path d="M52.3112 15.0005C52.2059 15.0009 52.1033 14.9681 52.0177 14.9067L47.9987 11.993L43.9796 14.9067C43.8938 14.969 43.7903 15.0024 43.6842 15.002C43.5782 15.0016 43.475 14.9675 43.3896 14.9046C43.3042 14.8417 43.241 14.7532 43.2091 14.6521C43.1773 14.5509 43.1784 14.4422 43.2124 14.3417L44.7799 9.69891L40.7174 6.91298C40.6294 6.8527 40.563 6.76586 40.5279 6.66515C40.4928 6.56444 40.4908 6.45513 40.5222 6.3532C40.5536 6.25127 40.6168 6.16206 40.7025 6.0986C40.7882 6.03514 40.892 6.00076 40.9987 6.00048H46.0106L47.5231 1.34579C47.5556 1.2453 47.6192 1.15771 47.7047 1.09558C47.7901 1.03346 47.893 1 47.9987 1C48.1043 1 48.2073 1.03346 48.2927 1.09558C48.3782 1.15771 48.4417 1.2453 48.4743 1.34579L49.9868 6.00204H54.9987C55.1055 6.00199 55.2095 6.03613 55.2955 6.09947C55.3815 6.16281 55.4449 6.25201 55.4765 6.35402C55.5081 6.45603 55.5063 6.56548 55.4712 6.66634C55.4361 6.76721 55.3696 6.85419 55.2815 6.91454L51.2174 9.69891L52.784 14.3405C52.8094 14.4156 52.8165 14.4957 52.8048 14.5742C52.7931 14.6526 52.7629 14.7272 52.7168 14.7917C52.6706 14.8561 52.6097 14.9087 52.5392 14.945C52.4686 14.9813 52.3905 15.0003 52.3112 15.0005Z" fill="#F9CA18"/>
<path d="M72.3112 15.0005C72.2059 15.0009 72.1033 14.9681 72.0177 14.9067L67.9987 11.993L63.9796 14.9067C63.8938 14.969 63.7903 15.0024 63.6842 15.002C63.5782 15.0016 63.475 14.9675 63.3896 14.9046C63.3042 14.8417 63.241 14.7532 63.2091 14.6521C63.1773 14.5509 63.1784 14.4422 63.2124 14.3417L64.7799 9.69891L60.7174 6.91298C60.6294 6.8527 60.563 6.76586 60.5279 6.66515C60.4928 6.56444 60.4908 6.45513 60.5222 6.3532C60.5536 6.25127 60.6168 6.16206 60.7025 6.0986C60.7882 6.03514 60.892 6.00076 60.9987 6.00048H66.0106L67.5231 1.34579C67.5556 1.2453 67.6192 1.15771 67.7047 1.09558C67.7901 1.03346 67.893 1 67.9987 1C68.1043 1 68.2073 1.03346 68.2927 1.09558C68.3782 1.15771 68.4417 1.2453 68.4743 1.34579L69.9868 6.00204H74.9987C75.1055 6.00199 75.2095 6.03613 75.2955 6.09947C75.3815 6.16281 75.4449 6.25201 75.4765 6.35402C75.5081 6.45603 75.5063 6.56548 75.4712 6.66634C75.4361 6.76721 75.3696 6.85419 75.2815 6.91454L71.2174 9.69891L72.784 14.3405C72.8094 14.4156 72.8165 14.4957 72.8048 14.5742C72.7931 14.6526 72.7629 14.7272 72.7168 14.7917C72.6706 14.8561 72.6097 14.9087 72.5392 14.945C72.4686 14.9813 72.3905 15.0003 72.3112 15.0005Z" fill="#F9CA18"/>
<path d="M92.3112 15.0005C92.2059 15.0009 92.1033 14.9681 92.0177 14.9067L87.9987 11.993L83.9796 14.9067C83.8938 14.969 83.7903 15.0024 83.6842 15.002C83.5782 15.0016 83.475 14.9675 83.3896 14.9046C83.3042 14.8417 83.241 14.7532 83.2091 14.6521C83.1773 14.5509 83.1784 14.4422 83.2124 14.3417L84.7799 9.69891L80.7174 6.91298C80.6294 6.8527 80.563 6.76586 80.5279 6.66515C80.4928 6.56444 80.4908 6.45513 80.5222 6.3532C80.5536 6.25127 80.6168 6.16206 80.7025 6.0986C80.7882 6.03514 80.892 6.00076 80.9987 6.00048H86.0106L87.5231 1.34579C87.5556 1.2453 87.6192 1.15771 87.7047 1.09558C87.7901 1.03346 87.893 1 87.9987 1C88.1043 1 88.2073 1.03346 88.2927 1.09558C88.3782 1.15771 88.4417 1.2453 88.4743 1.34579L89.9868 6.00204H94.9987C95.1055 6.00199 95.2095 6.03613 95.2955 6.09947C95.3815 6.16281 95.4449 6.25201 95.4765 6.35402C95.5081 6.45603 95.5063 6.56548 95.4712 6.66634C95.4361 6.76721 95.3696 6.85419 95.2815 6.91454L91.2174 9.69891L92.784 14.3405C92.8094 14.4156 92.8165 14.4957 92.8048 14.5742C92.7931 14.6526 92.7629 14.7272 92.7168 14.7917C92.6706 14.8561 92.6097 14.9087 92.5392 14.945C92.4686 14.9813 92.3905 15.0003 92.3112 15.0005Z" fill="#F9CA18"/>
</svg>
