<svg width="19" height="22" viewBox="0 0 19 22" fill="none" xmlns="http://www.w3.org/2000/svg">
<path d="M16.6667 5.20833H14.5833C14.5833 2.29167 12.2917 0 9.375 0C6.45833 0 4.16667 2.29167 4.16667 5.20833H2.08333C0.9375 5.20833 0 6.14583 0 7.29167V19.7917C0 20.9375 0.9375 21.875 2.08333 21.875H16.6667C17.8125 21.875 18.75 20.9375 18.75 19.7917V7.29167C18.75 6.14583 17.8125 5.20833 16.6667 5.20833ZM9.375 2.08333C11.1458 2.08333 12.5 3.4375 12.5 5.20833H6.25C6.25 3.4375 7.60417 2.08333 9.375 2.08333ZM16.6667 19.7917H2.08333V7.29167H16.6667V19.7917ZM9.375 11.4583C7.60417 11.4583 6.25 10.1042 6.25 8.33333H4.16667C4.16667 11.25 6.45833 13.5417 9.375 13.5417C12.2917 13.5417 14.5833 11.25 14.5833 8.33333H12.5C12.5 10.1042 11.1458 11.4583 9.375 11.4583Z" fill="white"/>
</svg>
