<svg width="19" height="20" viewBox="0 0 19 20" fill="none" xmlns="http://www.w3.org/2000/svg">
<path d="M12.035 1.10435C9.87417 0.114131 7.59473 -0.18751 5.48906 0.108764C5.49413 0.130512 5.49948 0.152542 5.50342 0.174289C7.6443 -0.0677577 9.47793 1.40966 9.53763 3.48754C9.54411 3.71122 9.53059 3.94169 9.49398 4.17809C9.23376 5.86027 7.23989 6.93918 6.17114 8.15901C4.89062 9.6209 3.77118 11.6163 3.24117 13.4917C3.0384 14.2093 2.91308 15.8011 2.6447 16.2892C2.24846 17.01 0.294856 15.3577 0 14.2873C0.00929347 14.4565 0.0222477 14.6203 0.0577318 14.7977C0.824302 16.5818 2.19917 18.0397 3.92015 18.9116C4.46593 19.1881 5.04579 19.4059 5.65268 19.5558C9.82122 20.7469 14.1475 19.4762 16.6443 16.5391C16.334 16.8382 15.9107 17.0515 15.3677 17.1204C14.7989 17.1924 14.3193 17.0814 13.936 16.8535C12.3375 15.9028 12.4245 12.9113 14.7896 12.6235C15.1633 12.578 15.4967 12.6108 15.7904 12.7009C17.218 13.1386 17.6824 14.9651 16.9668 16.1361C17.343 15.6365 17.67 15.0917 17.9381 14.5034C20.1643 9.61751 17.5213 3.6183 12.035 1.10435ZM13.8481 10.3733C13.6876 11.594 12.2679 12.6497 11.8554 13.86C11.5625 14.7191 11.7129 15.3377 11.5926 16.1214C11.4831 16.8357 10.6396 17.1811 9.98766 16.9583C8.89385 16.5841 9.53425 14.8824 7.91296 14.949C6.31054 15.0148 6.92307 16.8789 5.4747 16.958C3.69655 17.0552 4.22881 14.4604 4.56309 13.425C5.29925 11.1446 7.79722 7.31312 10.3619 6.96431C12.5211 6.67058 14.1368 8.17766 13.8481 10.3736V10.3733Z" fill="url(#paint0_linear_7513_75073)"/>
<defs>
<linearGradient id="paint0_linear_7513_75073" x1="0.00028162" y1="10.0002" x2="22.0934" y2="10.0002" gradientUnits="userSpaceOnUse">
<stop stop-color="#1480F9"/>
<stop offset="1" stop-color="#6CEA42"/>
</linearGradient>
</defs>
</svg>
